<svg xmlns="http://www.w3.org/2000/svg" viewBox="0 0 48 46"><title>carrots</title><g id="Layer_2" data-name="Layer 2"><g id="Layer_1-2" data-name="Layer 1"><g id="carrots"><rect width="48" height="46" rx="7.39" ry="7.39" style="fill:#4eab8a"/><path d="M36.34,16.62l.57-1.38s0-.59,1.29-.58c.62-.28.21-.82,1.41-.53a2,2,0,0,0-1-.7l1.34-.61s-.64-.72-1.1-.57a2,2,0,0,0,.77-.69.87.87,0,0,0-1.33,0,16.59,16.59,0,0,0-1.76,2.12,4.81,4.81,0,0,0-.41,1.53,4.75,4.75,0,0,0-.51-1.46,16.6,16.6,0,0,0-1.9-2,.87.87,0,0,0-1.33.05,2,2,0,0,0,.82.63c-.47-.12-1.06.65-1.06.65l1.38.51a2,2,0,0,0-.94.77c1.18-.37.81.19,1.45.43,1.25-.1,1.32.49,1.32.49L36,16.66c-3.21.37-3.27,2.16-3.27,2.16l5.45,15.36c.67-1.08,2-16.21,2-16.21S39.88,16.34,36.34,16.62Z" style="fill:#fff"/><path d="M36.34,16.64v0Z" style="fill:#fff"/><path d="M36.73,15.52l.12-.31v0a.81.81,0,0,1,.64-.58l0,.16a1.06,1.06,0,0,0-.36.15.47.47,0,0,0-.21.28h0l-.13.31Z" style="fill:#fff"/><path d="M38.47,14.28l.09-.16.19.16-.11.12Z" style="fill:#fff"/><path d="M39.61,14.25v0Z" style="fill:#fff"/><path d="M39.45,14.08v0Z" style="fill:#fff"/><path d="M39.45,14.08v0Z" style="fill:#fff"/><path d="M38.61,13.56v0Z" style="fill:#fff"/><polygon points="38.88 13.14 38.98 13.09 39.1 13.37 39 13.4 38.88 13.14" style="fill:#fff"/><path d="M39,13.38v0Z" style="fill:#fff"/><path d="M39.95,13v0Z" style="fill:#fff"/><path d="M39.74,12.78v0Z" style="fill:#fff"/><path d="M39.74,12.78v0Z" style="fill:#fff"/><path d="M38.85,12.42v0Z" style="fill:#fff"/><path d="M38.89,12.4v0Z" style="fill:#fff"/><path d="M38.89,12.41v0Z" style="fill:#fff"/><path d="M39.62,11.74v0Z" style="fill:#fff"/><path d="M38.46,11.72c-.31.35-.63.71-.94,1.07l-.35-.28c.34-.37.67-.73,1-1.1Z" style="fill:#fff"/><path d="M36.71,13.92c0,.14-.1.28-.14.42l-.48-.15c.06-.16.11-.31.18-.47Z" style="fill:#fff"/><path d="M36.12,15.5v0Z" style="fill:#fff"/><polygon points="35.44 14 35.39 13.93 35.41 13.95 34.53 12.96 34.91 12.6 35.81 13.63 35.83 13.66 35.89 13.76 35.44 14" style="fill:#fff"/><path d="M33.51,12l-.32-.17.15-.51.49.26Z" style="fill:#fff"/><path d="M32.37,12.12v0Z" style="fill:#fff"/><path d="M32.4,12.16v0Z" style="fill:#fff"/><path d="M32.4,12.15v0Z" style="fill:#fff"/><path d="M33.19,12.75v0Z" style="fill:#fff"/><path d="M32.91,12.77v0Z" style="fill:#fff"/><path d="M32.91,12.77v0Z" style="fill:#fff"/><path d="M32.14,13.39v0Z" style="fill:#fff"/><polygon points="32.57 13.03 32.66 13.06 32.49 13.53 32.39 13.5 32.57 13.03" style="fill:#fff"/><path d="M32.58,13.55v0Z" style="fill:#fff"/><path d="M33.52,13.89v0Z" style="fill:#fff"/><path d="M33.31,14v0Z" style="fill:#fff"/><path d="M33.31,14v0Z" style="fill:#fff"/><path d="M32.57,14.65v0Z" style="fill:#fff"/><path d="M33.81,14.4a.6.6,0,0,0,.29.23H34l.72,0-.08.44h-.7a1.08,1.08,0,0,1-.5-.37Z" style="fill:#fff"/><polygon points="35.67 15.52 35.73 15.67 35.38 15.85 35.29 15.71 35.67 15.52" style="fill:#fff"/><path d="M36,16.85v0Z" style="fill:#fff"/><path d="M34.42,17.22a2.73,2.73,0,0,0-1.28,1L32.88,18a3.06,3.06,0,0,1,1.4-1.11Z" style="fill:#fff"/><polygon points="33.17 19.64 33.73 21.25 33.49 21.33 32.91 19.73 33.17 19.64" style="fill:#fff"/><polygon points="33.73 21.25 33.73 21.25 33.5 21.34 33.49 21.33 33.73 21.25" style="fill:#fff"/><polygon points="34.28 22.86 34.84 24.48 34.66 24.54 34.08 22.93 34.28 22.86" style="fill:#fff"/><polygon points="35.4 26.09 35.97 27.7 35.82 27.75 35.25 26.14 35.4 26.09" style="fill:#fff"/><polygon points="35.97 27.7 35.98 27.71 35.82 27.76 35.82 27.75 35.97 27.7" style="fill:#fff"/><polygon points="36.55 29.3 37.15 30.91 36.93 30.98 36.38 29.37 36.55 29.3" style="fill:#fff"/><polygon points="37.74 32.51 38.34 34.11 38.02 34.22 37.47 32.6 37.74 32.51" style="fill:#fff"/><path d="M38.18,34.35v0Z" style="fill:#fff"/><polygon points="38.38 32.48 38.61 30.79 39.03 30.84 38.77 32.55 38.38 32.48" style="fill:#fff"/><polygon points="38.82 29.08 39.01 27.37 39.45 27.42 39.25 29.13 38.82 29.08" style="fill:#fff"/><rect x="39.23" y="27.17" width="0.01" height="0.44" transform="translate(7.33 63.05) rotate(-83.11)" style="fill:#fff"/><polygon points="39.21 25.65 39.39 23.94 39.79 23.98 39.62 25.7 39.21 25.65" style="fill:#fff"/><polygon points="39.57 22.23 39.75 20.52 40.08 20.55 39.95 22.26 39.57 22.23" style="fill:#fff"/><polygon points="39.75 20.52 39.75 20.51 40.08 20.54 40.08 20.55 39.75 20.52" style="fill:#fff"/><path d="M39.93,18.8,40,18v0a1,1,0,0,0-.16-.34,1.71,1.71,0,0,0-.27-.3l.14-.17a1.73,1.73,0,0,1,.33.33,1.22,1.22,0,0,1,.21.44v0h0l-.06.85Z" style="fill:#fff"/><path d="M38.07,16.72a8,8,0,0,0-1.71-.08v-.05a8.11,8.11,0,0,1,1.73,0Z" style="fill:#fff"/><path d="M33.91,11.2l1.51,1.29L36,14.77l-.49-4.13s-.17-.42-1.36-1.13a1,1,0,0,0-1.58.43l.8.32Z" style="fill:#fff;stroke:#fff;stroke-linecap:round;stroke-linejoin:round;stroke-width:0.30000001192092896px"/><path d="M37.64,10.94l.35-1,.74-.43a1,1,0,0,0-1.63-.18c-1.06.89-1.17,1.33-1.17,1.33l.15,4.16.26-2.35Z" style="fill:#fff;stroke:#fff;stroke-linecap:round;stroke-linejoin:round;stroke-width:0.30000001192092896px"/><path d="M13.74,13.59,14.91,12s.23-.74,1.83-.33c.88-.16.53-1,2-.22a2.7,2.7,0,0,0-1-1.21l1.9-.35S19,8.76,18.35,8.8a2.61,2.61,0,0,0,1.21-.63,1.15,1.15,0,0,0-1.72-.37,21.87,21.87,0,0,0-2.93,2.15,6.34,6.34,0,0,0-1,1.83,6.26,6.26,0,0,0-.19-2,21.88,21.88,0,0,0-1.79-3.15,1.15,1.15,0,0,0-1.72-.36A2.61,2.61,0,0,0,11,7.3c-.57-.3-1.56.49-1.56.49l1.6,1.1a2.7,2.7,0,0,0-1.45.68c1.63-.1,1,.51,1.71,1,1.63.28,1.54,1.05,1.54,1.05l.41,1.9C9.08,13,8.42,15.24,8.42,15.24l2,21.38c1.2-1.17,7.72-20.08,7.72-20.08S18.36,14.38,13.74,13.59Z" style="fill:#fff"/><path d="M13.74,13.61v0Z" style="fill:#fff"/><path d="M14.61,12.32l.25-.36v0a1,1,0,0,1,1-.52v.16a1.42,1.42,0,0,0-.51.08A.64.64,0,0,0,15,12h0l-.27.35Z" style="fill:#fff"/><path d="M17.24,11.3a.83.83,0,0,1,.53-.3v.25c-.14,0-.25.09-.4.21Z" style="fill:#fff"/><path d="M18.72,11.57v0Z" style="fill:#fff"/><polygon points="18.42 11.16 18.29 10.98 18.51 10.82 18.64 11.02 18.42 11.16" style="fill:#fff"/><path d="M18.4,11v0Z" style="fill:#fff"/><path d="M17.67,10.37v0Z" style="fill:#fff"/><polygon points="18.12 10 18.57 9.91 18.62 10.21 18.17 10.29 18.12 10" style="fill:#fff"/><path d="M18.59,10.22v0Z" style="fill:#fff"/><path d="M19.58,10v0Z" style="fill:#fff"/><polygon points="19.22 9.62 19.05 9.41 19.31 9.19 19.49 9.43 19.22 9.62" style="fill:#fff"/><path d="M19.18,9.47v0Z" style="fill:#fff"/><path d="M18.35,9V9Z" style="fill:#fff"/><polygon points="18.62 8.53 18.65 8.52 18.78 8.86 18.74 8.87 18.62 8.53" style="fill:#fff"/><path d="M18.72,8.88v0Z" style="fill:#fff"/><path d="M19.56,8.36v0Z" style="fill:#fff"/><path d="M18,8c-.26.16-.52.35-.78.53L16.43,9l-.27-.36L17,8.11c.28-.18.54-.36.83-.53Z" style="fill:#fff"/><polygon points="15.02 10.21 14.54 10.97 14.09 10.73 14.63 9.91 15.02 10.21" style="fill:#fff"/><path d="M13.9,12v0Z" style="fill:#fff"/><polygon points="13.5 9.93 13.47 9.82 13.48 9.85 12.68 8.28 13.13 8.03 13.95 9.63 13.96 9.66 14 9.81 13.5 9.93" style="fill:#fff"/><path d="M11.68,6.7a1.18,1.18,0,0,0-.6-.43l.13-.51a1.7,1.7,0,0,1,.88.62Z" style="fill:#fff"/><path d="M10.2,6.49v0Z" style="fill:#fff"/><polygon points="10.58 6.39 10.6 6.42 10.15 6.7 10.13 6.67 10.58 6.39" style="fill:#fff"/><path d="M10.37,6.82v0Z" style="fill:#fff"/><path d="M11,7.56v0Z" style="fill:#fff"/><polygon points="10.67 7.49 10.44 7.54 10.28 7.05 10.6 6.98 10.67 7.49" style="fill:#fff"/><path d="M10.36,7.55v0Z" style="fill:#fff"/><path d="M9.49,8V8Z" style="fill:#fff"/><polygon points="10.03 7.85 10.4 8.11 10.12 8.52 9.74 8.26 10.03 7.85" style="fill:#fff"/><path d="M10.26,8.56v0Z" style="fill:#fff"/><path d="M11.09,9.13v0Z" style="fill:#fff"/><polygon points="10.77 9.2 10.57 9.26 10.4 8.81 10.62 8.73 10.77 9.2" style="fill:#fff"/><path d="M10.49,9.28v0Z" style="fill:#fff"/><path d="M9.63,9.8v0Z" style="fill:#fff"/><path d="M11.15,10a.87.87,0,0,0,.33.41l-.09,0,.9.26L12.1,11l-.79-.22h0l-.07,0a1.34,1.34,0,0,1-.49-.6Z" style="fill:#fff"/><polygon points="13.18 11.98 13.28 12.51 12.89 12.59 12.76 12.07 13.18 11.98" style="fill:#fff"/><path d="M13.3,13.72v0Z" style="fill:#fff"/><path d="M11.08,13.68a3.65,3.65,0,0,0-2,.82l-.21-.23A4,4,0,0,1,11,13.33Z" style="fill:#fff"/><polygon points="8.67 16.42 8.87 18.66 8.63 18.69 8.4 16.45 8.67 16.42" style="fill:#fff"/><polygon points="8.87 18.66 8.87 18.68 8.63 18.7 8.63 18.69 8.87 18.66" style="fill:#fff"/><polygon points="9.07 20.91 9.27 23.15 9.08 23.17 8.85 20.93 9.07 20.91" style="fill:#fff"/><polygon points="9.46 25.39 9.69 27.63 9.51 27.65 9.31 25.41 9.46 25.39" style="fill:#fff"/><polygon points="9.69 27.63 9.69 27.64 9.51 27.66 9.51 27.65 9.69 27.63" style="fill:#fff"/><polygon points="9.92 29.87 10.15 32.11 9.89 32.14 9.7 29.89 9.92 29.87" style="fill:#fff"/><polygon points="10.38 34.35 10.61 36.59 10.28 36.63 10.09 34.38 10.38 34.35" style="fill:#fff"/><path d="M10.45,36.78v0Z" style="fill:#fff"/><polygon points="11.32 34.55 12.16 32.45 12.53 32.6 11.65 34.69 11.32 34.55" style="fill:#fff"/><path d="M13,30.34c.26-.71.52-1.43.8-2.14l.41.15c-.26.72-.53,1.43-.81,2.14Z" style="fill:#fff"/><rect x="13.97" y="28.05" width="0.02" height="0.44" transform="translate(-17.42 31.26) rotate(-69.13)" style="fill:#fff"/><polygon points="14.57 26.07 15.36 23.94 15.71 24.07 14.95 26.21 14.57 26.07" style="fill:#fff"/><polygon points="16.14 21.81 16.92 19.68 17.2 19.78 16.46 21.92 16.14 21.81" style="fill:#fff"/><polygon points="16.92 19.68 16.92 19.66 17.2 19.77 17.2 19.78 16.92 19.68" style="fill:#fff"/><path d="M17.68,17.54l.37-1v0a1.38,1.38,0,0,0-.1-.51,2.32,2.32,0,0,0-.26-.48l.18-.13a2.24,2.24,0,0,1,.31.53,1.58,1.58,0,0,1,.13.62v0h0l-.35,1Z" style="fill:#fff"/><path d="M15.91,14.24a10.65,10.65,0,0,0-2.16-.63v0a10.74,10.74,0,0,1,2.2.55Z" style="fill:#fff"/><path d="M12.37,5.88,13.89,8l.06,3.12.7-5.44s-.08-.59-1.37-1.88a1.29,1.29,0,0,0-2.16,0l.92.66Z" style="fill:#fff;stroke:#fff;stroke-linecap:round;stroke-linejoin:round;stroke-width:0.30000001192092896px"/><path d="M17.23,6.75,18,5.58l1.08-.32s-.38-1.55-2-.76-1.92,1.32-1.92,1.32L14,11.18,15.1,8.26Z" style="fill:#fff;stroke:#fff;stroke-linecap:round;stroke-linejoin:round;stroke-width:0.30000001192092896px"/><path d="M25.18,18.51l1-1.68s.16-.76,1.8-.49c.86-.23.45-1,2-.39a2.7,2.7,0,0,0-1.15-1.12l1.87-.51s-.68-1.07-1.31-1a2.61,2.61,0,0,0,1.15-.73,1.15,1.15,0,0,0-1.75-.22A21.87,21.87,0,0,0,26,14.78a6.34,6.34,0,0,0-.86,1.91,6.26,6.26,0,0,0-.36-2,21.88,21.88,0,0,0-2.06-3A1.15,1.15,0,0,0,21,11.48a2.61,2.61,0,0,0,.93,1c-.59-.25-1.51.62-1.51.62l1.68,1a2.7,2.7,0,0,0-1.39.8c1.61-.24,1,.42,1.79.86,1.65.14,1.62.92,1.62.92l.58,1.86c-4.25-.2-4.71,2.12-4.71,2.12l3.84,21.13c1.1-1.27,6-20.67,6-20.67S29.84,18.9,25.18,18.51Z" style="fill:#fff"/><path d="M25.18,18.54v0Z" style="fill:#fff"/><path d="M25.93,17.18l.22-.38v0a1,1,0,0,1,.95-.6l0,.16a1.42,1.42,0,0,0-.5.13.64.64,0,0,0-.34.34h0l-.24.37Z" style="fill:#fff"/><path d="M28.46,15.94a.83.83,0,0,1,.5-.34l0,.25c-.14,0-.25.11-.38.25Z" style="fill:#fff"/><path d="M30,16.08v0Z" style="fill:#fff"/><polygon points="29.63 15.69 29.49 15.53 29.69 15.35 29.84 15.54 29.63 15.69" style="fill:#fff"/><path d="M29.59,15.58v0Z" style="fill:#fff"/><path d="M28.81,15v0Z" style="fill:#fff"/><polygon points="29.23 14.57 29.67 14.44 29.75 14.73 29.31 14.85 29.23 14.57" style="fill:#fff"/><path d="M29.71,14.74v0Z" style="fill:#fff"/><path d="M30.67,14.48v0Z" style="fill:#fff"/><polygon points="30.3 14.09 30.11 13.89 30.35 13.66 30.55 13.88 30.3 14.09" style="fill:#fff"/><path d="M30.23,13.95v0Z" style="fill:#fff"/><path d="M29.36,13.53v0Z" style="fill:#fff"/><polygon points="29.61 13.06 29.64 13.04 29.79 13.37 29.76 13.39 29.61 13.06" style="fill:#fff"/><path d="M29.71,13.4v0Z" style="fill:#fff"/><path d="M30.51,12.81v0Z" style="fill:#fff"/><path d="M28.93,12.54c-.24.18-.49.4-.73.59l-.73.6-.3-.34.77-.61c.26-.2.51-.41.78-.6Z" style="fill:#fff"/><polygon points="26.16 15.04 25.75 15.84 25.28 15.64 25.74 14.78 26.16 15.04" style="fill:#fff"/><path d="M25.18,16.94v0Z" style="fill:#fff"/><polygon points="24.63 14.89 24.59 14.78 24.6 14.81 23.67 13.32 24.1 13.03 25.05 14.55 25.06 14.59 25.11 14.73 24.63 14.89" style="fill:#fff"/><path d="M22.53,11.83a1.18,1.18,0,0,0-.64-.38l.09-.52a1.7,1.7,0,0,1,.93.54Z" style="fill:#fff"/><path d="M21,11.75v0Z" style="fill:#fff"/><polygon points="21.41 11.61 21.43 11.64 21.01 11.96 20.98 11.93 21.41 11.61" style="fill:#fff"/><path d="M21.22,12.06v0Z" style="fill:#fff"/><path d="M22,12.74v0Z" style="fill:#fff"/><polygon points="21.59 12.7 21.37 12.77 21.16 12.3 21.49 12.2 21.59 12.7" style="fill:#fff"/><path d="M21.27,12.79v0Z" style="fill:#fff"/><path d="M20.44,13.35v0Z" style="fill:#fff"/><polygon points="20.98 13.11 21.38 13.34 21.14 13.78 20.74 13.55 20.98 13.11" style="fill:#fff"/><path d="M21.26,13.81v0Z" style="fill:#fff"/><path d="M22.13,14.3v0Z" style="fill:#fff"/><polygon points="21.84 14.39 21.65 14.47 21.44 14.04 21.65 13.94 21.84 14.39" style="fill:#fff"/><path d="M21.54,14.5v0Z" style="fill:#fff"/><path d="M20.74,15.09v0Z" style="fill:#fff"/><path d="M22.28,15.13a.87.87,0,0,0,.36.38l-.09,0,.92.18-.15.43-.81-.15h0l-.07,0a1.34,1.34,0,0,1-.54-.55Z" style="fill:#fff"/><polygon points="24.48 16.96 24.62 17.48 24.24 17.59 24.07 17.09 24.48 16.96" style="fill:#fff"/><path d="M24.73,18.69v0Z" style="fill:#fff"/><path d="M22.54,18.83a3.65,3.65,0,0,0-1.88,1l-.23-.21a4,4,0,0,1,2-1.12Z" style="fill:#fff"/><polygon points="20.37 21.77 20.76 23.99 20.52 24.03 20.1 21.82 20.37 21.77" style="fill:#fff"/><polygon points="20.76 23.99 20.76 24 20.52 24.04 20.52 24.03 20.76 23.99" style="fill:#fff"/><polygon points="21.14 26.21 21.53 28.43 21.35 28.46 20.93 26.25 21.14 26.21" style="fill:#fff"/><polygon points="21.92 30.64 22.34 32.86 22.16 32.89 21.77 30.67 21.92 30.64" style="fill:#fff"/><polygon points="22.34 32.86 22.34 32.87 22.16 32.9 22.16 32.89 22.34 32.86" style="fill:#fff"/><polygon points="22.76 35.07 23.18 37.28 22.93 37.33 22.55 35.11 22.76 35.07" style="fill:#fff"/><polygon points="23.6 39.49 24.02 41.7 23.7 41.76 23.32 39.54 23.6 39.49" style="fill:#fff"/><path d="M23.86,41.91v0Z" style="fill:#fff"/><polygon points="24.55 39.61 25.22 37.45 25.6 37.56 24.9 39.72 24.55 39.61" style="fill:#fff"/><path d="M25.84,35.27c.2-.73.4-1.47.61-2.2l.42.12c-.2.74-.41,1.47-.62,2.2Z" style="fill:#fff"/><rect x="26.66" y="32.9" width="0.02" height="0.44" transform="translate(-12.36 50.01) rotate(-74.56)" style="fill:#fff"/><polygon points="27.07 30.88 27.68 28.69 28.03 28.79 27.46 30.99 27.07 30.88" style="fill:#fff"/><polygon points="28.27 26.5 28.86 24.31 29.15 24.38 28.59 26.59 28.27 26.5" style="fill:#fff"/><polygon points="28.86 24.31 28.86 24.3 29.15 24.37 29.15 24.38 28.86 24.31" style="fill:#fff"/><path d="M29.44,22.11,29.72,21v0a1.38,1.38,0,0,0-.14-.5,2.33,2.33,0,0,0-.3-.46l.17-.15a2.24,2.24,0,0,1,.35.5,1.59,1.59,0,0,1,.18.61v0h0l-.26,1.07Z" style="fill:#fff"/><path d="M27.39,19a10.65,10.65,0,0,0-2.21-.44v-.05a10.74,10.74,0,0,1,2.24.36Z" style="fill:#fff"/><path d="M23.16,10.95l1.69,2,.33,3.1.23-5.48s-.13-.58-1.53-1.76A1.29,1.29,0,0,0,21.73,9l1,.58Z" style="fill:#fff;stroke:#fff;stroke-linecap:round;stroke-linejoin:round;stroke-width:0.30000001192092896px"/><path d="M28.07,11.4l.67-1.23,1.05-.41a1.29,1.29,0,0,0-2.08-.58c-1.57.93-1.8,1.48-1.8,1.48l-.68,5.44.84-3Z" style="fill:#fff;stroke:#fff;stroke-linecap:round;stroke-linejoin:round;stroke-width:0.30000001192092896px"/></g></g></g></svg>