<svg xmlns="http://www.w3.org/2000/svg" viewBox="0 0 155.75 156.12"><title>cts_logo_final</title><g id="Layer_2" data-name="Layer 2"><g id="Layer_1-2" data-name="Layer 1"><g id="bluejay"><path d="M20.48,77.33a56,56,0,0,0,112,0,55.11,55.11,0,0,0-7.23-27.53s-7.68-6.22-6.31-4.47,1.5,7.5,1.5,7.5S116.19,42.71,112.82,42s-5.87.75-4.62,1.25,2.5,4.38,2.25,8.25-3.62,6.76-3.62,6.76-1,.37-3.12-4.63-8.25-4.37-7.5-3.37,1.38,5.38.75,9.25a8.84,8.84,0,0,0-3.37-5,86.26,86.26,0,0,1-9.25-6.87C80.19,44,67.12,22.11,67.12,22.11l-1.85.34-.82,11.75L57.31,24.7l-1,.39c2.35,4.88,2,17.37.91,17.37s-6.13,2.63-3.51,3.38,3.38,3.75,3.38,3.75.88,2-1.87,3.75c-3.5,2.63-1.38,6.75-1.38,6.75a12.21,12.21,0,0,1,1.25,7.63c-1,7.88-4.5,7.25-4.5,7.25s-3.37.63-6.12-3c-2.12-7-4-6-4-6-3,1.25-1.75,9.75-1.75,9.75s-2.5-1.37-3.12,0c-1.87,5.25.63,13.38.63,13.38a9.37,9.37,0,0,1-2.87-.87c-3.25-1.75-1.5-9-5.12-7.75-5.62,1.75-5.95,10.89-5.95,10.89" style="fill:#fff"/><path d="M20.48,77.33a56,56,0,0,0,112,0,55.11,55.11,0,0,0-7.23-27.53s-7.68-6.22-6.31-4.47,1.5,7.5,1.5,7.5S116.19,42.71,112.82,42s-5.87.75-4.62,1.25,2.5,4.38,2.25,8.25-3.62,6.76-3.62,6.76-1,.37-3.12-4.63-8.25-4.37-7.5-3.37,1.38,5.38.75,9.25a8.84,8.84,0,0,0-3.37-5,86.26,86.26,0,0,1-9.25-6.87C80.19,44,67.12,22.11,67.12,22.11l-1.85.34-.82,11.75L57.31,24.7l-1,.39c2.35,4.88,2,17.37.91,17.37s-6.13,2.63-3.51,3.38,3.38,3.75,3.38,3.75.88,2-1.87,3.75c-3.5,2.63-1.38,6.75-1.38,6.75a12.21,12.21,0,0,1,1.25,7.63c-1,7.88-4.5,7.25-4.5,7.25s-3.37.63-6.12-3c-2.12-7-4-6-4-6-3,1.25-1.75,9.75-1.75,9.75s-2.5-1.37-3.12,0c-1.87,5.25.63,13.38.63,13.38a9.37,9.37,0,0,1-2.87-.87c-3.25-1.75-1.5-9-5.12-7.75-5.62,1.75-5.95,10.89-5.95,10.89" style="fill:none;stroke:#fff;stroke-miterlimit:10;stroke-width:1.75px"/><g id="border"><path d="M125.71,50.12,121.78,60.4l-5-4.37,3.75-1.37s-.87-2.12-9-11.12C118,53.65,108,60.15,108,60.15l5.13-1.75s-.62,7.88-.62,17.5c-7.37-1.62-8.5-9.37-8.5-9.37a3.58,3.58,0,0,0,4.5-.5c-6.5-8.37-4.12-9.87-8.87-14.12C102.15,55.4,97,70.4,97,70.4L64.65,74.77S58.4,78.9,54.51,72.22C56.87,77.16,52.9,83,52.9,83a11.44,11.44,0,0,0,6.75-2.57A7.8,7.8,0,0,1,55.28,86s5.63.13,8.38-1.5c.13,1.88-3.62,4-3.62,4s-7.87,1-9.25-2.62c4.88-.87,6-4.37,6-4.37S48.78,83,46.9,79c3.5-.25,4-2.25,4-2.25A24.76,24.76,0,0,1,40.65,67.9c1.13,5-3,15.38-3,15.38s3.75-.12,5.25-2c.88,4.38-4.37,7.5-4.37,7.5a9.29,9.29,0,0,0,7.5-.25,11.24,11.24,0,0,1-5.25,7.38,31.15,31.15,0,0,0,8.5-.62c-2.5,3.38-7.12,2-7.12,2-6.5,0-7.87-2.62-7.87-2.62a38.77,38.77,0,0,0,5.88-2.25c-9.12-.12-11.62-9.5-11.62-9.5L24.76,98s14.75,41.27,63,34.57C113.28,126.9,147.14,95.84,125.71,50.12Z" style="fill:#4ab27f"/><path d="M24.65,98.58s4.5-9.5,3.5-15.83c3.5,8.82,12.33,14,12.33,14s3.83-5,3.5-8.17c-3.5,3.67-6.5,2.08-6.5,2.08s4.67-6.08,3.67-9.75c2.85,4.33,10.67,1.67,10.67,1.67a9.43,9.43,0,0,1-4.33,5.83c2.17,3.15,9.5,1.33,9.5,1.33s-2.33,6.33-7.17,6c1.83,5.67,13.17.5,13.17.5a12.1,12.1,0,0,0,4.5-11.83c-4.5,5.33-9.83,2.33-9.83,2.33s7-2.33,7.17-9.67C60.15,80.58,54,80.58,54,80.58s7.83-6,8-13a13.59,13.59,0,0,1-8.67,3.17s4.83-9.83,3.33-15.83c4.67,6.83,36.83,38.5,36.83,38.5a8.61,8.61,0,0,0,5-7.5c-6,2.83-8,2-8,2s8.33-5.67,8-10.83c-5.67,3.17-7.5,1.33-7.5,1.33s8-7.67,7.51-14.67c1.49,7.33,13,9.67,13,9.67s-1,1.33-7,2.5c0,0,1.17,7.17,8.5,7.17-3.17,3.17-8,1.83-8,1.83s5.67,9,12.17,6.65a15.37,15.37,0,0,0,1.33-10.15s-3.94,4.61-7,4.17c5-4.33,2.33-11.5,2.33-11.5s-1.5,4.17-5.67,4.33c4.29-2.11-1-19.33-1-19.33s7.5,10,14.5,10c-3,4.17-5,3-5,3s6.34,5.12,10.83,1.33c-1,5.5-5,5.33-5,5.33s6,7.33,10,3c-1.51,25.33-22.42,40.39-22.42,40.39S57.74,158.83,24.65,98.58Z" style="fill:#01924a"/><circle cx="76.88" cy="77.33" r="58" style="fill:none;stroke:#000;stroke-miterlimit:10;stroke-width:2px"/><circle cx="76.88" cy="77.33" r="60" style="fill:none;stroke:#fff;stroke-miterlimit:10;stroke-width:1.75px"/><circle cx="76.88" cy="77.33" r="56" style="fill:none;stroke:#fff;stroke-miterlimit:10;stroke-width:1.75px"/></g><g id="bird"><path id="bird-2" data-name="bird" d="M118.89,111.81s-17.24-17.06-29.74-24c.67-9.17,7.17-15.58,7.17-15.58s11.62-6.62,15.87-7.37c-2-2.5-16-2.87-16-2.87s-1.12-3.75-11.62-11.87a45.65,45.65,0,0,1-17.5-27s-11,11.5,12.13,32.5C67.32,45,65.57,39.13,65.57,39.13a23.26,23.26,0,0,0-6.06-7.75c-.5,10.06.56,12.44,13.12,25.94-9.81-13-15.06-11.87-16.94-11.87,1.88.56,2.88,3.94,2.88,3.94s1.14,4.38,9.42,9.38c-5.67-3.83-9.86,0-9.86,0s6.69,1.17,6.69,13.67c0,15.17-5.33,19.67-5.33,19.67a25,25,0,0,0-8,16.5C50.65,119.25,61.4,129,61.4,129s32.69,11,57.49-17.21" style="fill:#017dc2;stroke:#000;stroke-miterlimit:10"/><g id="beak"><path d="M106.56,62.92s-11.57,6-12.4,6.71l2.17,2.63s11.62-6.62,15.87-7.37"/><path d="M106.79,63.36l-6.29,3.19-3.13,1.62c-1,.55-2.12,1.1-3,1.68l0-.42,2.13,2.66L96.19,72q3.86-2.11,7.82-4c1.32-.63,2.66-1.23,4-1.79a22.59,22.59,0,0,1,4.17-1.36,22.53,22.53,0,0,0-4.12,1.47c-1.33.6-2.65,1.24-3.95,1.9q-3.9,2-7.68,4.22l-.32-.06-2.2-2.59,0-.42c1-.73,2-1.24,3.08-1.84l3.09-1.71,6.2-3.37Z"/><path d="M99,62.15c-.15,2.29-4.4,4.6-4.4,4.6s-.4-5.83.58-6.44" style="fill:none;stroke:#000;stroke-miterlimit:10"/></g><g id="decoration"><path d="M73.15,43.25c1.17,1.5,2.36,3,3.63,4.36s2.34,2.94,3.63,4.29a33.2,33.2,0,0,0,4.11,3.78,17,17,0,0,0,4.78,2.67.5.5,0,0,1-.23,1h0c-1-.14-2-.33-3-.44s-2-.21-3-.16a29.07,29.07,0,0,0-6.05.57,25.26,25.26,0,0,0-5.74,1.94,21.73,21.73,0,0,0-5.38,2.93,19.09,19.09,0,0,1,4.94-3.85,28.25,28.25,0,0,1,6-2A30.07,30.07,0,0,1,83,57.73c1.05,0,2.09.11,3.14.16s2.07.3,3.11.45l-.25,1a18,18,0,0,1-5.08-2.83,34.17,34.17,0,0,1-4.23-3.89A48.57,48.57,0,0,1,76,48.2,51,51,0,0,1,73.15,43.25Z"/><path d="M68.18,48.71a61.92,61.92,0,0,1,5,4.47,18.3,18.3,0,0,1,2.29,2.5A8.38,8.38,0,0,1,77,58.77l-.09,0c-.71-.88-1.44-1.69-2.17-2.51s-1.36-1.73-2.09-2.57c-1.45-1.68-3-3.33-4.52-4.94Z"/><path d="M64.16,56.12,68,58.75a6.58,6.58,0,0,1,2.37,2.32" style="fill:none;stroke:#000;stroke-miterlimit:10"/><path d="M67.7,83.66c-.83,2.06-1.69,4.1-2.59,6.12a50.57,50.57,0,0,1-3,5.91,50.16,50.16,0,0,0,2.07-6.25c.59-2.11,1.13-4.25,1.63-6.37Z"/><path d="M69.16,83.84a2.21,2.21,0,0,1-1.49.61,3.38,3.38,0,0,1-1.54-.3,3.1,3.1,0,0,1-1.82-2.4l.07-.07a8.18,8.18,0,0,0,1,.88,6.54,6.54,0,0,0,1.15.67,4.86,4.86,0,0,0,2.59.5Z"/><path d="M71.11,83.59a10.15,10.15,0,0,0,1.95,1.06,4.71,4.71,0,0,0,1.86.29,8,8,0,0,0,1.92-.46l1-.42a8.85,8.85,0,0,1,1.09-.46,7.27,7.27,0,0,1-.64,1,7.67,7.67,0,0,1-.89.86,4.62,4.62,0,0,1-2.41.95,3.82,3.82,0,0,1-2.54-.78A3.59,3.59,0,0,1,71.11,83.59Z"/><path d="M73.56,85.51s1,7.2.79,9.2c.67-2.12,2.11-7.71,2.12-9.4"/><path d="M74.06,85.44c.17,1.54.31,3.08.43,4.62.06.77.11,1.54.14,2.32a17.38,17.38,0,0,1,0,2.36l-.5-.1c.51-1.51,1-3.06,1.37-4.61.21-.78.41-1.55.58-2.34a15.93,15.93,0,0,0,.4-2.37,16,16,0,0,1-.28,2.4c-.14.79-.29,1.58-.46,2.37-.34,1.58-.7,3.14-1.14,4.7L74,97l.11-2.29a17.09,17.09,0,0,0-.1-2.26c-.07-.76-.17-1.52-.26-2.29-.2-1.52-.43-3-.67-4.56Z"/><path d="M82.32,83,84,82.15c.52-.28,1-.52,1.5-.81s1-.55,1.49-.85a18.46,18.46,0,0,1,1.7-.93l.08.06a9.68,9.68,0,0,1-1.25,1.45A8,8,0,0,1,86,82.21a7.43,7.43,0,0,1-3.68.93Z"/><path d="M83.5,83s1.64,6.26,1.66,9.95a72.35,72.35,0,0,1,1.22-11.08"/><path d="M84,82.86c.38,1.66.7,3.32,1,5a32.43,32.43,0,0,1,.47,5.08H84.9q.2-2.79.55-5.56c.24-1.85.52-3.69.93-5.5-.33,1.83-.52,3.68-.67,5.53s-.24,3.71-.29,5.56H84.9a31.88,31.88,0,0,0-.7-4.95c-.34-1.64-.74-3.27-1.19-4.88Z"/><path d="M70.58,106.32c-.88,0-1.39-.95-1.39-2.61s.27-4.52.58-7.36a17.77,17.77,0,0,0,.88,4.77.5.5,0,0,0,.32.29,11.71,11.71,0,0,0,3.18.47c1.61,0,3.25-.42,3.29-1.36a46.08,46.08,0,0,1,1.22-8c-.22,3.7-.22,7.79-.22,8.07v4.5a.5.5,0,0,0,0,.11.59.59,0,0,1-.16.43c-.21.24-.8.64-2.47.64H70.58Z"/><path d="M69.88,100.4a7.3,7.3,0,0,0,.31.92,1,1,0,0,0,.65.57,12.07,12.07,0,0,0,3.32.49c1.79,0,3.73-.48,3.79-1.84v4.58a1,1,0,0,0,0,.15c0,.11-.43.54-2.14.54H70.58c-.56,0-.89-.79-.89-2.11,0-.79.07-2,.19-3.32M79.94,87l-.07.16.07-.16Zm-.07.16a44.2,44.2,0,0,0-2.93,13.3c0,.43-1.12.89-2.79.89a11.13,11.13,0,0,1-3-.45c-1.21-2.88-1-11.41-1-11.41s-1.37,10.73-1.37,14.19c0,2.85,1.39,3.11,1.89,3.11h5.23c3.5,0,3.13-1.69,3.13-1.69v-4.5s0-11,.93-13.42Z"/><path d="M62.31,87.68S58.13,94.6,58,98.05c1.45,2.12,5.46,1.88,5.46,1.88s3.4-10.26,6.15-13.61c0,0-4.63,11.81-5.13,16.87s-11.57-1.09-11.57-1.09,2.34-5.4,4.13-7.39" style="stroke:#000;stroke-miterlimit:10"/><path d="M84.63,105.56c-4-.06-5.69-13.31-5.69-13.31s-.62-1,.75-4.62c-.75,4.38,3.29,11,4.62,12.12s3.58-1.08,3.75-1.33S87.53,85.13,90,83.36c0,0-2.7,9.7,1.87,15.26a5.06,5.06,0,0,1,.69,3.38S88.69,105.63,84.63,105.56Z"/><path d="M67.1,127.11a2.3,2.3,0,0,1-1.16-.29c-1.35-.76-3-4-4.27-7.42,1.74,2.33,3.71,4.19,4.46,4.28h.14c1,0,3.26-1.41,4.1-2.8a1.83,1.83,0,0,0,.2-1.87,29.72,29.72,0,0,1-1.81-7.72c.82,3.41,2.18,7.77,3.54,9.46a2.88,2.88,0,0,1,.84,2.11,1.28,1.28,0,0,1-.52.83l-.06,0-.05.06S69.59,127.11,67.1,127.11Z"/><path d="M71.23,120a7.29,7.29,0,0,0,.69,1.06,2.52,2.52,0,0,1,.74,1.7.81.81,0,0,1-.29.5h0l-.14.08-.1.12c-.76.87-3.15,3.14-5,3.14a1.82,1.82,0,0,1-.91-.23c-.8-.45-1.77-2-2.75-4.1a5.83,5.83,0,0,0,2.64,1.9h.2c1.28,0,3.65-1.59,4.53-3a2.93,2.93,0,0,0,.43-1.14m-2.72-13.07c-1.12,2.88.81,10.75,1.63,12.31s-2.76,3.94-3.86,3.94h-.08c-1-.12-5.62-5.11-6.87-9,.5,1.65,3.62,11.53,6.37,13.08a2.82,2.82,0,0,0,1.4.36c2.75,0,5.78-3.48,5.78-3.48s1.88-1.12-.19-3.69-4.31-12.25-4.19-13.5Zm-9.25,7,.07.23-.07-.23Z"/><path d="M81.4,127.24a2.43,2.43,0,0,1-1.39-.41c-3.24-2.67-5.5-7.56-6.8-11.09,2.21,3.44,5.35,7.85,6.27,8h.19c1,0,2.95-1.23,3.91-2.49a2.59,2.59,0,0,0,.63-2.23l0-.06,0-.06c-.65-1.1-1.44-4.85-1.81-8.17,1.06,3.65,2.69,8.37,4.19,9.86a3.27,3.27,0,0,1,1.23,2.16.89.89,0,0,1-.22.62C87.49,123.46,84.17,127.24,81.4,127.24Z"/><path d="M84.06,117.24A12.62,12.62,0,0,0,86.19,121c1.05,1.05,1.19,1.78,1,2l-.08.09c-.88,1-3.63,3.65-5.74,3.65a1.94,1.94,0,0,1-1.07-.3,19.76,19.76,0,0,1-4.5-6c2.63,3.62,3.19,3.71,3.57,3.78l.27,0c1.18,0,3.23-1.28,4.31-2.68a3,3,0,0,0,.72-2.67l0-.13-.07-.12a6.74,6.74,0,0,1-.54-1.42m-2.33-11.07c-.42,3.08.92,11.17,2,13,.48,1.77-2.93,4.09-4.06,4.09h-.11c-1-.17-7.75-10.17-8.17-11.58,0,0,2.67,10.92,8.33,15.58a2.94,2.94,0,0,0,1.67.49c3,0,6.5-4,6.5-4s1.33-1.17-1-3.5-5.08-13.08-5.17-14.08Z"/><path d="M94.12,123.73a1.73,1.73,0,0,1-1-.31,24.27,24.27,0,0,1-7.37-10.17,35.23,35.23,0,0,0,6.3,6.37.85.85,0,0,0,.34.07c1.11,0,4.26-2,5-3.62a1.45,1.45,0,0,0-.17-1.65,24.72,24.72,0,0,1-2.83-5.08A18.15,18.15,0,0,0,98.16,114c3.63,3,2.54,4.85,2.49,4.92C99.62,120.21,96.38,123.73,94.12,123.73Z"/><path d="M97.65,114.18l.2.17c2.57,2.15,2.69,3.73,2.41,4.24-1.42,1.81-4.31,4.64-6.13,4.64a1.25,1.25,0,0,1-.7-.2,25.5,25.5,0,0,1-5.67-6.66,25.83,25.83,0,0,0,4.08,3.71,1.33,1.33,0,0,0,.54.11c1.28,0,4.62-2.07,5.44-3.92a2,2,0,0,0-.17-2.09m-5.33-10.93c-.42,3.08,3.17,10,4.5,11.5s-3.35,4.44-4.45,4.44l-.14,0c-.75-.33-7-6.25-7.83-9.17,0,0,.5,7.17,8.42,13.83a2.24,2.24,0,0,0,1.31.4c3,0,6.94-5.07,6.94-5.07s1.5-2.17-2.58-5.58-6.08-9.5-6.17-10.33Z"/><path d="M65.89,118.63l-.77-6.13h0a4.93,4.93,0,0,0,.77-3,5.14,5.14,0,0,1-2.42,2.81,6.05,6.05,0,0,1-3.33.38,3.56,3.56,0,0,0,2.89,1h0Z" style="stroke:#000;stroke-miterlimit:10;stroke-width:0.5px"/><path d="M79.24,112.53h0a7.55,7.55,0,0,0,1.23-1.68A5.8,5.8,0,0,1,74,112a3.11,3.11,0,0,0,2.13,1.66l3.64,5.42Z" style="stroke:#000;stroke-miterlimit:10;stroke-width:0.5px"/><path d="M91.39,113.56c-.65-.86-1.73-2.1-2.43-2.88l.67-.22-1.07-.14a5.2,5.2,0,0,1-1-.24,12,12,0,0,0,4.3-1.11l-.36.34-.08.07v.11C91.4,110.28,91.34,112.07,91.39,113.56Z"/><path d="M91.18,109.55c0,.69-.07,2-.05,3.27q-.67-.84-1.77-2.07l1-.44-1.29-.17a11.84,11.84,0,0,0,2.11-.58m2-1.78c-2.13,2-6,2.1-6.68,2.1H86.4a8,8,0,0,0,2.12.69h0s3.09,3.44,3.18,3.94a48.51,48.51,0,0,1,0-5,9.29,9.29,0,0,0,1.49-1.72Z"/><path d="M112.23,118.17s-1.6-3.1-7.8-5.3S98,105.4,98,105.4s-.71-6.13-2.64-8.55-3.4-7.07-3.4-7.07l-2.78-1.94s1.47,5.38,3.4,8.17,2.64,9.88,2.64,9.88a10.3,10.3,0,0,0,6.46,8.62c6.21,2.54,7.8,6.12,7.8,6.12Z" style="stroke:#000;stroke-miterlimit:10;stroke-width:0.5px"/><path d="M118.56,111.23,114.12,116s-1.6-2.79-7.8-4.77-6.46-6.73-6.46-6.73-.71-5.53-2.64-7.7a23.51,23.51,0,0,1-3.4-6.37" style="stroke:#000;stroke-miterlimit:10;stroke-width:0.5px"/><path d="M59.58,104.86s-6.76,5.31-1.18,13.77,5.52,11.07,5.52,11.07l-7.72-11.07s-4.65-5.21-2-15.85" style="stroke:#000;stroke-miterlimit:10;stroke-width:0.10000000149011612px"/></g><path d="M81.75,78.91s-4.4,2.34-6.54,2.65-5.87-1.33-5.87-1.33a4.45,4.45,0,0,1-2.4-2.67,13.94,13.94,0,0,0-1.18-3.12,5.28,5.28,0,0,1,1.18-5.58,19.26,19.26,0,0,0,3.61-6.33s2-3.65,9.51-1.07c0,0-13.42,2.2-12.79,12C67.63,81.56,81.75,78.91,81.75,78.91Z" style="stroke:#000;stroke-miterlimit:10;stroke-width:0.10000000149011612px;opacity:0.7000000000000001"/><ellipse cx="79.62" cy="70.09" rx="12.94" ry="8.71" transform="translate(-16.93 26.16) rotate(-16.89)" style="fill:#fff;stroke:#000;stroke-linejoin:bevel"/><path d="M82.73,66.33c-4.53,0-8.32,6.1-8.41,6.24,0,0,.09-.15-.75,1a3.61,3.61,0,0,1,3.61-.81s3.47,1,6.09-.17,5.86-5,5.86-5S87.32,66.33,82.73,66.33Z" style="fill:#5a5a5b"/><path d="M77,71.63s2.63-4.29,5.78-4.29,4.41.86,4.41.86a16,16,0,0,1-4,3.43,6.93,6.93,0,0,1-4.18.11l-1.74-.47" style="fill:#fff"/><circle cx="82.43" cy="69.57" r="1.07" style="stroke:#000;stroke-miterlimit:10;stroke-width:0.10000000149011612px;opacity:0.7000000000000001"/><g id="mohawk"><path d="M74.46,59.42s-7.07-5.79-9-7.79a8.9,8.9,0,0,0-3.72-2.44,16.69,16.69,0,0,0,2.47,6.93,15.24,15.24,0,0,1-5.59-6.75s-1-3.37-2.87-3.94c1.88,0,7.13-1.12,16.94,11.88l1.83,2.11-1.83-2.11C60.07,43.81,59,41.44,59.51,31.38a23.26,23.26,0,0,1,6.06,7.75s2.09,7.79,15.33,19.14c-9.42-7.6-16.33-19.85-18.17-20.1-1.42,2.08-.64,6.54-.64,6.54" style="stroke:#000;stroke-miterlimit:10"/><path d="M68,58.72c-5.67-3.83-9.86,0-9.86,0s6.69,1.17,6.69,13.67c0,0,.66-9.94-2.75-13.79C66.75,57.31,68,58.72,68,58.72Z" style="stroke:#000;stroke-miterlimit:10"/><path d="M84.6,50.13a45.65,45.65,0,0,1-17.5-27s-11,11.5,12.13,32.5l2.91,2.59S71.76,46.44,70.63,44.06c-2.61-5.5-1.75-9.37-1.75-9.37a78.78,78.78,0,0,1,7,7C77.51,43.88,82.75,49.19,84.6,50.13Z" style="stroke:#000;stroke-miterlimit:10"/></g></g><g id="text"><text transform="matrix(-0.2, -0.98, 0.98, -0.2, 16.23, 95.04)" style="font-size:16px;font-family:Capriola-Regular, Capriola">C</text><text transform="translate(14.14 85.05) rotate(-91.45)" style="font-size:16px;font-family:Capriola-Regular, Capriola">A</text><text transform="translate(13.91 73.49) rotate(-82.26)" style="font-size:16px;font-family:Capriola-Regular, Capriola">T</text><text transform="translate(15.03 64.65) rotate(-73.52)" style="font-size:16px;font-family:Capriola-Regular, Capriola">C</text><text transform="translate(17.75 54.87) rotate(-63.05)" style="font-size:16px;font-family:Capriola-Regular, Capriola">H</text><text transform="translate(23.82 43.49) rotate(-54.93)" style="font-size:16px;font-family:Capriola-Regular, Capriola">I</text><text transform="translate(26.44 39.24) rotate(-46.84)" style="font-size:16px;font-family:Capriola-Regular, Capriola">N</text><text transform="translate(35.19 29.92) rotate(-35.89)" style="font-size:16px;font-family:Capriola-Regular, Capriola">G</text><text transform="translate(44.75 23.28) rotate(-28.92)" style="font-size:16px;font-family:Capriola-Regular, Capriola"> </text><text transform="matrix(0.92, -0.39, 0.39, 0.92, 47.94, 21.35)" style="font-size:16px;font-family:Capriola-Regular, Capriola">T</text><text transform="matrix(0.97, -0.23, 0.23, 0.97, 56.03, 17.67)" style="font-size:16px;font-family:Capriola-Regular, Capriola">H</text><text transform="translate(68.49 14.83) rotate(-2.77)" style="font-size:16px;font-family:Capriola-Regular, Capriola">E</text><text transform="translate(78.81 14.5) rotate(3.51)" style="font-size:16px;font-family:Capriola-Regular, Capriola"> </text><text transform="translate(82.56 14.58) rotate(9.32)" style="font-size:16px;font-family:Capriola-Regular, Capriola">S</text><text transform="matrix(0.95, 0.31, -0.31, 0.95, 91.39, 15.95)" style="font-size:16px;font-family:Capriola-Regular, Capriola">P</text><text transform="matrix(0.91, 0.42, -0.42, 0.91, 101.11, 19.27)" style="font-size:16px;font-family:Capriola-Regular, Capriola">I</text><text transform="translate(105.73 21.16) rotate(32.62)" style="font-size:16px;font-family:Capriola-Regular, Capriola">R</text><text transform="translate(115.41 27.59) rotate(40.15)" style="font-size:16px;font-family:Capriola-Regular, Capriola">I</text><text transform="matrix(0.69, 0.73, -0.73, 0.69, 119.34, 30.74)" style="font-size:16px;font-family:Capriola-Regular, Capriola">T</text><text transform="translate(39.23 142) rotate(25.6)" style="font-size:16px;font-family:Capriola-Regular, Capriola">Y</text><text transform="translate(49.92 147.14) rotate(15.54)" style="font-size:16px;font-family:Capriola-Regular, Capriola">O</text><text transform="translate(64.13 150.89) rotate(4.96)" style="font-size:16px;font-family:Capriola-Regular, Capriola">U</text><text transform="translate(77.1 151.83) rotate(-3.74)" style="font-size:16px;font-family:Capriola-Regular, Capriola">T</text><text transform="matrix(0.97, -0.23, 0.23, 0.97, 87.59, 151.21)" style="font-size:16px;font-family:Capriola-Regular, Capriola">H</text><text transform="translate(101.31 147.65) rotate(-20.42)" style="font-size:16px;font-family:Capriola-Regular, Capriola"> </text><text transform="matrix(0.9, -0.44, 0.44, 0.9, 105.75, 146.1)" style="font-size:16px;font-family:Capriola-Regular, Capriola">S</text><text transform="matrix(0.81, -0.58, 0.58, 0.81, 115.27, 141.52)" style="font-size:16px;font-family:Capriola-Regular, Capriola">O</text><text transform="matrix(0.7, -0.71, 0.71, 0.7, 127.03, 132.86)" style="font-size:16px;font-family:Capriola-Regular, Capriola">C</text><text transform="translate(134.93 124.55) rotate(-52.05)" style="font-size:16px;font-family:Capriola-Regular, Capriola">I</text><text transform="matrix(0.52, -0.85, 0.85, 0.52, 138.8, 119.77)" style="font-size:16px;font-family:Capriola-Regular, Capriola">E</text><text transform="matrix(0.39, -0.92, 0.92, 0.39, 144.77, 109.71)" style="font-size:16px;font-family:Capriola-Regular, Capriola">T</text><text transform="translate(148.79 100.15) rotate(-75.39)" style="font-size:16px;font-family:Capriola-Regular, Capriola">Y</text></g></g></g></g></svg>