<svg xmlns="http://www.w3.org/2000/svg" viewBox="0 0 350 350"><defs><style>.cls-1,.cls-2{fill:#fff;}.cls-1,.cls-10,.cls-6,.cls-8,.cls-9{stroke:#000;}.cls-1,.cls-10,.cls-6,.cls-8{stroke-linecap:round;stroke-linejoin:round;}.cls-1{stroke-width:3px;stroke-dasharray:12;}.cls-3{font-size:30px;}.cls-3,.cls-4{font-family:Capriola-Regular, Capriola;}.cls-4,.cls-5{font-size:18px;}.cls-5{font-family:CabinSketch-Regular, Cabin Sketch;}.cls-6,.cls-8,.cls-9{fill:none;stroke-width:5px;}.cls-6,.cls-7,.cls-9{opacity:0.8;}.cls-9{stroke-miterlimit:10;}.cls-10{stroke-width:4px;}</style></defs><title>Asset 1</title><g id="Layer_2" data-name="Layer 2"><g id="Layer_1-2" data-name="Layer 1"><path class="cls-1" d="M80.5,333.5"/><path class="cls-2" d="M175,348C79.61,348,2,270.39,2,175S79.61,2,175,2,348,79.61,348,175,270.39,348,175,348Z"/><path d="M175,4A171,171,0,0,1,295.92,295.92,171,171,0,1,1,54.08,54.08,169.88,169.88,0,0,1,175,4m0-4A175,175,0,1,0,350,175,175,175,0,0,0,175,0Z"/><circle class="cls-2" cx="175.5" cy="175.5" r="157.5"/><path d="M151.89,19.78l-.3,0L150.2,20h-.05l-.13,0h-.88l-.11,0H149l-.12,0h-.06l-.18,0h0q-3.4.59-6.75,1.32h0l-.23.05h-.45l-.07,0H141l-1.23.28a2,2,0,1,0,.9,3.9c3.78-.88,7.64-1.62,11.48-2.2a2,2,0,0,0-.3-4Zm-23.06,5.34a2,2,0,0,0-.59.09q-4.55,1.43-9,3.12h0l-.17.06h0l-.05,0h0l-.11,0h0l0,0h0l0,0h0l-.05,0h0l0,0h-.12l0,0h-.14l-.06,0h-.1l-1.3.51A2,2,0,1,0,118.42,33c3.6-1.44,7.31-2.77,11-3.93a2,2,0,0,0-.6-3.91Zm-22,8.81a2,2,0,0,0-.88.21l-.34.17h0l-.16.08h0l-.08,0h0l-.07,0h0l-.07,0h0l-.07,0h0l-.07,0h0l-.07,0h0l-.06,0h0l-.07,0h0l0,0h0l-.06,0,0,0,0,0,0,0,0,0,0,0,0,0,0,0,0,0,0,0-.06,0,0,0,0,0,0,0-.06,0,0,0,0,0-.06,0,0,0,0,0,0,0-.05,0,0,0,0,0,0,0-.05,0,0,0-.07,0h0l0,0h0l-.07,0h0l0,0h0l-.07,0h0l0,0,0,0-.06,0,0,0-.06,0,0,0,0,0,0,0-.06,0,0,0,0,0,0,0-.06,0,0,0,0,0-.06,0,0,0,0,0,0,0,0,0,0,0,0,0,0,0,0,0,0,0-.06,0,0,0,0,0,0,0-.06,0,0,0,0,0h0l-.06,0h0l-.06,0h0l-.06,0h0l-.07,0h0l-.06,0h0l-.07,0h0l-.07,0h0l-.07,0h0l-.15.08h0l-.08,0h0l-.08,0h0l-.08,0h0l-.16.09h0q-2.6,1.41-5.13,2.91a2,2,0,1,0,2,3.44c3.34-2,6.8-3.85,10.28-5.56a2,2,0,0,0-.89-3.79ZM86.48,46a2,2,0,0,0-1.14.36q-1.41,1-2.79,2h0l-.13.1h0l-.07,0,0,0,0,0,0,0-.05,0,0,0,0,0-.05,0,0,0,0,0,0,0-.06,0,0,0-.06,0h0l-.06,0h0l-.06,0h0l-.06,0h0l-.07.05h0l-.14.11h0q-2.85,2.13-5.61,4.39a2,2,0,1,0,2.53,3.09c3-2.46,6.14-4.84,9.32-7.06A2,2,0,0,0,86.48,46ZM68.17,61a2,2,0,0,0-1.38.55q-2.1,2-4.13,4.09h0l-.13.13h0l-.19.2h0l-.13.13h0l-.19.2h0l-.13.13h0l-.13.13h0l-.06.07h0l-.13.13h0l-.13.13h0l-.06.07h0l-.13.13h0l-.12.13h0l-.06.07h0l-.06.07h0l-.06.07h0l-.12.13h0l-.19.2h0l-.12.13h0l-.12.13h0l-.19.2h0l-.13.14h0l-.32.34h0l-1.26,1.39a2,2,0,1,0,3,2.68c2.6-2.89,5.34-5.71,8.15-8.39A2,2,0,0,0,68.17,61ZM52.33,78.57a2,2,0,0,0-1.58.78Q49.86,80.5,49,81.67h0l-.11.15h0l-.05.07h0l-.05.07h0l-.05.07h0l-.1.14v0l0,.06v0l0,.05,0,0,0,.06,0,0,0,0,0,0,0,.05,0,0,0,0,0,0,0,0,0,0,0,.05,0,0,0,0,0,0,0,0,0,0,0,0,0,.06,0,0,0,0,0,0,0,.07v0l-.09.13v0l-.06.08h0l0,0h0l-.06.09h0l-.1.14h0l-1.3,1.83h0l-.17.24h0l-.1.14h0l-.09.14h0l-.05.08v0l0,0v0l0,.07,0,0,0,0,0,0,0,0,0,0,0,0,0,0,0,0,0,0,0,0,0,0,0,0,0,.06v0l0,0v0l0,.06v0l0,.06h0l0,.07h0l-.1.15h0l-1.2,1.79a2,2,0,1,0,3.34,2.2c2.13-3.24,4.41-6.45,6.79-9.52a2,2,0,0,0-1.58-3.22Zm-13,19.78a2,2,0,0,0-1.75,1q-2,3.6-3.8,7.31h0l-.57,1.18h0q-.52,1.1-1,2.21a2,2,0,1,0,3.64,1.66c1.61-3.53,3.38-7,5.26-10.44a2,2,0,0,0-1.75-3Zm-9.84,21.53a2,2,0,0,0-1.87,1.3q-1.18,3.21-2.22,6.49h0l0,.06h0l0,.11h0l0,0h0l0,.05h0l0,.05h0v0h0v0h0l0,.05h0v.31l0,.11h0v0h0v0h0l0,.08h0v0h0v0h0l0,.13h0v0h0q-.54,1.75-1,3.52a2,2,0,1,0,3.85,1.09c1.05-3.74,2.27-7.48,3.61-11.12a2,2,0,0,0-1.88-2.69Zm-6.43,22.78a2,2,0,0,0-2,1.6q-.29,1.43-.55,2.87h0v.06h0l0,.11v.36h0v0h0v0h0q-.74,4.14-1.25,8.36a2,2,0,0,0,1.74,2.23l.25,0a2,2,0,0,0,2-1.76c.47-3.86,1.1-7.74,1.87-11.54a2,2,0,0,0-2-2.39Zm-2.89,23.5a2,2,0,0,0-2,1.9c0,.26,0,.52,0,.78h0v.05h0v.27q-.09,2.28-.11,4.57h0v.05h0v.05h0v.05h0q0,.17,0,.34h0v1.86h0v.41h0v.14h0v.06h0v.2h0v.06h0v.28h0v.06h0v.27h0v.14h0v.42h0v.24h0c0,.51,0,1,0,1.53a2,2,0,0,0,2,1.93h.06A2,2,0,0,0,22.06,180c0-1.48-.06-3-.06-4.46,0-2.41.06-4.84.17-7.24a2,2,0,0,0-1.91-2.09Zm.68,23.67h-.21A2,2,0,0,0,18.86,192q.63,6,1.7,11.89a2,2,0,0,0,3.93-.72c-.7-3.81-1.25-7.71-1.66-11.57a2,2,0,0,0-2-1.79Zm4.24,23.29a2,2,0,0,0-1.94,2.5q.3,1.15.62,2.29h0V218h0l0,.05h0l0,.06h0v0h0v0h0v.05h0v.53h0l0,.07v.1h0l0,.12h0v0h0l0,.13h0v0h0v0h0l0,.13h0l.12.4h0q.44,1.51.91,3h0l.06.18h0l.06.17h0v0h0l0,.13h0v0h0v0h0l0,.08h0v0h0v0h0l0,.12h0v0h0v0h0l0,.08h0v.09h0l0,.11v.12l0,.06v.11l0,.07h0V225l0,.05v.17l0,.05v.3l0,0v.18l0,0v.12l0,.08h0v.1l0,.1v.12l0,0v.35l0,.05v.1h0l0,.08h0v.13h0a2,2,0,0,0,3.78-1.31c-1.27-3.67-2.42-7.43-3.4-11.18a2,2,0,0,0-1.93-1.49Zm7.75,22.36A2,2,0,0,0,31,238.28l0,.06h0l0,.05h0l0,.09v0l0,0v0l0,.08v0l.06.14v0l0,.08v0l0,0v0l0,.07v0l0,0v0l0,.07v0l0,0,0,0,0,0v0l0,.06,0,0,0,0v0l0,.07v0l0,0v0l0,.06,0,0,0,0,0,.05,0,0v0l0,0,0,0,0,0,0,0,0,.06,0,0,0,0,0,0,0,.06v0l0,0,0,0,0,0v0l0,.06v0l0,0v0l0,.07v0l0,0v0l0,.07v0l0,0,0,0,0,.07v0l0,.09h0l0,0v0l0,.08v0l0,0v0l0,.08v0l.07.14v0l0,.09h0l0,0v0l0,.08v0l0,0h0l0,.09v0l.07.15h0l.07.15h0l0,.1h0l.07.16h0l.07.16h0l.08.16h0l.13.27h0l.08.16h0l.08.16h0l.21.43h0c.38.79.77,1.57,1.16,2.35h0l.08.15h0l.08.15h0l0,.09h0l0,0h0l0,.09v0l.07.14v0l0,.08v0l0,0v0l0,.07v0l0,0,0,0,0,.06,0,0,0,0,0,.06,0,0,0,0,0,0,0,.06,0,0,0,0,0,0,0,.05v0l0,.07v0l0,.05v0l0,.07v0l0,.06h0l0,.07v0l.08.15h0l.08.16h0l.09.16a2,2,0,0,0,3.54-1.87c-1.82-3.43-3.52-7-5.07-10.53a2,2,0,0,0-1.83-1.2Zm11.08,20.92a2,2,0,0,0-1.69,3.06l0,0,0,0,0,0,0,0,0,.05,0,0,0,0,0,0,0,0,0,0,0,0,0,.06,0,0,0,0,0,0,0,.06,0,0,0,0,0,0,0,.05,0,0,0,.06v0l0,.05v0l0,.06v0l0,.05v0l0,.06v0l0,.06v0l0,.06v0l0,.07v0l0,.06h0l0,.07v0l0,.06h0l0,.07h0l0,.07h0l0,.06v0l0,.07h0l0,.06h0l0,.07h0l.09.14h0l0,.07h0l0,.06h0l0,.07h0l0,.07h0l0,.07h0l0,.07h0l0,.07h0l0,.07h0l0,.07h0l0,.07h0l0,.07h0l0,.07h0l0,.07h0l0,.07h0l0,.07h0l0,.07h0l0,.07h0l0,.07h0l0,.07h0l0,.07h0l0,.06h0l0,.07h0l.09.14h0l0,.07h0l0,.06v0l0,.06v0l0,.06h0l0,.06v0l0,.06v0l0,.05,0,0,0,.06,0,0,0,0v0l0,.06,0,0,0,0,0,0,0,0,0,0,0,.06,0,0,0,0,0,0,0,.06,0,0,0,0,0,0,0,0,0,0,0,0,0,0,0,0,0,0,0,.05,0,0,0,0,0,0,0,0,0,0,0,0,0,.06,0,0,0,0,0,0,0,.06,0,0,.09.13v0l.05.08h0l0,0v0l.05.08h0l.1.14h0l.1.14h0l.27.38h0q1,1.36,2,2.7A2,2,0,0,0,52.23,267c-2.32-3.12-4.54-6.36-6.61-9.64a2,2,0,0,0-1.69-.93Zm14.12,19a2,2,0,0,0-1.51,3.31q3.94,4.53,8.2,8.75a2,2,0,1,0,2.81-2.84c-2.76-2.73-5.45-5.6-8-8.53a2,2,0,0,0-1.51-.69Zm16.83,16.65a2,2,0,0,0-1.3,3.52l1.19,1h0l.12.1,0,0,.06,0,0,0,0,0,0,0,0,0,0,0,0,0,.05,0,0,0,0,0,0,0,.06,0,0,0,0,0,0,0,.06,0,0,0,.06,0h0l.05,0h0l.06,0h0l.05,0h0l.06.05h0l.13.11h0l.07.05h0l.07.05h0l.07.06h0l.14.11h0l.14.12h0q2.48,2,5,3.91h0l.15.11h0l.07.05h0l.15.11h0l.15.11h0l.15.11h0l.07.05h0l.14.11h0l.15.11h0l.07.05h0l.14.11h0l.14.1h0a2,2,0,0,0,2.35-3.24c-3.14-2.28-6.23-4.71-9.19-7.23a2,2,0,0,0-1.29-.48ZM94,306a2,2,0,0,0-1.05,3.7q2.39,1.47,4.83,2.86h0l.08,0h0l.08,0h0l.07,0h0l.07,0h0l.07,0h0l.07,0h0l.06,0h0l.07,0h0l.06,0h0l.07,0h0l.06,0h0l0,0,0,0,.06,0,0,0,0,0,0,0,.06,0,0,0,0,0,.06,0,0,0,0,0h0l.07,0h0l0,0h0l.09.05h0l.08,0h0l0,0h0l.09.05h0l.15.08h0l.15.08h0q1.67.91,3.37,1.79a2,2,0,0,0,1.83-3.56c-3.45-1.78-6.87-3.71-10.18-5.75a2,2,0,0,0-1-.3Zm21,10.85a2,2,0,0,0-.78,3.84h0l0,0h0l.16.07h0l.05,0h0l.11,0h0l.05,0h0l.16.07h0l.16.07h0l.22.09h0l.22.09h0q2.44,1,4.92,1.93h0l.39.15h0l.05,0h0l.11,0h0l0,0h0l.11,0h0l0,0h0l0,0h0l.05,0h0l0,0h.12l0,0h.35l0,0h.13l.08,0h.1l.13,0h.05l.17.06h0q1.44.51,2.89,1a2,2,0,1,0,1.27-3.79c-3.68-1.23-7.36-2.62-10.94-4.13a2,2,0,0,0-.78-.16Zm22.45,7.51a2,2,0,0,0-.49,3.94q5.79,1.45,11.75,2.48l.33,0a2,2,0,0,0,.33-4c-3.83-.65-7.68-1.47-11.44-2.41a2,2,0,0,0-.49-.06Zm23.33,4a2,2,0,0,0-.19,4c4,.37,8,.59,12,.67h0a2,2,0,0,0,0-4c-3.89-.07-7.82-.29-11.68-.65Zm35.47-.7-.27,0c-3.84.51-7.76.89-11.64,1.11a2,2,0,0,0,.11,4h.11q6-.35,12-1.14a2,2,0,0,0-.27-4Zm23.15-4.92a2,2,0,0,0-.57.08c-3.72,1.1-7.54,2.06-11.33,2.87a2,2,0,0,0,.82,3.91l2-.43h.46l.11,0H211l.18,0h0q4.28-1,8.47-2.21h0l.12,0H220a2,2,0,0,0-.57-3.92Zm22.13-8.4a2,2,0,0,0-.85.19c-3.51,1.65-7.14,3.19-10.76,4.57a2,2,0,0,0,1.41,3.74l2.3-.89h0l.05,0h0l.11,0h0l0,0h0l0,0h0l.05,0h0l0,0h.12l0,0h.14l.07,0h.05l0,0h0l.17-.07h0q2.5-1,5-2.11h0l0,0h0l.12-.05h0l0,0h0l.11,0h.15l0,0h0l0,0h0l0,0h0l0,0h0l0,0h0l0,0h0l.16-.07h0l1.81-.84a2,2,0,0,0-.86-3.81Zm20.59-11.68a2,2,0,0,0-1.11.34c-3.22,2.17-6.57,4.24-9.94,6.15a2,2,0,1,0,2,3.48l.24-.14h0l.16-.09h0l.16-.09h0l.08,0h0l.07,0h0l.07,0h0l.14-.08h0l.07,0h0l.06,0h0l.07,0h0l0,0,0,0,.06,0,0,0,0,0,0,0,0,0,0,0,.06,0,0,0,0,0,0,0,.05,0,0,0,0,0,.07,0h0l0,0h0l.08,0h0l.14-.08h0l.14-.09h0l.1-.06h0l.15-.09h0q3.07-1.82,6-3.77h0l.14-.09h0l.09-.06h0l0,0h0l.08,0,0,0,0,0,.05,0,0,0,0,0,0,0,.05,0,0,0,0,0,0,0,0,0,0,0,.06,0h0l.06,0h0l.07,0h0l.07,0h0l.07,0h0l.31-.21a2,2,0,0,0-1.12-3.66Zm18.59-14.67a2,2,0,0,0-1.35.53c-2.86,2.63-5.85,5.18-8.9,7.59a2,2,0,0,0,2.47,3.15q1.13-.89,2.24-1.8h0l.13-.11h0l.09-.07h0l0,0h0l.08-.07h0l.13-.1h0l.08-.07h0l0,0h0l.08-.06h0l.13-.11h0l.13-.11h0l.08-.06h0l.13-.11h0l.13-.11h0l.08-.07h0l0,0h0l.09-.07h0L277,296h0l.22-.19h0l.13-.11h0q2.45-2.08,4.81-4.25a2,2,0,0,0-1.36-3.47Zm16.16-17.3a2,2,0,0,0-1.56.75c-2.43,3-5,6-7.65,8.84a2,2,0,0,0,2.92,2.73h0l.06-.06h0l.06-.06h0l.05-.06h0l.06-.06h0l.06-.06h0l.06-.06h0l.12-.13h0l.06-.06h0l.06-.06h0l.06-.07h0l.12-.13h0l.12-.14h0l.06-.07h0l.12-.13h0l.12-.13h0l.19-.21h0l.12-.14h0l.19-.21h0l.12-.14h0l.12-.13h0l.06-.07h0l.06-.07h0l.06-.07h0l.12-.13h0l.06-.07h0l.06-.07h0l.06-.06h0l.12-.13h0l.06-.07h0l.06-.06h0l.06-.06h0l.05-.06h0l.06-.06h0l.05-.06h0l.05-.06h0l.05-.06h0l0-.05h0l.05-.06v0l.05-.06h0l.05-.06v0l.05-.06h0l0,0,0,0,0-.06,0,0,0,0h0l0-.06,0,0,0-.05,0,0,0,0,0,0,0-.05,0,0,0,0,0,0,0-.05,0,0,0,0,0,0,0,0,0,0,0,0,0,0,0,0,0,0,0,0,0,0,0,0,0-.05,0,0,0,0,0,0,0-.06,0,0,0,0,0,0,0,0,0,0,.05-.06,0,0,0,0h0l.06-.07h0l.11-.12h0l.11-.13h0l.07-.09h0l.11-.13h0c.88-1,1.74-2.09,2.6-3.16a2,2,0,0,0-1.56-3.24Zm13.36-19.55a2,2,0,0,0-1.73,1c-1.94,3.36-4,6.69-6.22,9.9a2,2,0,0,0,3.3,2.26q2.31-3.38,4.45-6.89h0l.09-.15h0l.05-.09h0l.09-.14v0l.05-.09h0l0,0v0l0-.08v0l0,0v0l0-.07,0,0,0,0,0-.05,0,0,0,0,0,0,0,0,0,0,0,0,0,0,0,0,0,0,0-.06,0,0,0,0v0l0-.06v0l0-.06v0l0-.07v0l0-.07h0l0-.07h0l0-.07h0l0-.07h0l0-.07h0l.09-.15h0l.09-.16h0l.52-.89a2,2,0,0,0-1.73-3Zm10.23-21.35a2,2,0,0,0-1.86,1.28c-1.4,3.62-3,7.23-4.65,10.73a2,2,0,0,0,3.61,1.73h0v0l0,0v0l0,0v0l0,0v0l0,0v0l0-.1h0l0,0h0l0,0h0l0-.1h0l0,0h0l.08-.16h0q2-4.27,3.78-8.67h0l0-.05h0l.07-.16h0l0,0h0l0-.1h0v-.09h0l0,0v-.14l0-.07h0v0h0v0l0-.12h0l0,0h0l.2-.52a2,2,0,0,0-1.86-2.72Zm6.85-22.66a2,2,0,0,0-2,1.57c-.83,3.79-1.83,7.6-2.95,11.31a2,2,0,1,0,3.83,1.16q.54-1.78,1-3.59h0l0-.13h0v0h0v0h0l0-.07h0v-.36h0v0h0v0h0l0-.11h0v-.05h0q.94-3.49,1.72-7a2,2,0,0,0-2-2.42Zm3.31-23.44a2,2,0,0,0-2,1.87c-.25,3.88-.65,7.79-1.19,11.63a2,2,0,0,0,1.7,2.26l.28,0a2,2,0,0,0,2-1.72l.06-.41h0v0h0l0-.12v-.71h0v0h0v0h0l0-.12h0v-.05h0l0-.12h0v-.06h0l0-.12h0l0-.18h0v-.06h0l0-.12h0l.12-1h0v-.12h0v-.06h0v-.12h0v-.05h0V194h0v-.05h0v-.12h0v0h0v-.24h0v-.06h0v-.71h0v-.22h0v0h0v-.13h0v0h0v-.13h0q.33-3.12.53-6.28a2,2,0,0,0-1.87-2.12ZM330.42,160h-.17a2,2,0,0,0-1.82,2.16c.33,3.86.52,7.79.56,11.68a2,2,0,0,0,2,2h0a2,2,0,0,0,2-2q0-.59,0-1.18h0v-.18h0v0h0v-.08h0v-.09h0V172h0v-.18h0v-2.2h0V169h0v0h0v0h0v-.13h0v0h0v-.09h0v0h0v-.18h0v-.18h0q-.08-1.71-.19-3.41h0v0h0v-.13h0v0h0v-.12h0v-.63h0v-.06h0v0h0v-.12h0v-.06h0c0-.55-.09-1.1-.13-1.65a2,2,0,0,0-2-1.82Zm-3.82-23.36a2,2,0,0,0-1.95,2.47c.92,3.77,1.7,7.62,2.33,11.46a2,2,0,0,0,2,1.68l.33,0a2,2,0,0,0,1.65-2.3q-.14-.88-.3-1.76h0l0-.18h0v0h0l0-.12v-.34h0v-.06h0v0h0l0-.12h0v-.06h0q-.39-2.15-.84-4.27h0v-.06h0l0-.12h0v-.06h0l0-.12h0v-.06h0l0-.11h0v0h0v0h0v-.05h0v-.5l0-.11h0v0h0l0-.13h0v0h0l0-.17h0q-.33-1.48-.69-3a2,2,0,0,0-1.94-1.53Zm-7.34-22.5a2,2,0,0,0-1.85,2.76c1.48,3.59,2.85,7.28,4.05,11a2,2,0,0,0,3.8-1.24v0h0v0h0l0-.11v-.14h0l0-.05v-.11h0l0-.05h0l0,0h0l0,0h0l0-.11h0l0-.05h0q-1.76-5.28-3.87-10.39a2,2,0,0,0-1.85-1.23ZM308.56,93a2,2,0,0,0-1.71,3c2,3.32,3.92,6.76,5.68,10.22a2,2,0,0,0,3.57-1.8q-1.09-2.16-2.25-4.29h0l-.08-.15h0l-.14-.25h0l-.08-.15v0l-.08-.14h0l0-.09h0l0,0h0l0-.09v0l-.08-.14v0l0-.07v0l0,0v0l0-.07,0,0,0,0,0,0,0-.06,0,0,0,0,0,0,0,0,0,0,0-.06,0,0,0,0,0,0,0-.06,0,0,0,0,0,0,0-.05,0,0,0,0,0-.06,0,0,0,0,0-.06,0,0,0,0,0,0,0-.05,0,0,0,0,0-.06,0,0,0,0,0,0,0-.06,0,0,0,0,0,0,0,0,0,0,0,0,0,0,0,0,0,0,0-.05,0,0,0,0,0-.05,0,0,0,0,0,0,0-.06,0,0,0,0v0l0-.07v0l0,0h0l0-.08v0l0-.07v0l0,0v0l0-.08v0l0,0h0l-.05-.09h0l-.08-.14h0l-.09-.15h0l-.06-.1h0l-.09-.15h0l-.84-1.41a2,2,0,0,0-1.71-1ZM294.79,73.74A2,2,0,0,0,293.25,77c2.49,3,4.9,6.09,7.16,9.24a2,2,0,0,0,3.26-2.32l-.52-.73h0l-.1-.14v0l0-.07,0,0,0,0,0,0,0,0,0,0,0,0,0-.06,0,0,0,0v0l0-.06v0l0-.07h0l0-.07h0l-.05-.07h0l-.11-.15h0q-2.92-4-6.08-7.74a2,2,0,0,0-1.53-.72Zm-16.53-17a2,2,0,0,0-1.32,3.5c2.91,2.57,5.76,5.28,8.48,8.06a2,2,0,0,0,2.87-2.79l0,0,0,0,0,0,0,0,0,0,0,0,0,0,0,0,0,0,0,0,0,0,0,0,0,0-.05-.05,0,0,0,0,0,0-.05-.06h0l-.05-.06h0l-.06-.06h0l-.06-.06h0l-.06-.06h0l-.06-.06h0l-.12-.13h0l-.13-.13h0q-3.64-3.65-7.51-7.06a2,2,0,0,0-1.32-.5Zm-18.9-14.26a2,2,0,0,0-1.08,3.68c3.27,2.1,6.49,4.34,9.59,6.68a2,2,0,0,0,2.41-3.19l0,0h0l-.08-.06h0l0,0h0l-.07-.06h0l0,0h0l-.07,0,0,0,0,0,0,0,0,0,0,0,0,0,0,0,0,0,0,0,0,0,0,0,0,0-.05,0,0,0,0,0,0,0,0,0,0,0-.05,0,0,0,0,0,0,0-.06,0,0,0,0,0h0l-.06,0,0,0-.05,0h0l-.05,0,0,0-.06,0h0l-.05,0h0l-.06,0,0,0-.05,0h0l-.06,0h0l-.06,0h0l-.06,0h0l-.06,0h0L268,48h0L268,48h0l-.06,0h0l-.06,0h0l-.06,0h0l-.05,0h0l-.06,0h0l-.05,0h0l-.06,0h0l-.06,0h0l-.05,0,0,0-.06,0h0l0,0h0l-.06,0h0l-.05,0,0,0-.05,0,0,0-.06,0h0l0,0h0l-.06,0,0,0,0,0,0,0-.06,0,0,0-.05,0,0,0,0,0,0,0-.06,0,0,0,0,0,0,0-.06,0,0,0,0,0,0,0,0,0,0,0,0,0,0,0,0,0,0,0-.05,0,0,0,0,0-.05,0,0,0,0,0,0,0-.07,0h0l-.13-.09h0l-.08-.06h0l0,0h0l-.08-.05h0l0,0h0l-.09-.06h0l-.14-.1h0q-2.15-1.48-4.34-2.89a2,2,0,0,0-1.07-.31ZM238.52,31.3a2,2,0,0,0-.81,3.83c3.55,1.57,7.08,3.31,10.5,5.15a2,2,0,0,0,1.9-3.52l-1.53-.81h0l-.15-.08h0l-.08,0h0l0,0h0l-.07,0h0l0,0-.06,0,0,0,0,0,0,0-.06,0,0,0,0,0,0,0-.05,0h0l-.06,0h0l-.05,0h0l-.07,0h0l-.06,0h0l-.07,0h0l-.07,0h0l-.08,0h0l-.15-.08h0l-.08,0h0l-.08,0h0l-.08,0h0l-.16-.08h0q-3.55-1.8-7.2-3.42a2,2,0,0,0-.81-.17Zm-22.31-7.92a2,2,0,0,0-.52,3.93c3.75,1,7.5,2.19,11.16,3.48A2,2,0,1,0,228.19,27l-2.78-1h-.05l-.17-.06h0l-.17-.05H225l-.11,0h-.12l0,0h-.55l0,0h-.12l-.05,0h-.18l-.05,0h-.12l-.05,0h0l0,0h-.07l-.11,0h0l-.05,0h0L223,25.3h0l-.23-.07h0q-3-.95-6.07-1.77a2,2,0,0,0-.51-.07ZM193,19a2,2,0,0,0-.22,4c3.86.43,7.75,1,11.56,1.74a2,2,0,0,0,.75-3.93l-1.67-.31h0l-.24,0h0l-.12,0H203l-.12,0h-1.05l-.13,0h0q-4.19-.7-8.46-1.18ZM175.5,18h-3.91q-4.07.1-8.08.4a2,2,0,0,0,.15,4h.15c3.86-.29,7.8-.44,11.69-.44h0c1.85,0,3.73,0,5.58.1h.07a2,2,0,0,0,.07-4l-1.25,0H175.5Z"/><text class="cls-3" transform="translate(73.6 141.57) rotate(-66.22)">C</text><text class="cls-3" transform="matrix(0.55, -0.84, 0.84, 0.55, 81.04, 124.66)">a</text><text class="cls-3" transform="matrix(0.65, -0.76, 0.76, 0.65, 90.04, 110.98)">t</text><text class="cls-3" transform="matrix(0.74, -0.67, 0.67, 0.74, 97.22, 102.19)">c</text><text class="cls-3" transform="translate(108.94 91.25) rotate(-33.03)">h</text><text class="cls-3" transform="matrix(0.9, -0.43, 0.43, 0.9, 124.87, 81.19)">i</text><text class="cls-3" transform="translate(132.71 77) rotate(-18.13)">n</text><text class="cls-3" transform="matrix(0.99, -0.15, 0.15, 0.99, 150.28, 71.22)">g</text><text class="cls-3" transform="translate(166.69 68.9) rotate(-2.66)"> </text><text class="cls-3" transform="matrix(1, 0.06, -0.06, 1, 173.32, 68.27)">T</text><text class="cls-3" transform="translate(189.3 69.01) rotate(12.66)">h</text><text class="cls-3" transform="translate(207.35 73.05) rotate(21.97)">e</text><text class="cls-3" transform="translate(222.66 79.46) rotate(28.22)"> </text><text class="cls-3" transform="matrix(0.82, 0.57, -0.57, 0.82, 228.64, 82.32)">S</text><text class="cls-3" transform="matrix(0.72, 0.69, -0.69, 0.72, 242, 91.21)">p</text><text class="cls-3" transform="matrix(0.63, 0.78, -0.78, 0.63, 255.48, 104.4)">i</text><text class="cls-3" transform="matrix(0.55, 0.83, -0.83, 0.55, 261.35, 111.5)">r</text><text class="cls-3" transform="matrix(0.47, 0.88, -0.88, 0.47, 267.78, 121.27)">i</text><text class="cls-3" transform="translate(272.17 129.38) rotate(67.81)">t</text><text class="cls-4" transform="translate(47.74 178.58) rotate(85.7)">R</text><text class="cls-4" transform="translate(48.89 192.58) rotate(80.04)">e</text><text class="cls-4" transform="matrix(0.25, 0.97, -0.97, 0.25, 50.83, 203.36)">s</text><text class="cls-4" transform="translate(53.18 212.57) rotate(70.45)">p</text><text class="cls-4" transform="translate(57.43 224.36) rotate(65.13)">e</text><text class="cls-4" transform="translate(62.08 234.34) rotate(60.19)">c</text><text class="cls-4" transform="translate(67.56 243.75) rotate(55.98)">t</text><text class="cls-4" transform="translate(71.92 250.15) rotate(53.19)"> </text><text class="cls-4" transform="translate(74.78 254.09) rotate(49.68)">y</text><text class="cls-4" transform="translate(81.9 262.5) rotate(44.43)">o</text><text class="cls-4" transform="matrix(0.78, 0.63, -0.63, 0.78, 90.89, 271.28)">u</text><text class="cls-4" transform="translate(100.66 279) rotate(34.26)">r</text><text class="cls-4" transform="matrix(0.86, 0.51, -0.51, 0.86, 107.15, 283.44)">s</text><text class="cls-4" transform="matrix(0.9, 0.43, -0.43, 0.9, 115.32, 288.24)">e</text><text class="cls-4" transform="matrix(0.93, 0.37, -0.37, 0.93, 125.16, 292.89)">l</text><text class="cls-4" transform="translate(131.03 295.26) rotate(18.68)">f</text><text class="cls-4" transform="translate(138.37 297.7) rotate(15.85)">,</text><text class="cls-4" transform="translate(142.92 298.99) rotate(13.71)"> </text><text class="cls-4" transform="translate(147.67 300.26) rotate(9.81)">o</text><text class="cls-4" transform="translate(159.96 302.28) rotate(5.26)">t</text><text class="cls-4" transform="translate(167.87 303.07) rotate(0.76)">h</text><text class="cls-4" transform="translate(180.35 303.18) rotate(-4.46)">e</text><text class="cls-4" transform="translate(191.24 302.26) rotate(-8.7)">r</text><text class="cls-4" transform="translate(199.03 301.08) rotate(-12.6)">s</text><text class="cls-4" transform="translate(208.12 298.98) rotate(-15.8)"> </text><text class="cls-4" transform="translate(212.8 297.74) rotate(-19.35)">a</text><text class="cls-4" transform="translate(223.23 294.09) rotate(-24.67)">n</text><text class="cls-4" transform="translate(234.64 288.82) rotate(-30.32)">d</text><text class="cls-4" transform="matrix(0.83, -0.56, 0.56, 0.83, 245.23, 282.46)"> </text><text class="cls-4" transform="matrix(0.77, -0.64, 0.64, 0.77, 249.57, 279.86)">M</text><text class="cls-4" transform="translate(263.81 267.86) rotate(-46.4)">o</text><text class="cls-4" transform="matrix(0.63, -0.78, 0.78, 0.63, 272.32, 258.76)">t</text><text class="cls-4" transform="matrix(0.57, -0.82, 0.82, 0.57, 277.37, 252.65)">h</text><text class="cls-4" transform="translate(284.41 242.3) rotate(-60.81)">e</text><text class="cls-4" transform="matrix(0.42, -0.91, 0.91, 0.42, 289.68, 232.73)">r</text><text class="cls-4" transform="translate(292.92 225.64) rotate(-67.9)"> </text><text class="cls-4" transform="translate(294.88 221.13) rotate(-71.81)">E</text><text class="cls-4" transform="translate(298.72 209.24) rotate(-77.13)">a</text><text class="cls-4" transform="translate(301.09 198.59) rotate(-81.36)">r</text><text class="cls-4" transform="matrix(0.09, -1, 1, 0.09, 302.25, 190.84)">t</text><text class="cls-4" transform="matrix(0.01, -1, 1, 0.01, 303.03, 182.92)">h</text><text class="cls-5" transform="translate(303.54 170.56) rotate(-93.07)"> </text><text></text><path d="M207,181.06"/><polyline class="cls-6" points="87.5 208.5 148.5 99.5 180.5 164.5 201.5 120.5 231.5 180.5"/><g class="cls-7"><polygon class="cls-8" points="146.29 182.64 152.32 182.64 141.6 169.25 148.3 169.25 137.59 152.5 125.53 169.25 132.9 169.25 120.84 183.31 127.54 183.31 119.5 196.04 133.93 196.04 155 196.04 146.29 182.64"/><rect class="cls-8" x="134.24" y="197.38" width="6.03" height="11.39"/></g><g class="cls-7"><polygon class="cls-8" points="251.77 181.71 256.91 181.71 247.77 170.29 253.48 170.29 244.34 156 234.05 170.29 240.34 170.29 230.05 182.29 235.77 182.29 228.91 193.14 241.22 193.14 259.2 193.14 251.77 181.71"/><rect class="cls-8" x="241.48" y="194.29" width="5.14" height="9.71"/></g><path class="cls-6" d="M115.87,228.83a8.15,8.15,0,0,0,16.27.42"/><path class="cls-6" d="M131.87,228.83a8.15,8.15,0,0,0,16.27.42"/><path class="cls-6" d="M182.87,238.83a8.15,8.15,0,0,0,16.27.42"/><path class="cls-6" d="M198.87,238.83a8.15,8.15,0,0,0,16.27.42"/><path class="cls-8" d="M206.69,204.73a8.15,8.15,0,0,0,16.27-.42"/><path class="cls-8" d="M222.68,204.73a8.15,8.15,0,0,0,16.27-.42"/><path class="cls-6" d="M142.74,204.73a8.15,8.15,0,0,0,16.27-.42"/><path class="cls-6" d="M158.72,204.31a8.15,8.15,0,0,0,16.27.42"/><path class="cls-6" d="M174.71,204.73a8.15,8.15,0,0,0,16.27-.42"/><path class="cls-6" d="M190.7,204.73a8.15,8.15,0,0,0,16.27-.42"/><path class="cls-8" d="M146.1,266.78"/><path class="cls-8" d="M157,247.27"/><path class="cls-8" d="M193.5,259.5"/><line class="cls-6" x1="87.5" y1="208.5" x2="132.5" y2="208.5"/><text></text><path class="cls-9" d="M198,125.49a32.34,32.34,0,0,0-21.87-5.07,30.75,30.75,0,0,0-12.49,4.77"/><line class="cls-10" x1="191.12" y1="121.8" x2="204.88" y2="100.2"/><line class="cls-10" x1="169.88" y1="122.37" x2="158.12" y2="99.63"/><line class="cls-10" x1="180.55" y1="120.01" x2="180.38" y2="95.01"/></g></g></svg>