<svg xmlns="http://www.w3.org/2000/svg" viewBox="0 0 48 46"><title>shovel</title><g id="Layer_2" data-name="Layer 2"><g id="Layer_1-2" data-name="Layer 1"><g id="shovel"><rect width="48" height="46" rx="7.39" ry="7.39" style="fill:#4eab8a"/><path d="M18.25,29.42,21,32.33S11.58,42.92,7.08,37.92s6.58-13.58,6.58-13.58l2.42,2.58a61.73,61.73,0,0,0,7.5-5.42c2.5-2.33,8.58-7.83,8.58-7.83s-1.75-4,5.08-8.25c4.33,4.92,5.42,6.08,5.42,6.08s-3.08,6-8.67,3.92C30.5,18.83,21.42,25.42,18.25,29.42Z" style="fill:#fff"/><path d="M34.44,13.64c-2.67-2.92,2.42-6,2.42-6l3.72,4s-3.4,4.88-6.14,2" style="fill:#4eab8a"/></g></g></g></svg>