<svg xmlns="http://www.w3.org/2000/svg" viewBox="0 0 48 46"><title>handshake</title><g id="Layer_2" data-name="Layer 2"><g id="Layer_1-2" data-name="Layer 1"><g id="handshake"><rect width="48" height="46" rx="7.39" ry="7.39" style="fill:#4eab8a"/><path d="M42.75,27" transform="translate(-9.5)" style="fill:none;stroke:#4eab8a;stroke-miterlimit:10;stroke-width:0.30000001192092896px"/><path d="M21.81,33.34s-2.22-1.94.34-4,3.06-1.19,3.06-1.19,1.75.88,0,3.69S21.81,33.34,21.81,33.34Z" transform="translate(-9.5)" style="fill:#fff"/><path d="M26.17,35s-1.94-1,.58-3.54,3.33-1.19,3.33-1.19,1.23,1.37-.29,3.32A3.64,3.64,0,0,1,26.17,35Z" transform="translate(-9.5)" style="fill:#fff"/><path d="M29.34,37.31s-1.58-1.22,1.21-2.69,1.14,2.47,1.14,2.47S31,38.13,29.34,37.31Z" transform="translate(-9.5)" style="fill:#fff"/><path d="M19.42,29.71l.38.92a1.58,1.58,0,0,1-.37,1,1.46,1.46,0,0,1-2,0c-.79-.71,0-1,0-1l1-.58-1.24-.33A1.61,1.61,0,0,1,19.42,29.71Z" transform="translate(-9.5)" style="fill:#fff"/><path d="M0,16" transform="translate(-9.5)" style="fill:#fff"/><path d="M53.29,15h-1a5.69,5.69,0,0,1-.71.29c-1.08.29-4.19-.68-4.19-.68h0a3.41,3.41,0,0,0-.76-.6h0c-2.2-2.08-10.35-3.13-10.35-3.13h0a2.52,2.52,0,0,0-2.42.29s-6.67.25-7.84.75a5.26,5.26,0,0,0-2,2.36,3.76,3.76,0,0,0-2.61,1.88c1.45-.14,1.44.81,1.44.81a3.55,3.55,0,0,1-1.59.22,2.61,2.61,0,0,0,2,1.44c1.09.06,3.5-1.34,3.5-1.34s2.26-1.95,3.59-2.82c.54,2.75,2.71,2,2.71,2a8.2,8.2,0,0,1,3.75-.58c-1,1.17.44,2.25.44,2.25S39.63,20.29,41,20l4.67,2.63c.25.38,1.63.63,1.63.63s2.5,3.71,4.17,3.25,1.83-1.17,1.63-2l.21-1.79Z" transform="translate(-9.5)" style="fill:#fff"/><path d="M23,29.13a2.42,2.42,0,0,1,2.39,1.37C25.78,28.29,24.39,28.29,23,29.13Z" transform="translate(-9.5)" style="fill:#4eab8a"/><path d="M27.67,31a2.42,2.42,0,0,1,2.39,1.37C30.45,30.18,29.06,30.18,27.67,31Z" transform="translate(-9.5)" style="fill:#4eab8a"/><path d="M47.06,25.31s-.25-.81-.4-.81-6.51-2.69-6.51-2.69c-2.69-.69-5.5-4.75-5.5-4.75a5.56,5.56,0,0,1-2.56.59,4.53,4.53,0,0,1-2.51-.91c-5.42,5.17-7.5,3.08-7.5,3.08-3.25-1.42-2.17-3.75-1.67-4.54-1.71,0-1.83-.83-1.83-.83H12.33V27s3.79-.16,4.38,1a3.34,3.34,0,0,1,3.73,1.41c4.81-5.12,6.59-.81,6.94-.19,2.41-1.78,4,1.16,4,1.16a25.85,25.85,0,0,0,.25,2.72A3,3,0,0,1,33.5,37s.33.33,3.17.5c3.88,0,1.83-1.62,1.83-1.62A27.54,27.54,0,0,1,33.92,34c-1.67-1-.25-1.33-.25-1.33l5.18,1.92c3,1.1,3.2-.62,3.07-1.17s-2.39-1.3-2.39-1.3-3-1-3.78-2.22c-.41-.59,0-1.45.22-1.37,0,0,5.14,2.38,7.07,2.36h.2c1.43-.1.77-2,.34-2A57.19,57.19,0,0,1,38,26.13c-.62-1,.38-1,.38-1s6.26,2.74,7.93,1.5h0C46.78,26.54,47.18,26.22,47.06,25.31Z" transform="translate(-9.5)" style="fill:#fff"/><path d="M32,36.24a3.6,3.6,0,0,0,.17-.8c0-.37-1.6-.19-1.6-.19S31.81,35.29,32,36.24Z" transform="translate(-9.5)" style="fill:#4eab8a"/></g></g></g></svg>