<svg xmlns="http://www.w3.org/2000/svg" viewBox="0 0 48 46"><title>frog</title><g id="Layer_2" data-name="Layer 2"><g id="Layer_1-2" data-name="Layer 1"><g id="frog"><rect width="48" height="46" rx="7.39" ry="7.39" style="fill:#4eab8a"/><path d="M18.08,23.42s-2.33,2-2.87,2-.87-.46-1.08-1A6,6,0,0,0,13,22.5a10.53,10.53,0,0,1-.62,1.29A6.6,6.6,0,0,0,9.92,22.5c.67.17,1.29,1.17,2.17,2A4.55,4.55,0,0,0,9,24.84l2.22.47a6.44,6.44,0,0,1,2.22,1.78,2.31,2.31,0,0,0,2.72.72l4.28-2.72a27.11,27.11,0,0,1,2.44,1.84c-1.53,2.91.88,4.31.88,4.31s-1.91.63-2.94.88c-1.78-.06-2.09.66-2.09.66L21,33s-4.56,3.34-3.69,3.34C22,33,22.56,33.88,22.56,33.88a8.38,8.38,0,0,0-1.12,1.94c3-3,4.81-2.31,4.81-2.31,3.38-1.87,5-1.37,7.75-1.37s4.38-.5,7.25-2.62.5-2.62-.12-3.25.88-1.5.88-1.5,2.5-2.25.75-2.25-3.37-.87-4.87-2.75a15.58,15.58,0,0,0-8.75-6S21.5,12.13,18.38,11c-1.5-3.25-4.62-.75-4.62-.75A13.85,13.85,0,0,1,9.44,11.5c-2,.13-1.37,2.56-1.37,2.56s4,6.63,7.94,6.38C16.94,21.94,18.08,23.42,18.08,23.42Z" style="fill:#fff"/><circle cx="16.12" cy="13.56" r="0.94" style="fill:#4eab8a"/></g></g></g></svg>