<svg xmlns="http://www.w3.org/2000/svg" viewBox="0 0 48 46"><title>fish</title><g id="Layer_2" data-name="Layer 2"><g id="Layer_1-2" data-name="Layer 1"><g id="fish"><rect width="48" height="46" rx="7.39" ry="7.39" style="fill:#4eab8a"/><g id="fish-2" data-name="fish"><path d="M38.64,13.46c-.77-.8-2.27-1.21-4.5-1.21a29.56,29.56,0,0,0-5.23.56c.25-3-2-5.5-3.2-6.6,2.44,1,9.43,3.7,10.35,4.11A4.26,4.26,0,0,1,38.64,13.46Z" style="fill:#fff"/><path d="M26.38,6.64c2.87,1.12,8.79,3.45,9.63,3.83A4,4,0,0,1,38.36,13a7.49,7.49,0,0,0-4.21-.92,29.4,29.4,0,0,0-5.06.52c.13-2.58-1.49-4.75-2.71-6m-1.44-.89S29.25,8.94,28.75,13a29.37,29.37,0,0,1,5.4-.59c2.14,0,4.23.39,4.79,1.78a4.63,4.63,0,0,0-2.81-4C35,9.69,24.94,5.75,24.94,5.75Z" style="fill:#fff"/><path d="M15.74,34.81a46.3,46.3,0,0,1-8.21-1l4.83-1a.15.15,0,0,0,.11-.21c0-.1-1.13-2.43-4.86-2.5.55-1.82,4.68-4.41,4.72-4.43s4.42-3.06,7.8-3.06a.15.15,0,0,0,.14-.1,33.82,33.82,0,0,1,2.16-4.83c.43.24,1.9.81,5.86.81a14.65,14.65,0,0,0,4.47-.46,6.35,6.35,0,0,0-1.2,2.47.15.15,0,0,0,0,.12.15.15,0,0,0,.11,0H32c1.89-.07,6.2-.23,8.11-5.55a17.37,17.37,0,0,1-.06,4c0,.06-.22,3.12-8.19,6.64a44.57,44.57,0,0,1-12.51,2.61.15.15,0,0,0-.14.17S19.74,31.91,15.74,34.81Z" style="fill:#fff"/><path d="M40,15.81a14.5,14.5,0,0,1-.1,3.25.35.35,0,0,0,0,.05s-.25,3-8.08,6.48a44.44,44.44,0,0,1-12.47,2.6.3.3,0,0,0-.28.35c0,.13.48,3.28-3.38,6.11a44.25,44.25,0,0,1-7.4-.82l4.1-.83a.3.3,0,0,0,.21-.42c0-.1-1.13-2.43-4.79-2.59.62-1.45,3.46-3.46,4.6-4.17,0,0,4.38-3,7.7-3a.3.3,0,0,0,.29-.21,33,33,0,0,1,2.08-4.68c.59.28,2.14.76,5.8.76a17.77,17.77,0,0,0,4.11-.35,5.68,5.68,0,0,0-1,2.18.3.3,0,0,0,.3.33H32c1.84-.07,6-.22,8-5m.19-1.44c-1.83,6.25-6.79,6.08-8.5,6.17a7.79,7.79,0,0,1,1.56-2.9c-.29.25-1.32.74-5,.74-4.87,0-5.92-.87-5.92-.87a34.73,34.73,0,0,0-2.25,5c-3.46,0-7.87,3.08-7.87,3.08s-4.5,2.79-4.83,4.71c3.83,0,4.92,2.42,4.92,2.42L6.79,33.83a48.18,48.18,0,0,0,9,1.13c4.17-3,3.58-6.46,3.58-6.46a44.4,44.4,0,0,0,12.56-2.62c8.19-3.62,8.27-6.75,8.27-6.75a21.3,21.3,0,0,0,0-4.75ZM33.38,17.5l-.11.14a.31.31,0,0,0,.11-.14Z" style="fill:#fff"/><path d="M18.28,35.16a3.38,3.38,0,0,0,.6-.61c1-1.27,2.08-3.83,2-5,11.66-.07,17.59-6.22,19-7.89-.62,5-3.75,8.8-9.29,11.16a32.94,32.94,0,0,1-11.87,2.38Z" style="fill:#fff"/><path d="M39.62,22.1C37.59,34.86,19.47,35,18.68,35h0a4.4,4.4,0,0,0,.33-.37,10.31,10.31,0,0,0,2-5c10.85-.12,16.74-5.48,18.62-7.56m.42-1h0Zm0,0s-5.74,8.23-19.37,8.24c.31,1.37-1.75,5.9-3,5.9a7.11,7.11,0,0,0,1,.05c4.43,0,20.25-1.65,21.36-14.19Z" style="fill:#fff"/><path d="M24.69,36.09A16,16,0,0,1,30,35a7.35,7.35,0,0,1,2.1.28,8.61,8.61,0,0,0-5,3Z" style="fill:#fff"/><path d="M30,35.15a7.83,7.83,0,0,1,1.48.13A8.72,8.72,0,0,0,27.08,38L25,36.14a15.61,15.61,0,0,1,5-1m0-.3A16.54,16.54,0,0,0,24.41,36l2.72,2.44a8.44,8.44,0,0,1,5.56-3.16A7,7,0,0,0,30,34.85Z" style="fill:#fff"/><circle cx="12.83" cy="27.46" r="0.71" style="fill:#4eab8a"/></g></g></g></g></svg>