<svg xmlns="http://www.w3.org/2000/svg" viewBox="0 0 48 46"><title>recycle</title><g id="Layer_2" data-name="Layer 2"><g id="Layer_1-2" data-name="Layer 1"><g id="recycle"><rect width="48" height="46" rx="7.39" ry="7.39" style="fill:#4eab8a"/><g id="r3"><path d="M28.67,37.48c10.44.13,7.62-5.1,7.62-5.1l-1.59-3-5.94-.07,0-2.06-3.36,6.09,3.21,6.5Z" style="fill:#fff"/><path d="M36.92,32.68,30.36,20.35l6.75-3.43,4,6.94S42,25,39.82,28.45A37.71,37.71,0,0,1,36.92,32.68Z" style="fill:#fff"/></g><g id="r2"><path d="M8.82,19.78c-5.16,9.07.77,9.14.77,9.14L13,29l2.94-5.16,1.79,1L14,19l-7.24-.33Z" style="fill:#fff"/><path d="M9,29.33l14,.22-.27,7.57-8,.14s-1.44.21-3.38-3.35A37.71,37.71,0,0,1,9,29.33Z" style="fill:#fff"/></g><g id="r1"><path d="M34.58,11.7c-5-9.16-8.18-4.14-8.18-4.14l-1.85,2.87,2.85,5.21-1.81,1,7-.05,4.09-6Z" style="fill:#fff"/><path d="M26.35,6.87,18.83,18.63l-6.3-4.2,4.08-6.89s.58-1.33,4.63-1.12A37.71,37.71,0,0,1,26.35,6.87Z" style="fill:#fff"/></g></g></g></g></svg>