<?xml version="1.0" encoding="UTF-8"?>
<svg width="1119px" height="379px" viewBox="0 0 1119 379" version="1.1" xmlns="http://www.w3.org/2000/svg" xmlns:xlink="http://www.w3.org/1999/xlink">
    <!-- Generator: Sketch 42 (36781) - http://www.bohemiancoding.com/sketch -->
    <title>For Youth By Youth</title>
    <desc>Created with Sketch.</desc>
    <defs></defs>
    <g id="Programs--Desktop" stroke="none" stroke-width="1" fill="none" fill-rule="evenodd">
        <g id="iPad-Pro-Portrait" transform="translate(-244.000000, -494.000000)" fill="#F9F296">
            <g id="For-Youth-By-Youth" transform="translate(803.500000, 683.500000) scale(-1, 1) translate(-803.500000, -683.500000) translate(244.000000, 494.000000)">
                <g id="Group">
                    <path d="M12.8508449,373.418828 C13.970622,373.418828 14.3930621,373.465721 14.7269763,373.41384 C19.5182554,372.687504 24.2893444,371.962165 29.035584,371.207893 C31.2005899,370.861686 33.2413486,370.365822 35.4405225,370.07449 C40.9042891,369.34516 46.3960113,368.68168 51.8908397,368.024187 C53.2389209,367.864552 54.7112491,367.899472 55.9972067,367.693943 C59.6096914,367.115269 63.150734,366.442809 66.7274977,365.832208 C72.6121514,364.838484 78.4936989,363.849749 84.4032021,362.885957 C88.4893789,362.218486 92.6112767,361.572965 96.7424931,360.962364 C100.031935,360.481465 103.425434,360.125281 106.688474,359.616447 C111.192432,358.917049 115.564377,358.056022 120.099397,357.405512 C123.601612,356.905657 127.329025,356.717089 130.857643,356.236191 C137.073105,355.387136 143.273036,354.491188 149.373569,353.48649 C155.840631,352.424921 162.72392,351.952005 169.07916,350.727809 C170.292123,350.490353 171.9151,350.680917 173.229014,350.507314 C182.918735,349.224254 192.58516,347.901284 202.253138,346.601262 C205.534815,346.158277 208.855319,345.753205 212.115253,345.31022 C216.741904,344.685651 221.439998,344.151873 225.925319,343.382636 C232.330257,342.28515 239.216653,341.93595 245.509769,340.607992 C250.39734,339.576355 255.795877,339.013644 260.989406,338.276333 C264.872128,337.722602 268.79989,337.243699 272.677953,336.693958 C276.989328,336.079366 281.251004,335.407904 285.565484,334.792314 C289.292898,334.265521 293.07001,333.787616 296.819166,333.277784 C299.386422,332.930579 301.938147,332.53748 304.54889,332.225195 C308.326002,331.772233 312.169897,331.434008 315.914394,330.926171 C320.565895,330.302599 325.110233,329.52538 329.753969,328.872875 C339.336527,327.520972 348.950147,326.212968 358.532705,324.878026 C360.582783,324.59268 362.617329,324.273411 364.667407,323.971104 C367.835708,323.50118 371.050602,323.053206 374.218903,322.541379 C376.424289,322.180206 378.505428,321.644434 380.741876,321.328158 C386.146626,320.559918 391.613498,319.86052 397.06484,319.163118 C401.661983,318.569478 406.274657,318.041687 410.8718,317.443058 C415.034078,316.898306 419.180826,316.251787 423.374166,315.73996 C429.105064,315.04555 435.037863,314.607554 440.613452,313.737547 C445.769707,312.934387 450.972555,312.349726 456.330711,311.91572 C458.660345,311.722164 460.974447,311.464753 463.241957,311.171425 C467.124679,310.673566 470.945278,310.101875 474.812469,309.603018 C478.943685,309.071236 483.152556,308.637231 487.252711,308.055563 C491.026717,307.517795 494.629883,306.768511 498.41942,306.246707 C502.737007,305.642092 507.194372,305.240013 511.543021,304.651361 C517.165202,303.88811 522.70973,302.95824 528.378504,302.228911 C534.994662,301.372872 541.704006,300.667488 548.366758,299.867321 C552.42032,299.378441 556.473881,298.88557 560.449789,298.297916 C565.916662,297.494756 571.290349,296.573865 576.72616,295.747758 C580.841846,295.120196 585.004124,294.533539 589.181933,293.963844 C594.974954,293.171659 600.799038,292.444325 606.576528,291.622209 C608.8751,291.294958 611.018362,290.711295 613.332465,290.386041 C615.662098,290.057792 618.178102,289.984959 620.538797,289.669682 C625.260187,289.029149 629.903923,288.259911 634.625313,287.624367 C641.272534,286.728419 647.950816,285.915282 654.613567,285.059243 C657.859523,284.638208 661.027824,284.125383 664.304841,283.77718 C667.302303,283.464896 670.517197,283.533738 673.01767,282.555978 L673.266164,282.545003 C679.230025,281.97431 685.209418,281.447517 691.126686,280.814966 C697.276918,280.150488 703.365026,279.361296 709.484197,278.659903 C712.077855,278.361586 714.749168,277.946537 717.373888,277.954519 C719.377373,277.961503 720.8994,277.805859 722.452489,277.33394 C722.887354,277.200247 723.399873,277.11145 723.896861,277.046599 C729.037585,276.415045 734.224902,275.878275 739.287972,275.14695 C743.947239,274.472495 748.854999,274.257987 753.312364,273.104629 C757.039778,272.137844 761.543735,271.74674 765.706014,271.108202 C771.095232,270.28409 776.453389,269.442019 781.8892,268.670786 C783.551005,268.432332 783.659721,268.183901 783.877153,267.352805 C784.358611,265.461139 782.463842,263.673234 783.457819,261.762611 C784.079055,260.564356 783.349103,259.215446 783.100609,257.938372 C782.914238,256.875806 782.432781,255.823217 782.339595,254.759654 C782.168756,253.069525 782.199817,251.375406 782.153225,249.683283 C782.122163,247.839506 782.091101,245.991739 782.091101,244.146965 C782.091101,242.467812 782.122163,240.78367 782.199817,239.106512 C782.215348,238.699445 782.634682,238.286391 782.572559,237.890298 C782.199817,235.899858 781.609644,233.914406 781.267964,231.92197 C780.864161,229.651172 780.553543,227.371395 780.305049,225.096606 C780.180802,223.969189 780.165271,222.836783 780.242925,221.706372 C780.305049,220.874279 780.646728,220.038194 780.724383,219.203107 C780.941815,217.023101 781.112655,214.846088 781.20584,212.668077 C781.361149,209.478384 781.392211,206.289689 781.563051,203.104985 C781.656236,201.510637 781.966854,199.917287 782.199817,198.323937 C782.277472,197.693382 782.448312,197.070808 782.494904,196.443245 C782.557028,195.386666 782.976362,194.296164 782.463842,193.293461 C781.873669,192.064277 782.41725,190.872008 782.277472,189.665771 C782.091101,187.827981 782.308534,185.980214 782.230879,184.137436 C782.168756,182.94816 781.827076,181.761878 781.749422,180.569609 C781.640705,179.25961 781.749422,177.947615 781.640705,176.639612 C781.609644,176.417121 781.050532,176.174677 780.631198,175.999079 C779.140232,175.389476 777.587143,175.993093 776.220425,176.109825 C771.794122,176.484966 767.445473,177.066633 763.081293,177.569482 C762.025193,177.693198 760.969093,177.800951 759.912992,177.922672 C758.686052,178.071332 757.412519,178.201035 756.216641,178.387607 C755.207133,178.542253 754.29081,178.915398 753.312364,178.951316 C749.103494,179.108955 745.857538,180.658405 741.477827,180.549655 C737.998908,181.968404 733.355172,181.642152 729.255018,182.129036 C726.894323,182.407399 724.455973,182.550072 722.110809,182.839409 C720.775153,183.002037 719.579274,183.373186 718.259149,183.590688 C714.733637,184.176346 711.239187,184.82087 707.62049,185.277823 C700.227787,186.213679 692.633182,186.783374 685.395788,188.06843 C679.214495,189.166914 672.582805,189.761552 666.19961,190.643531 C660.717206,191.39481 655.343519,192.26382 649.892177,193.029067 C646.754937,193.470056 643.555574,193.780346 640.402804,194.189408 C638.570159,194.429858 636.830699,194.770078 635.013585,195.025493 C631.860815,195.468478 628.661452,195.835637 625.539743,196.322522 C624.110902,196.542019 622.868431,197.25738 621.517243,197.265362 C616.423112,197.291303 612.447204,198.712048 607.818999,199.26977 C605.9087,199.496252 604.029463,199.774614 602.165756,200.074926 C598.686837,200.630653 595.316634,201.315085 591.791122,201.76705 C588.560697,202.184094 585.159433,202.332754 581.882415,202.664993 C580.080832,202.846577 578.341373,203.157863 576.586382,203.427246 C574.023786,203.834314 571.47672,204.280292 568.898592,204.669401 C568.013332,204.803095 566.972762,204.762188 566.103032,204.912843 C563.369596,205.394739 560.744876,206.011327 557.964847,206.417397 C554.408273,206.937206 550.696391,207.267449 547.108756,207.759322 C545.369296,207.998774 543.785145,208.500624 542.014624,208.743069 C537.91447,209.295803 533.767722,209.780692 529.605444,210.262588 C525.225734,210.769427 520.814961,211.265291 516.388658,211.722244 C513.251418,212.046501 510.052055,212.283957 506.899285,212.573295 C505.703406,212.687034 504.53859,212.880591 503.342711,212.940453 C502.643821,212.971383 501.929401,212.967392 501.21498,212.964399 C500.236534,212.95941 499.273619,212.953424 498.341765,213.04222 C494.58329,213.38743 490.840346,213.766561 487.206118,214.281382 C482.111987,214.998738 476.676176,214.661511 471.566513,215.599362 C467.559544,216.341662 462.931339,216.409507 458.660345,216.890405 C453.177941,217.510983 447.711068,218.165484 442.352912,218.960662 C438.749745,219.49843 435.006801,219.830669 431.512351,220.579953 C428.142148,221.3013 424.507921,221.769228 420.920285,222.308992 C417.022032,222.897643 413.046125,223.402487 409.147872,224.013088 C406.989078,224.353309 404.970063,224.888084 402.8268,225.240277 C398.307311,225.980581 393.756761,226.681974 389.19068,227.355432 C384.546944,228.042857 379.778961,228.598584 375.197349,229.349863 C369.854723,230.226854 364.620814,231.25849 359.340312,232.216296 C359.231595,232.236251 359.107348,232.233257 358.96757,232.230264 C358.858854,232.227271 358.750138,232.224278 358.641422,232.237248 C355.084848,232.689213 351.466151,233.085305 347.971701,233.625069 C343.110533,234.371359 338.420205,235.330163 333.512444,236.005616 C327.284558,236.870634 320.842345,237.477244 314.578737,238.319315 C308.579155,239.125469 302.70382,240.103229 296.752383,240.983213 C290.673594,241.883151 284.55753,242.742183 278.47874,243.659083 C277.183464,243.851642 276.04505,244.251725 274.765304,244.480202 C270.629429,245.21452 266.473363,245.921899 262.314191,246.632272 C258.44234,247.29675 254.609317,248.004129 250.67379,248.587792 C247.758642,249.022796 244.666442,249.229323 241.740423,249.65834 C235.472156,250.572246 229.270672,251.576945 223.005512,252.512801 C221.151124,252.791163 219.201997,252.955786 217.290145,253.15932 C215.195028,253.382808 213.048659,253.547431 210.979945,253.8228 C207.603529,254.268778 204.304769,254.889357 200.878655,255.251527 C190.356478,256.365974 179.683651,257.186095 169.473645,258.863253 C163.93533,259.77716 158.265002,260.512475 152.689413,261.373503 C146.91037,262.265459 141.187237,263.216281 135.425277,264.121208 C134.134661,264.318756 132.775708,264.423516 131.454029,264.572175 C128.914729,264.858519 126.342814,265.101961 123.843894,265.440187 C121.076289,265.813332 118.392552,266.335137 115.603204,266.67835 C110.707868,267.28097 105.758174,267.785813 100.831776,268.35052 C97.6448377,268.715683 94.4874081,269.117762 91.3066821,269.492903 C88.3635787,269.842103 85.415816,270.152392 82.4960089,270.519551 C78.2514171,271.05233 74.0394401,271.622025 69.808826,272.167775 C69.0074321,272.271537 68.1299369,272.297478 67.3285431,272.421195 C64.3419532,272.892116 61.3584695,273.389975 58.3594549,273.87686 C56.0748611,274.244019 53.7700773,274.598207 51.4792712,274.970355 C49.0238377,275.377422 46.6212092,275.839364 44.1393732,276.206523 C40.5672688,276.734314 36.9330409,277.161336 33.3888921,277.697108 C29.700306,278.25084 26.0629719,278.868425 22.4070007,279.477031 C21.1412333,279.686551 19.8692535,279.912034 18.7168616,280.214342 C17.0177823,280.663313 15.4320786,281.189109 13.8122069,281.684973 C13.1412725,281.890502 12.5060592,282.099025 11.2589288,282.502101 C15.4320786,283.503806 18.7898567,284.384788 22.2951783,285.13906 C29.5310193,286.707467 36.8383024,288.219005 44.1471386,289.729544 C47.0591803,290.330169 50.1451678,290.774151 52.9686834,291.437632 C56.4941951,292.268728 59.7743188,293.299367 63.2641095,294.159397 C68.3722188,295.426494 73.6138937,296.589829 78.7499586,297.840963 C82.2257715,298.696004 85.5835496,299.664785 89.068681,300.522819 C93.8615133,301.705111 98.6155183,302.928309 103.572978,303.95795 C106.688474,304.604469 109.196713,306.272647 113.459942,305.374704 L113.922762,305.387675 C116.121936,305.892518 118.314897,306.396364 120.479903,306.924155 C121.421075,307.156622 122.576573,307.356165 123.191596,307.718336 C125.615968,309.129104 124.244591,311.449788 119.256069,311.571509 C117.507291,311.618401 115.767832,312.447502 114.220955,313.027174 C113.195917,313.407303 112.545172,313.980989 111.666124,314.448917 C110.957915,314.833037 110.064889,315.153304 109.428123,315.555382 C105.560932,318.041687 101.75897,320.549941 97.8871196,323.03425 C97.2068667,323.478233 96.2268676,323.833419 95.604079,324.289375 C93.5804042,325.762001 91.6297246,327.245602 89.7396154,328.751153 C86.972011,330.959095 81.6666595,332.264106 79.456614,334.719481 C78.2793727,336.039457 75.6406747,337.079076 74.1730057,338.368123 C71.4209322,340.792569 65.7397332,342.100573 62.852541,344.454181 L62.43476,344.531005 C60.4095322,345.813068 57.5471894,346.819762 56.4413901,348.399144 C56.1556218,348.812197 55.2734673,349.148427 54.6863997,349.526561 C53.8089045,350.083286 52.996639,350.655974 52.0834228,351.201724 C51.3286216,351.65269 50.5241215,352.09368 49.6699227,352.502743 C48.7007952,352.952712 47.4490056,353.31189 46.6491648,353.810747 C45.1380093,354.759573 43.9297062,355.803182 42.4434002,356.764979 C40.9493287,357.725778 38.7253054,358.53692 37.8291731,359.582525 C36.4841982,361.157916 33.4665465,362.154633 31.8218254,363.599323 C31.4320001,363.940541 30.6694335,364.3516 29.9037607,364.429421 C26.7913706,364.750685 25.6700404,366.019778 23.9274747,366.910737 C20.5168915,368.653744 17.5800005,370.572349 14.4629511,372.420116 C14.0296394,372.681517 13.6087523,372.945912 12.8508449,373.418828 M775.645782,273.554598 C772.228987,274.022526 768.78113,274.437575 765.426458,274.970355 C760.021708,275.839364 754.80333,276.907916 749.025839,277.308 C745.997316,277.514527 743.170694,278.179005 740.188763,278.546163 C733.696852,279.34633 727.173879,280.065682 720.666436,280.849886 C716.442035,281.359718 712.264226,281.920434 708.055355,282.455209 C703.520335,283.041865 699.031909,283.682397 694.434765,284.181255 C692.05854,284.439663 689.480412,284.349868 687.073124,284.582336 C683.594205,284.915572 680.192941,285.3835 676.791676,285.834467 C671.526705,286.525883 666.55682,287.558518 661.012293,287.866812 C657.393596,288.074336 653.899146,288.869515 650.280449,289.004206 C647.469358,289.111959 645.621182,290.074754 643.198364,290.174525 C639.28458,290.336155 636.457958,291.784836 632.29568,291.69604 C630.136886,291.647152 627.884908,292.226824 625.695052,292.552079 C618.566374,293.600676 611.515351,294.784963 604.293488,295.664948 C601.109656,296.049068 597.8637,296.251604 594.850707,296.905107 C592.707445,297.370042 590.548651,297.81602 588.327734,298.16522 C585.935977,298.542356 583.419973,298.757862 581.028216,299.128014 C578.46562,299.531091 575.996209,300.088813 573.40255,300.490892 C570.374027,300.961813 567.236787,301.349924 564.161671,301.767967 C562.049471,302.054311 559.952801,302.35163 557.809538,302.595072 C556.365165,302.76169 554.843138,302.789626 553.398766,302.977197 C551.472935,303.230616 549.64029,303.653647 547.698929,303.877135 C542.930947,304.422885 538.085309,304.846913 533.317327,305.41162 C528.502751,305.977324 523.734768,306.626836 518.997847,307.285328 C510.983909,308.392791 503.016563,309.545151 495.018155,310.663589 C491.834323,311.106574 488.619429,311.507655 485.404535,311.91572 C479.19218,312.699924 472.979824,313.465171 466.782999,314.250372 C461.362719,314.938795 456.020094,315.794834 450.506628,316.262762 C448.642922,316.418405 446.748153,316.433371 444.853385,316.735679 C441.125971,317.341291 437.289842,317.827178 433.453712,318.342997 C430.953239,318.676233 428.437235,318.960582 425.936762,319.297809 C423.234388,319.65998 420.578606,320.087999 417.845169,320.436201 C416.447389,320.614792 414.925362,320.624769 413.527582,320.809347 C410.918393,321.159544 408.371327,321.616498 405.746607,321.970686 C402.205564,322.45358 398.586867,322.874615 395.014763,323.342544 C393.04234,323.598956 391.100979,323.899268 389.144087,324.171644 C385.556452,324.674492 381.968816,325.154393 378.396712,325.66223 C375.616683,326.057325 372.867716,326.489335 370.087687,326.880439 C368.317165,327.125877 366.531113,327.32542 364.760592,327.562876 C363.844269,327.689585 362.927947,327.86219 361.996094,328.006859 C358.470582,328.564581 354.94507,329.136271 351.388497,329.671046 C348.965678,330.037207 346.480736,330.345501 344.026855,330.703681 C340.454751,331.221494 336.94477,331.961798 333.310542,332.235172 C329.753969,332.503557 326.492482,333.010396 323.184403,333.586078 C319.96485,334.155773 316.645899,334.614721 313.317629,335.021789 C308.855605,335.572527 304.421536,336.14322 300.029401,336.814681 C296.640561,337.340477 292.975271,337.511086 289.479268,337.943096 C287.241267,338.219463 285.143044,338.724307 282.934552,339.060537 C280.101718,339.487558 277.23161,339.859706 274.358395,340.229858 C269.228543,340.89234 264.062969,341.497953 258.971944,342.205333 C254.422946,342.840877 250.294836,343.933374 245.309421,344.167837 C242.041722,344.321485 238.982137,345.34514 235.767243,345.909846 C232.991873,346.397729 230.138849,346.815771 227.285825,347.201886 C222.402913,347.869357 217.487387,348.494924 212.574967,349.1165 C207.976271,349.69717 203.369809,350.26487 198.746264,350.804633 C194.130484,351.346392 189.443261,351.773414 184.853884,352.372043 C180.017565,353.009582 175.3086,353.838683 170.470728,354.49917 C163.672858,355.426046 156.80044,356.254149 149.987039,357.163067 C143.870975,357.980195 137.775101,358.828253 131.693205,359.704246 C127.38649,360.323827 123.134132,361.04717 118.799461,361.650787 C116.740065,361.936133 114.537785,362.021937 112.441115,362.268372 C111.501497,362.378121 110.701656,362.707366 109.766696,362.864007 C104.032692,363.838774 98.2816042,364.797578 92.5274099,365.741416 C89.8809465,366.179413 87.1863373,366.563533 84.5196837,366.997538 C81.396422,367.506373 78.3073283,368.060104 75.1669826,368.553973 C73.2737672,368.847301 71.3060037,369.03088 69.4081291,369.309243 C65.5549156,369.869958 61.7312108,370.451626 57.8919751,371.037284 C54.1599026,371.603986 50.5443117,372.39218 46.7268193,372.70646 C42.8270131,373.027724 39.6074599,373.996505 35.9080022,374.444479 C34.7245485,374.592141 33.474312,374.650008 32.3094953,374.82361 C26.7339063,375.667677 21.1412333,376.507752 15.6106838,377.413677 C14.0544888,377.671087 12.467232,378.044233 11.2760128,378.541094 C9.67011891,379.200584 8.31116615,379.072876 6.74409948,378.637873 C6.37135815,378.530119 5.85883883,378.525131 5.43639866,378.435337 C3.25741498,377.963418 1.08309056,377.510455 1.44496027,376.135605 C1.50553074,375.927083 0.957290365,375.643732 0.55348726,375.454166 C-0.286733816,375.063062 0.0161185125,374.795674 0.258400376,374.263893 C1.04115716,372.504922 4.95494111,372.199621 6.85592188,370.988396 C8.91842389,369.661436 11.4235562,368.464179 13.8013353,367.22801 C16.0471018,366.051705 18.4155623,364.918301 20.6535634,363.735012 C23.3792343,362.289324 26.0256978,360.814702 28.6814797,359.34008 C30.9862636,358.04804 33.3158969,356.757995 35.5181769,355.424051 C39.4117707,353.05847 43.1888828,350.649987 47.088689,348.280416 C48.6231408,347.343562 50.3765781,346.47555 51.9716004,345.559648 C54.5326439,344.093008 57.0548602,342.6124 59.5817358,341.134785 C61.7312108,339.870681 63.9241723,338.60957 66.0255015,337.32152 C69.0431532,335.456792 71.9520886,333.545171 75.0085675,331.689422 C76.817916,330.593932 79.0108775,329.62116 80.714616,328.498732 C83.4371808,326.705839 85.7699203,324.798209 88.5111221,323.010305 C90.8050344,321.512735 93.4685818,320.127908 95.9302276,318.682219 C96.5002112,318.343994 96.9009082,317.951892 97.4134275,317.584734 C100.163948,315.642184 102.793327,313.654736 105.758174,311.767061 C107.957348,310.361281 107.806698,309.562112 104.433389,308.751968 C100.02417,307.701374 95.5233183,306.728603 91.1591386,305.651071 C89.0795526,305.144232 87.2593325,304.414903 85.1719811,303.902078 C82.095312,303.146808 78.7779142,302.575118 75.7354131,301.767967 C72.5484747,300.916916 69.6395393,299.851357 66.5069591,298.949423 C65.5083229,298.666073 64.1276269,298.661084 63.0373585,298.426621 C60.6145399,297.904816 58.2849066,297.295213 55.8605349,296.767422 C53.3973359,296.226661 50.4713165,295.935328 48.4662788,295.168086 C44.9345547,293.821171 40.606096,293.240502 36.6705688,292.301652 C33.7818236,291.616222 30.6492433,291.101402 27.5182162,290.67438 C21.5139746,289.859247 16.4959445,288.237961 11.1455533,286.889051 C8.00520764,286.096866 5.03259555,285.174978 1.95126724,284.333905 C-0.305370883,283.70734 -0.732470321,281.422574 1.44496027,280.776055 C3.02600474,280.315111 3.83827021,279.652629 3.78235901,278.917313 C3.70470457,278.078235 5.03259555,277.742006 6.09024907,277.757969 C10.0630504,277.807855 12.9378179,276.598625 16.4400333,276.123713 C21.0573665,275.493157 25.5116253,274.647095 30.0342201,273.880851 C32.9881951,273.377005 35.9670196,272.971933 39.136874,272.709534 C42.5241608,272.435163 45.6614003,271.557174 48.960161,271.030381 C53.4920744,270.313024 58.081452,269.648546 62.6770419,269.017991 C64.286042,268.798493 66.0705411,268.818448 67.6515855,268.579994 C72.8715172,267.801777 78.0293254,266.945738 83.2228545,266.136591 C84.0910312,266.000902 85.0011413,265.929067 85.9174637,265.842266 C90.6015797,265.404269 95.3167575,265.040103 99.9403031,264.517301 C104.433389,264.00248 108.834843,263.315055 113.290655,262.728399 C113.961589,262.638605 114.724156,262.624637 115.39509,262.683502 C119.228114,263.017736 122.615401,262.747355 125.970072,261.748643 C128.004619,261.145026 130.744268,261.027296 133.09875,260.611249 C138.147842,259.706322 143.125492,258.722575 148.196327,257.8386 C150.033631,257.512348 152.021585,257.343734 153.978477,257.168136 C155.859268,256.991541 157.780439,256.892767 159.70161,256.777032 C162.3869,256.622387 164.850099,256.144481 166.907942,255.420141 C169.352504,254.566097 171.9151,254.103158 175.010407,254.174993 C175.758995,254.191954 176.502925,254.04529 177.248408,254.035313 C183.174995,253.954498 188.954038,253.786882 194.130484,252.180562 C195.060784,251.89322 196.497391,251.925147 197.932445,251.957074 C198.570765,251.971042 199.207531,251.98501 199.800811,251.971042 C199.991841,251.966053 200.198402,251.979024 200.401856,251.991994 C200.741983,252.012946 201.071238,252.033898 201.301095,251.973037 C207.42803,250.393655 214.317533,250.015522 221.02843,249.339071 C223.118887,249.126558 225.075779,248.669605 227.118091,248.361311 C230.798912,247.804586 234.603979,247.378562 238.180743,246.720071 C242.041722,246.009698 245.8266,245.399097 249.968688,244.994025 C254.609317,244.532083 258.959519,243.430606 263.413778,242.592526 C266.93463,241.928048 270.387147,241.17677 273.985654,240.588118 C276.223655,240.220959 278.700832,240.141142 281.014934,239.846816 C286.289224,239.166375 291.552642,238.431059 296.826932,237.709712 C301.396119,237.089133 305.965307,236.468555 310.514304,235.836004 C314.339562,235.30522 318.135311,234.762463 321.940379,234.212723 C326.958409,233.491375 331.86617,232.574476 337.006894,232.086593 C341.743815,231.637622 345.642068,230.413426 350.099433,229.726999 C354.867416,228.994676 359.557744,228.138637 364.341258,227.435249 C367.121287,227.03317 370.041094,226.853581 372.867716,226.507374 C374.063594,226.365699 375.150756,226.044435 376.300042,225.818951 C377.045525,225.669294 377.822069,225.481724 378.614145,225.419866 C382.993855,225.091617 386.829985,224.237574 390.712707,223.297727 C393.710168,222.572389 397.142495,222.199243 400.403981,221.718345 C405.203026,221.003981 410.095256,220.390387 414.863239,219.632124 C420.438828,218.747151 425.859108,217.692567 431.434697,216.833535 C436.653075,216.030375 441.933578,215.284085 447.276203,214.689447 C457.309157,213.571009 467.373173,212.517423 477.483782,211.55363 C483.307865,211.002892 489.256195,210.708566 495.11134,210.237645 C499.832731,209.863502 504.53859,209.446458 509.197856,208.957577 C513.313542,208.524569 517.273919,207.77329 521.420666,207.500914 C529.077394,207.008043 536.112886,205.668113 543.381342,204.65244 C550.758514,203.621801 558.058032,202.493386 565.35755,201.368962 C568.820938,200.839175 572.113486,199.975154 575.654529,199.682824 C581.152464,199.237844 586.091286,198.160312 591.325196,197.470891 C595.782561,196.891219 600.783507,196.654761 604.479858,195.55927 C609.201249,194.157482 614.559405,194.285189 619.451635,193.457086 C625.757176,192.386539 632.12484,191.379845 638.539097,190.465938 C643.83513,189.715657 649.270941,189.155939 654.598036,188.482482 C657.067447,188.166206 659.459204,187.738187 661.913085,187.429893 C666.168548,186.905095 670.486135,186.467099 674.710537,185.930328 C676.822738,185.660946 678.841753,185.209979 680.938423,184.910664 C686.840161,184.072584 692.726368,183.241488 698.659167,182.461275 C703.520335,181.81775 708.428096,181.261025 713.289264,180.63446 C714.298772,180.504757 715.184033,180.159548 716.193541,180.02785 C719.051224,179.641734 722.064216,179.417249 724.859776,178.954309 C729.565636,178.172101 734.582113,177.93664 739.225848,176.908995 C743.388127,175.984113 748.311418,175.747655 752.830907,175.120093 C754.80333,174.846719 756.573851,174.313939 758.515212,173.97771 C760.984623,173.553681 763.54722,173.225433 766.047693,172.82934 C767.259102,172.636781 768.486043,172.433248 769.604267,172.138922 C773.191902,171.202068 776.65529,170.186395 780.273987,169.2675 C781.640705,168.919297 783.193794,168.851453 784.560512,169.427134 C785.57002,169.854156 786.936738,170.160454 787.728814,170.649334 C788.629605,171.200073 789.40615,171.865548 789.701237,172.530026 C790.493312,174.365821 791.223264,176.221569 791.549412,178.084302 C791.782376,179.372352 791.316449,180.683348 791.145609,181.985366 C791.067955,182.575015 790.881584,183.158678 790.819461,183.752318 C790.679683,185.121182 790.493312,186.492042 790.493312,187.861904 C790.477781,189.088095 790.741806,190.31229 790.788399,191.538481 C790.834991,192.844489 790.772868,194.157482 790.741806,195.468478 C790.726275,197.064821 790.695213,198.66316 790.679683,200.261499 C790.664152,200.506936 790.881584,200.819221 790.63309,200.982846 C788.19474,202.496379 789.530397,204.197482 789.328495,205.816772 C789.173186,207.156703 789.297433,208.505613 789.281903,209.849534 C789.281903,210.452154 789.328495,211.054773 789.281903,211.657393 C789.157655,213.440308 788.815976,215.22522 788.878099,217.009133 C788.909161,218.282217 789.561459,219.547318 789.701237,220.825391 C789.841015,221.997705 789.561459,223.183987 789.623582,224.360293 C789.701237,225.311115 790.058447,226.250962 790.213756,227.199788 C790.306941,227.764494 790.213756,228.336185 790.275879,228.8969 C790.369065,229.989398 790.63309,231.081895 790.617559,232.171399 C790.586497,233.79069 790.260349,235.408982 790.275879,237.02528 C790.29141,238.519856 790.63309,240.009444 790.726275,241.50402 C790.788399,242.742183 790.866053,243.993317 790.555435,245.225495 C790.151632,246.946552 789.623582,248.624708 791.456227,250.282909 C791.968746,250.756823 791.456227,251.43926 791.627067,252.013944 C791.86003,252.808124 792.372549,253.59133 792.543389,254.386509 C792.667636,255.028039 792.419142,255.680544 792.403611,256.330056 C792.403611,256.771046 792.496797,257.214031 792.636575,257.655021 C792.993785,258.855271 791.86003,260.02559 792.55892,261.252779 C793.242279,262.421103 793.475242,263.647294 793.879046,264.844551 C794.205194,265.789387 794.608997,266.734222 794.686652,267.686042 C794.717714,267.953429 793.273341,268.266712 793.335464,268.522127 C793.397588,268.814457 794.717714,269.025972 794.904084,269.34125 C795.509789,270.299056 793.133563,271.72479 790.959239,271.974218 C787.790937,272.341377 784.653698,272.795337 781.485396,273.177462 C779.590628,273.405939 777.664798,273.566571 775.754499,273.758132 L775.645782,273.554598" id="Fill-20"></path>
                    <path d="M349.232783,200.063671 C351.479217,200.245457 353.269196,200.427244 355.074264,200.531558 C357.956338,200.698094 360.855388,200.791427 363.735576,200.959183 C366.860966,201.14341 369.969381,201.418529 373.099487,201.575915 C376.6106,201.753431 380.142461,201.876046 383.665834,201.966329 C388.022896,202.085283 392.388446,202.143845 396.73985,202.238399 C397.943229,202.26402 399.131518,202.322582 400.32641,202.361623 C401.42322,202.397615 402.528518,202.397615 403.615897,202.464107 C405.177649,202.56049 406.98932,202.992386 408.235138,202.768508 C409.648825,202.509859 411.000269,202.582451 412.34794,202.654434 C413.276881,202.704456 414.203935,202.753867 415.147966,202.695915 C417.553781,202.55012 420.067108,202.81548 422.53328,202.876482 C424.822152,202.935654 427.110082,202.955175 429.397068,203.005806 C430.550463,203.031427 431.701029,203.123541 432.848766,203.123541 C434.7472,203.123541 436.773894,202.875872 438.521435,203.091819 C440.676389,203.357179 442.820025,203.330338 444.956117,203.304717 C446.233057,203.288857 447.508111,203.272996 448.781279,203.319968 C449.596106,203.349859 450.398673,203.316308 451.206898,203.283366 C452.425367,203.233345 453.655152,203.183323 454.950954,203.349859 C457.244542,203.645109 459.763527,203.583497 462.195749,203.65243 C464.41106,203.713432 466.716908,203.600578 468.83791,203.826896 C470.888182,204.047724 472.871494,204.072735 474.931196,204.057484 C477.072946,204.041014 479.214697,204.160578 481.359277,204.163628 C483.210557,204.166068 485.069381,204.072735 486.917832,204.051384 C487.229994,204.048334 487.547814,204.077005 487.862805,204.106286 C488.255129,204.142277 488.642738,204.178268 489.011485,204.152038 C491.191903,203.990382 493.386466,203.836046 495.488607,203.554826 C499.097801,203.072909 502.63815,202.502538 506.211507,201.960839 C508.28064,201.647898 510.353545,201.332516 512.418906,201.003104 C514.654022,200.646242 516.879707,200.263758 519.114823,199.903845 C520.293682,199.715958 521.642297,199.661666 522.613676,199.356655 C525.405214,198.483104 528.706019,198.250686 531.75219,197.709596 C533.176251,197.454607 534.694621,197.299051 536.118683,197.042842 C536.882583,196.904977 537.49559,196.509683 538.250059,196.466982 C541.032166,196.296785 543.361591,195.58733 546.021097,195.275609 C546.822721,195.179225 547.690361,195.160925 548.473123,195.03953 C550.642223,194.708288 552.867908,194.48319 554.980423,194.028114 C557.102369,193.568157 559.573257,193.439443 561.883821,193.144192 C563.685117,192.913604 565.44869,192.629944 567.259417,192.406066 C569.117298,192.174867 571.022334,192.008331 572.880215,191.767983 C574.643788,191.541055 576.360207,191.225673 578.13321,191.004845 C581.839542,190.540619 585.649614,190.30881 589.374808,189.844584 C592.364394,189.4743 595.58032,189.377307 598.598199,188.936871 C599.25836,188.842318 600.126,188.922231 600.654129,188.758135 C602.851521,188.0682 605.473303,187.977307 607.915899,187.628374 C610.000121,187.327633 612.169221,187.139747 614.281736,186.870117 C616.997827,186.526065 619.695056,186.144191 622.411147,185.783668 C623.740899,185.607372 625.080083,185.432295 626.428697,185.27735 C627.418939,185.160226 628.446904,185.099223 629.437145,184.972339 C631.11584,184.753951 632.766242,184.488591 634.454368,184.270814 C636.661192,183.986543 638.905739,183.757785 641.093701,183.453384 C644.253042,183.018439 647.384091,182.542622 650.51514,182.075955 C653.174646,181.679441 655.862444,181.300007 658.474795,180.854081 C660.040319,180.592382 661.445519,180.109244 663.039336,179.925018 C665.632825,179.627327 668.264038,179.380268 670.782081,178.949593 C671.64029,178.802577 672.611669,178.772686 673.48874,178.649462 C675.638979,178.354821 677.751494,178.001619 679.911163,177.740529 C682.014247,177.48188 683.928714,176.989592 686.258139,176.978002 C687.776509,176.968241 689.464635,176.715082 690.766095,176.352119 C692.576822,175.850681 694.632752,175.833601 696.509495,175.496259 C697.528029,175.310202 698.688026,175.27116 699.763145,175.140006 C700.79111,175.016171 701.800213,174.827065 702.837609,174.719091 C704.346548,174.564145 705.902642,174.487282 707.411581,174.320746 C710.344582,173.995605 713.258721,173.639962 716.17286,173.280049 C717.728953,173.087282 719.417079,173.089112 720.775124,172.586454 C721.340977,172.378437 722.095446,172.174079 722.7839,172.152728 C727.272994,172.005713 731.299976,171.160833 735.534436,170.617303 C737.373456,170.380615 739.221907,170.162837 741.060926,169.919438 C743.201734,169.633948 745.342542,169.330157 747.483349,169.028806 C749.614726,168.728676 751.71781,168.398654 753.868048,168.121704 C755.263817,167.941747 756.735033,167.886235 758.102509,167.680658 C759.281368,167.504362 760.365918,167.19447 761.629655,166.91264 C761.026079,166.91264 760.535674,166.930941 760.045269,166.90837 C758.555191,166.845538 757.074544,166.727194 755.575036,166.702183 C752.057321,166.63874 748.511314,166.678392 744.993599,166.556998 C740.674261,166.411202 736.383215,166.162313 732.092169,165.931725 C728.546162,165.740178 725.019016,165.475429 721.48244,165.302182 C718.379683,165.149067 715.258065,165.081355 712.155309,164.96179 C710.86328,164.913599 709.57125,164.801965 708.279221,164.762313 C705.978089,164.693991 703.686387,164.67569 701.394686,164.605537 C699.065261,164.531725 696.773559,164.427411 694.462996,164.322487 C692.6617,164.238914 690.82268,164.211463 689.068538,164.016866 C687.493583,163.83813 686.022367,163.611202 684.353103,163.807629 C683.523186,163.903402 682.58953,163.874731 681.712459,163.84118 C677.855233,163.683184 673.998007,163.513598 670.140781,163.329982 C668.018836,163.228108 665.915751,163.093903 663.812667,162.966409 C662.511207,162.884056 661.228609,162.754121 659.927149,162.704099 C658.144714,162.634557 656.343418,162.673598 654.579845,162.565014 C651.844893,162.395428 649.138233,162.109938 646.39385,161.939132 C643.932393,161.784186 641.442643,161.675602 638.952893,161.6146 C636.20851,161.543838 633.454696,161.553598 630.700882,161.520047 C629.305113,161.505406 627.890482,161.520657 626.513575,161.436474 C624.919758,161.33887 623.486266,161.003358 621.6944,161.177214 C619.779934,161.360221 617.950345,161.545668 616.186772,161.942792 C614.272305,162.375297 612.26353,162.73033 610.254755,163.064012 C607.981915,163.437346 605.65249,163.720396 603.37965,164.093729 C601.059656,164.475603 599.04145,165.105145 596.306497,165.084405 C594.505201,165.068544 592.694474,165.648675 590.874316,165.946976 C589.28993,166.206845 587.705544,166.505756 586.055141,166.678392 C583.131571,166.983403 580.132555,167.140178 577.227847,167.480571 C571.918267,168.102793 566.636979,168.778087 561.374554,169.495473 C558.639601,169.868806 556.008388,170.405626 553.292298,170.81556 C550.368728,171.258436 547.379142,171.62628 544.43671,172.051465 C542.295903,172.359526 540.192819,172.706628 538.070873,173.03299 C536.184699,173.327021 534.289094,173.611901 532.40292,173.912032 C530.262112,174.253034 528.140166,174.618437 525.999359,174.951509 C524.858224,175.128415 523.669934,175.238219 522.538229,175.412686 C521.397094,175.586542 520.321975,175.847631 519.161978,175.993426 C516.898569,176.272816 514.588006,176.482054 512.315166,176.749854 C511.051429,176.898699 509.853709,177.177479 508.57111,177.278133 C505.660744,177.512991 503.057824,178.160224 500.105018,178.415213 C496.821189,178.703144 493.686368,179.347937 490.470441,179.817654 C487.683619,180.226368 484.921317,180.711336 482.071308,180.963275 C480.286044,181.120661 478.888389,181.704451 476.863581,181.633689 C475.639454,181.589767 474.358742,182.126587 473.055396,182.344364 C468.199441,183.156914 463.333111,183.962753 458.451693,184.73626 C455.812935,185.155345 453.105333,185.495128 450.444884,185.890422 C448.10037,186.241794 445.791693,186.649899 443.430203,186.979311 C439.836098,187.475869 436.213701,187.937045 432.600734,188.396392 C430.075147,188.714823 427.56182,189.022274 425.021144,189.308375 C423.156661,189.517612 421.176178,189.574954 419.42015,189.893386 C415.661005,190.57661 411.789633,191.053647 407.885252,191.508724 C404.952252,191.853386 402.097527,192.323103 399.187161,192.723887 C398.21861,192.856872 397.213279,192.937395 396.23907,193.062449 C394.613188,193.269247 392.980705,193.472384 391.386888,193.709683 C389.518632,193.987853 387.706962,194.336175 385.833991,194.595434 C383.613021,194.902885 381.331694,195.121883 379.110724,195.428114 C376.179609,195.837439 373.263584,196.277265 370.376795,196.742711 C368.627368,197.020881 366.984511,197.422886 365.22471,197.683975 C361.499516,198.239705 357.736599,198.730163 353.999145,199.270642 C352.509068,199.48537 351.067088,199.75561 349.232783,200.063671 M676.921577,161.498696 C677.487429,160.914905 678.836044,161.247367 679.939456,161.293119 C681.9388,161.375471 683.947576,161.528587 685.918628,161.674992 C686.465618,161.714034 687.022039,161.800047 687.503014,161.915951 C689.474066,162.395428 691.709182,162.259393 693.680234,162.18009 C696.13226,162.085537 698.244775,162.574165 700.451599,162.590635 C702.262326,162.604056 704.120207,163.114644 706.053536,162.610766 C706.657111,162.45582 707.826539,162.766321 708.750765,162.826104 C710.297427,162.926147 711.834659,163.01155 713.400184,163.069502 C715.060017,163.134165 716.729281,163.173206 718.398545,163.193947 C718.653179,163.196997 718.926674,163.167716 719.181307,163.138435 C719.483095,163.105494 719.775452,163.071942 720.058378,163.085363 C721.548456,163.159786 723.029102,163.28911 724.509749,163.394034 C724.943569,163.423925 725.38682,163.442836 725.830071,163.464797 C728.338682,163.586801 730.847294,163.713685 733.365336,163.825929 C733.770864,163.8424 734.204684,163.783838 734.610211,163.781398 C735.213787,163.781398 735.836224,163.761877 736.411507,163.819219 C738.410852,164.011376 740.391335,164.191333 742.494419,164.134601 C744.220268,164.087019 745.97441,164.293816 747.719121,164.335908 C749.643019,164.378609 751.585778,164.344448 753.509675,164.374949 C755.744792,164.412161 757.970477,164.479263 760.196162,164.536605 C761.412745,164.564056 762.638758,164.615908 763.85534,164.620788 C766.788341,164.634209 769.740203,164.6885 772.654342,164.601877 C774.427346,164.551246 775.502465,165.128936 776.992543,165.289372 C777.115144,165.305233 777.18116,165.458958 777.247176,165.551071 C777.520671,165.901224 777.926199,166.250157 777.992215,166.6119 C778.077093,167.131638 777.464086,167.562924 776.341813,167.712989 C772.974992,168.158915 769.627033,168.658523 766.184765,168.933033 C764.798427,169.047107 763.63843,169.218523 762.384124,169.482663 C761.03551,169.766323 759.394538,169.739482 757.942184,169.936519 C756.05601,170.189678 754.245283,170.53556 752.387402,170.833251 C750.991633,171.055299 749.54871,171.229155 748.171803,171.482924 C746.125304,171.863578 744.041082,172.088066 741.796534,172.174079 C740.136701,172.239962 738.571177,172.710899 736.930205,172.946977 C735.553298,173.142184 734.129237,173.262358 732.724037,173.411814 C732.658021,173.418524 732.592005,173.417304 732.525989,173.415474 C732.43168,173.413034 732.346802,173.410594 732.290217,173.428284 C729.602419,174.174341 726.386492,174.004145 723.538369,174.458001 C722.755607,174.581836 722.086015,174.839265 721.293822,174.948459 C719.822606,175.155256 718.285375,175.283971 716.785866,175.476738 C715.399528,175.650594 714.060345,175.899483 712.664576,176.057479 C711.62718,176.173383 710.495476,176.143492 709.467511,176.281357 C707.694507,176.520485 706.006381,176.895649 704.223947,177.114647 C701.87566,177.398307 699.470788,177.594124 697.084778,177.804581 C695.811611,177.919266 694.312102,177.838133 693.246414,178.108372 C691.888368,178.451815 690.464307,178.5909 689.040246,178.790987 C686.993747,179.077087 684.97554,179.411379 682.929042,179.70297 C679.345311,180.215388 675.752149,180.733297 672.130695,181.204234 C670.753788,181.38602 669.244849,181.38602 667.858511,181.572687 C666.472173,181.759963 665.180144,182.093035 663.812667,182.329724 C661.256902,182.77443 658.691705,183.214256 656.098215,183.61809 C652.344729,184.204321 648.56295,184.760661 644.620846,185.066892 C643.14963,185.182186 641.772723,185.532949 640.339231,185.762317 C637.755173,186.175302 635.189976,186.618788 632.558763,186.975041 C629.955843,187.327633 627.286906,187.587503 624.646263,187.886413 C624.419922,187.912034 624.174719,187.910204 623.957809,187.952296 C620.487249,188.593429 616.837502,188.920401 613.216048,189.325455 C610.367925,189.643887 607.60468,190.097743 604.78485,190.452776 C603.351358,190.631512 601.851849,190.707765 600.399495,190.86576 C598.815109,191.040837 597.249584,191.256784 595.674629,191.452602 C593.703577,191.69905 591.732525,191.976 589.742612,192.185848 C587.865868,192.381665 585.93254,192.457308 584.084089,192.681796 C581.754664,192.964236 579.510117,193.338179 577.020367,193.35953 C575.813216,193.36868 574.66265,193.818266 573.417775,193.964672 C569.117298,194.46916 564.779098,194.898615 560.488052,195.418354 C559.318624,195.558049 558.309521,195.992385 557.130662,196.14428 C555.37652,196.369378 553.471484,196.392559 551.717342,196.633518 C549.595396,196.922668 547.567759,197.355784 545.502399,197.714476 C543.955736,197.982276 542.625983,198.575827 540.739809,198.36842 C540.6455,198.355609 540.485176,198.403191 540.362574,198.429422 C538.514124,198.826546 536.656242,199.228551 534.78893,199.611034 C534.581451,199.651906 534.336248,199.650076 534.081615,199.648856 C533.987306,199.648246 533.883566,199.647636 533.789258,199.649466 C533.666656,199.651296 533.525193,199.645806 533.393161,199.640316 C533.129097,199.629335 532.855602,199.618965 532.657553,199.664716 C530.752517,200.068551 528.913498,200.527287 526.999031,200.911601 C525.593831,201.193431 524.122616,201.395959 522.6514,201.611906 C521.736605,201.745501 520.755795,201.805893 519.850431,201.955349 C517.935965,202.26524 516.021498,202.595872 514.154186,202.948464 C512.211426,203.316918 510.315821,203.751253 508.3542,204.108726 C505.90406,204.555872 503.458636,205.06463 500.897211,205.3306 C499.563686,205.469685 498.368795,205.629511 497.308765,205.985153 C496.687271,206.196221 496.235532,206.520143 495.59329,206.72023 C495.102884,206.875175 494.410659,207.0167 493.833489,206.9984 C490.75431,206.905676 487.683619,206.74036 484.608212,206.642757 C484.145156,206.628116 483.67267,206.662888 483.201126,206.697049 C482.677713,206.73487 482.156186,206.773302 481.651634,206.744631 C477.740652,206.520143 473.785345,206.756221 469.884737,206.498792 C467.521361,206.342016 465.163643,206.135219 462.774804,206.040665 C460.003071,205.929031 457.203989,205.910731 454.413394,205.855829 C453.524063,205.836918 452.642277,205.833868 451.752946,205.808247 C447.94476,205.700273 444.138461,205.554478 440.330276,205.478835 C438.377142,205.438574 436.419294,205.441014 434.460502,205.442844 C433.607008,205.443454 432.753514,205.444064 431.899077,205.441624 L431.76233,205.445284 C430.847535,205.148203 429.890302,205.222016 428.931183,205.295219 C428.358729,205.33914 427.784389,205.383062 427.218537,205.34768 C425.07207,205.217746 422.895426,205.151863 420.728212,205.090861 C419.008964,205.040839 417.281228,205.04755 415.565753,205.011558 C413.238214,204.957876 410.916334,204.870643 408.591624,204.824282 C405.719924,204.76511 402.844452,204.7645 399.98124,204.682147 C396.968077,204.594913 393.962458,204.423497 390.938921,204.333824 C390.277817,204.315523 389.610112,204.342974 388.94052,204.371035 C388.387871,204.394216 387.833336,204.417397 387.282573,204.414347 C386.562997,204.410077 385.849081,204.249641 385.123847,204.236221 C382.883072,204.195959 380.641354,204.21792 378.411896,204.163628 C376.853916,204.127027 375.317628,203.990382 373.767193,203.924499 C372.252595,203.858617 370.716306,203.856177 369.212082,203.770774 C367.072218,203.647549 364.947443,203.471863 362.820781,203.319968 C362.253043,203.279706 361.698508,203.210164 361.136428,203.213214 C360.021699,203.216874 358.933377,203.140621 357.838453,203.064368 C356.428537,202.965545 355.008248,202.867331 353.512512,202.939314 C351.264193,203.049728 348.869695,202.595872 346.535554,202.393344 C346.356368,202.375044 346.15832,202.368334 345.970645,202.364673 C342.120021,202.27744 338.27034,202.206678 334.426317,202.093824 C333.521896,202.065153 332.574094,201.940098 331.748893,201.757092 C331.331105,201.663148 331.136829,201.353867 330.876537,201.134869 C330.786944,201.064717 330.882196,200.915871 330.780342,200.88903 C329.421354,200.545588 330.146588,200.193605 330.650196,199.790991 C331.211333,199.343235 331.975234,199.403017 332.937182,199.356655 C335.678736,199.223671 338.369364,198.896089 341.101487,198.730163 C343.433741,198.587418 345.436858,198.069509 347.623877,197.762668 C351.246274,197.25635 354.858298,196.751862 358.470321,196.238223 C360.51682,195.944803 362.55766,195.647112 364.584354,195.330511 C366.5903,195.01818 368.56984,194.672297 370.575786,194.364236 C371.367036,194.242232 372.20544,194.111687 373.020268,194.112907 C375.013011,194.121447 376.643608,193.794476 378.315701,193.330249 C379.559633,192.983146 381.144019,192.882493 382.576569,192.668985 C383.359331,192.551861 384.118516,192.384105 384.926741,192.311512 C387.615483,192.069334 390.331573,191.913778 392.993908,191.616087 C394.444376,191.452602 395.762812,191.070728 397.149149,190.798048 C398.598674,190.511948 400.012362,190.158745 401.525073,189.978179 C403.059476,189.796392 404.691016,189.786632 406.276346,189.696348 C406.502687,189.684148 406.831824,189.681098 406.931791,189.616436 C408.053122,188.922231 409.942125,188.966762 411.473698,188.672122 C413.103353,188.35918 414.801853,188.100531 416.510726,187.893124 C417.619797,187.758309 418.797712,187.758309 419.94262,187.696697 C420.067108,187.689986 420.203855,187.669856 420.334001,187.652165 C422.697377,187.320923 425.07207,187.001272 427.425073,186.655999 C428.270079,186.534605 429.033979,186.306457 429.895961,186.214953 C432.426263,185.932513 435.012208,185.726936 437.526478,185.424365 C438.60254,185.29504 439.588066,185.0187 440.573592,184.780792 C443.152935,184.1604 445.938814,184.045716 448.804856,183.993254 C449.726252,183.973733 450.741956,183.805367 451.533206,183.575999 C454.022956,182.851903 456.706982,182.363885 459.57208,182.043014 C460.024762,181.992382 460.501964,181.975301 460.975394,181.974081 C462.388138,181.971641 463.437794,181.561096 464.653433,181.339048 C466.556583,180.996826 468.46822,180.660704 470.37137,180.322142 C472.263203,179.98419 474.166352,179.654168 476.044982,179.308895 C477.282312,179.080137 478.457398,178.776956 479.718306,178.59761 C481.060318,178.407283 482.493811,178.351161 483.857515,178.189505 C485.911558,177.949767 488.021244,177.746019 489.966832,177.381836 C491.827543,177.036564 493.686368,176.765714 495.680054,176.621749 C496.5741,176.555257 497.378553,176.264276 498.2726,176.145322 C499.836238,175.938524 501.430055,175.786629 503.015385,175.616433 C504.301755,175.477958 505.618305,175.399265 506.855635,175.202838 C508.092965,175.007021 509.22184,174.678829 510.438423,174.450681 C510.928828,174.360398 511.532404,174.386019 512.079394,174.360398 C512.173703,174.355518 512.277442,174.356738 512.381182,174.357348 C512.598092,174.359178 512.815002,174.361008 512.947034,174.314036 C515.295321,173.443535 518.32263,173.542968 521.000998,173.148894 C522.415628,172.940877 523.773673,172.667587 525.160011,172.428458 C525.773018,172.324145 526.386025,172.213121 527.017893,172.142968 C529.469919,171.869678 531.959669,171.667761 534.35511,171.326149 C536.345024,171.043099 538.193474,170.590462 540.126803,170.228719 C540.6455,170.131726 541.192491,170.092685 541.711189,170.013382 C543.918013,169.67482 546.124836,169.335647 548.322229,168.985495 C550.906287,168.57068 553.292298,167.980179 556.102697,167.771551 C558.828219,167.577564 561.393415,166.998653 564.052921,166.62044 C566.184297,166.317259 568.315674,166.015908 570.494205,165.79752 C574.22883,165.418087 578.038901,165.155777 581.754664,164.739742 C585.093192,164.366409 588.346843,163.84423 591.647647,163.406844 C594.231706,163.064012 596.928935,162.851724 599.409254,162.394208 C602.134775,161.88789 605.105499,161.678652 607.651834,160.933206 C608.981587,160.545232 610.631989,160.371985 612.122067,160.096256 C615.686936,159.430112 619.242374,158.751767 622.826105,158.102094 C623.31651,158.012421 624.146427,157.945318 624.485938,158.063053 C625.928861,158.54314 627.42837,158.419915 629.003325,158.327192 C629.437145,158.300961 629.908688,158.501048 630.399094,158.54436 C632.926567,158.771898 635.463471,158.983576 638.000375,159.196473 C639.990289,159.363009 641.961341,159.544186 643.951254,159.66741 C644.507676,159.703401 645.082959,159.700351 645.648811,159.696691 C646.186371,159.693641 646.72393,159.691201 647.26149,159.721702 C649.779532,159.868717 652.288144,160.059654 654.796755,160.22985 C656.673499,160.361005 658.550242,160.48484 660.426985,160.624535 C660.785358,160.648935 661.162593,160.694077 661.492673,160.76484 C662.605516,160.994818 663.62405,161.143663 664.982095,161.05582 C666.481604,160.956386 668.094283,161.194905 669.640945,161.294949 C670.499154,161.350461 671.338502,161.468805 672.196711,161.488936 C673.715081,161.520657 675.233451,161.498696 676.921577,161.498696" id="Fill-21"></path>
                    <path d="M912.006728,22.5185147 C915.275467,21.6867694 918.850147,22.0166684 922.134987,21.5778028 C925.484237,21.1369378 928.817384,20.7190657 932.166633,20.3401818 C935.370963,19.9772929 938.639702,19.6913805 941.827929,19.3354895 C945.096668,18.9746 948.349304,18.5857191 951.585839,18.1828424 C956.658019,17.5570341 961.697995,16.9242279 966.737972,16.2624306 C971.327087,15.6616145 975.883999,14.9888206 980.489216,14.4209945 C982.469782,14.1720707 984.579165,14.1130888 986.62414,13.9351433 C988.459786,13.5382648 988.620807,13.3663175 988.910646,13.335327 C992.630245,12.9234531 996.365947,12.4985832 1000.13385,12.1506897 C1003.09665,12.0897084 1003.86955,12.0907081 1004.61025,12.0117323 C1011.42147,11.2729585 1018.21658,10.5001952 1024.97949,9.67644745 C1026.96005,9.43852031 1028.73129,8.93467461 1030.69575,8.6607585 C1033.14328,8.31986289 1035.70352,8.13891831 1038.15105,7.80901934 C1042.9656,7.15821864 1047.66743,6.22750366 1052.61079,5.84462091 C1056.3626,5.55171062 1059.29319,4.57101095 1062.81956,4.21112116 C1065.70185,3.91721117 1068.71295,3.84523321 1071.59524,3.55532199 C1077.69796,2.93751119 1083.75237,2.2207307 1089.83899,1.58892418 C1091.96447,1.37399001 1094.15437,1.29101542 1096.31206,1.1310644 C1098.8401,0.947120731 1101.41644,0.758178592 1103.96058,0.562238597 C1106.00556,0.400288193 1108.03443,0.210346361 1110.09551,0.0743879972 C1111.20655,-0.00158873557 1112.36591,-0.0195832249 1113.49306,0.021404223 C1113.70239,0.0294017739 1114.13715,0.538245945 1113.92782,0.668206146 C1110.12771,3.07147017 1106.19878,5.44174429 1102.38257,7.84600801 C1100.17657,9.23158369 1098.1155,10.6571471 1096.00611,12.0707142 C1092.83399,13.8681638 1090.24154,15.225748 1087.61689,16.561339 C1084.31595,18.239825 1081.015,19.931307 1077.58524,21.5638071 C1073.70462,23.399245 1069.51806,25.1277156 1065.71795,26.9951438 C1063.04499,28.3107409 1060.8712,29.8052832 1058.37537,31.1818616 C1055.50918,32.7573791 1052.41757,34.2519214 1049.648,35.8544307 C1045.9284,38.01177 1042.36982,40.2210934 1038.82734,42.4394141 C1035.20436,44.7147173 1031.85511,47.0679966 1028.11941,49.3023124 C1024.59303,51.3906728 1020.85733,53.4120538 1016.94451,55.3534593 C1015.59193,56.0212548 1014.23934,57.1848984 1011.09942,56.5480934 C1010.77738,56.484113 1009.73074,56.7870203 1009.4409,57.0189492 C1008.82902,57.4938038 1008.7163,58.0866223 1008.08832,58.544482 C1006.65523,59.6031578 1007.28321,60.2869484 1009.89176,60.797792 C1012.33929,61.2826435 1014.6258,61.9424415 1016.99281,62.50227 C1019.79459,63.1670664 1022.49975,64.1747578 1025.47865,64.3776957 C1030.24489,64.6975977 1032.77293,66.4570589 1036.92729,67.0918645 C1039.06888,67.4207638 1041.11385,67.8956183 1043.07831,68.396465 C1045.78348,69.0862537 1048.34372,69.8870085 1051.03278,70.5917927 C1053.49641,71.2355955 1056.05666,71.8034216 1058.53639,72.4212324 C1059.16437,72.576185 1059.76015,72.7611283 1060.32373,72.9500705 C1063.8501,74.1047169 1067.39258,75.2623623 1070.93505,76.4240066 C1072.98003,77.1067975 1075.0089,77.8185795 1077.10218,78.4893741 C1078.85731,79.0572002 1080.67686,79.5990343 1082.4964,80.1278723 C1086.50584,81.281519 1090.56358,82.3961777 1094.50861,83.583814 C1096.52138,84.1936272 1098.34093,84.9274025 1100.28929,85.5842014 C1100.94948,85.8131313 1101.72238,86.0820489 1102.51139,86.1510278 C1105.42588,86.3859558 1107.00389,87.3646561 1109.00056,88.1224241 C1109.98279,88.4993087 1111.10994,88.8022159 1112.18879,89.1281161 C1114.4914,89.8139061 1116.794,90.4956973 1119,91.1474977 C1117.16435,92.6660326 1113.94392,92.3881177 1111.33537,92.7410097 C1107.53526,93.2548523 1103.75125,93.8346747 1099.96725,94.3745094 C1096.71461,94.8373677 1093.47808,95.303225 1090.19324,95.7230964 C1085.31428,96.3489048 1080.40312,96.9027352 1075.52417,97.5385405 C1068.84177,98.4142723 1062.20768,99.3759778 1055.50918,100.221719 C1049.6802,100.958493 1043.80291,101.629288 1037.90952,102.244099 C1033.07887,102.750944 1028.13551,103.037856 1023.32096,103.58169 C1017.44367,104.249485 1011.6791,105.137213 1005.81791,105.837999 C1002.11442,106.279864 998.298206,106.578772 994.5303,106.902673 C990.070002,107.285556 985.561397,107.592462 981.101099,107.999337 C978.846796,108.202275 976.705209,108.626145 974.450906,108.817087 C970.521979,109.156982 966.544746,109.356921 962.615818,109.690819 C959.57251,109.94774 956.545304,110.297633 953.566404,110.647526 C947.94675,111.307324 942.327096,111.925135 936.804055,112.682903 C932.842924,113.229735 929.058916,114.015495 925.146091,114.614311 C923.262139,114.901223 921.217164,114.9762 919.268803,115.186136 C916.660253,115.46605 914.100009,115.802947 911.475357,116.076863 C910.589738,116.170834 909.623609,116.081862 908.770194,116.188829 C906.709118,116.44575 904.71245,116.807639 902.651373,117.063561 C898.980081,117.519421 895.32489,118.121237 891.573087,118.316177 C885.051712,118.650075 878.965095,119.407843 873.120011,120.661459 C870.35044,120.733437 869.722455,120.716442 869.15888,120.776424 C865.696915,121.144311 862.315462,121.689145 858.837395,121.99905 C854.296586,122.403926 850.045615,123.354635 845.231069,123.269661 C844.087816,123.250666 842.92846,123.72752 841.704696,123.848483 C839.627518,124.061418 837.421522,124.097407 835.328241,124.351329 C831.22219,124.856175 827.100037,125.403007 823.058395,126.038813 C818.791322,126.709607 814.653067,127.559347 810.337688,128.213147 C807.954568,128.580034 805.281609,128.605027 802.882388,128.978912 C800.14502,129.406781 797.633083,130.091571 794.944023,130.582421 C792.544801,131.018288 790.048966,131.363182 787.553131,131.69608 C784.139473,132.146942 780.677508,132.521827 777.279953,132.971689 C772.19167,133.644483 767.119489,134.378259 762.031207,135.039056 C758.279403,135.518909 754.447089,135.868802 750.711388,136.376647 C745.912944,137.033446 741.195011,137.809208 736.41267,138.487 C734.512615,138.759917 732.499845,138.898874 730.583688,139.132803 C729.118391,139.306749 727.733605,139.678635 726.252206,139.714624 C718.587578,139.921561 711.937386,141.632037 704.610903,142.354816 C699.248883,142.887653 694.08009,143.824366 688.846888,144.622122 C683.388255,145.451867 678.026236,146.39058 672.519297,147.170341 C667.962386,147.816143 663.244453,148.25201 658.655337,148.874819 C656.352728,149.185724 654.259447,149.768545 651.982602,150.110441 C648.755729,150.598291 645.448345,150.987172 642.139351,151.394048 C639.641906,151.707952 637.099375,151.960874 634.592269,152.26978 C633.056123,152.458722 631.497433,152.648663 630.083664,152.946572 C625.093604,153.983255 619.411152,154.157202 614.47906,155.083918 C608.369901,156.234565 601.821152,156.320539 595.613769,157.156283 C590.911938,157.791089 586.061968,158.21196 581.345645,158.829771 C578.394119,159.22365 575.640649,159.900443 572.682682,160.283325 C566.742596,161.056089 560.699455,161.659904 554.764198,162.434667 C551.27164,162.889527 547.745267,163.383376 544.555429,164.126149 C540.723115,165.016876 536.66537,165.424751 532.530335,165.805634 C528.847771,166.14653 525.153936,166.461433 521.548662,166.904298 C518.495692,167.279183 515.555438,167.836012 512.550775,168.285875 C509.01313,168.811714 505.36116,169.223588 501.907247,169.842398 C497.849502,170.567176 493.962441,171.4679 489.981987,172.275653 C484.363943,172.900462 480.729685,173.161382 477.275772,173.678223 C474.749343,174.052109 472.580382,174.835869 470.086157,175.293729 C466.566225,175.937531 462.923917,176.457372 459.318643,177.015201 C458.566672,177.135165 457.73419,177.155159 456.961287,177.257127 C454.021032,177.671001 451.082388,178.084874 448.153405,178.518741 C446.947353,178.697686 445.825032,179.001593 444.586776,179.130554 C440.933196,179.522434 437.239361,179.817343 433.614764,180.225218 C432.486003,180.355179 431.519873,180.722066 430.474843,180.975988 C424.133812,181.858718 419.031038,182.451537 413.937924,183.047354 C412.390507,183.226299 410.878514,183.482221 409.326265,183.570194 C400.817884,184.049047 392.602562,184.895788 384.61106,186.302357 C377.851373,187.485995 370.758371,188.306744 363.815119,189.29944 C362.752377,189.449394 361.699296,189.631338 360.705792,189.85427 C358.190635,190.415098 355.84294,190.966929 352.778699,191.105886 C348.891637,191.280833 345.102799,191.983617 341.315571,192.500459 C340.434783,192.624421 339.650607,192.903336 338.859991,193.123268 C338.164378,193.31321 337.523512,193.656105 336.790864,193.700092 C334.055107,193.849046 331.298417,193.900031 328.245447,194 C328.245447,191.931633 328.314686,189.965236 328.205192,188.000837 C328.1907,187.314048 327.725347,186.631257 327.549834,185.951465 C327.414576,185.432624 327.321183,184.908784 327.345336,184.387944 C327.422627,183.375254 327.947557,182.344569 327.665769,181.348874 C327.029734,178.964604 327.047446,176.607326 327.607802,174.21006 C327.973321,172.540572 327.029734,170.822098 326.718962,169.120619 C326.649723,168.765728 326.545059,168.392842 326.718962,168.058944 C328.034509,165.652681 325.443671,163.354385 325.849446,160.942124 C326.187591,158.970727 325.123238,156.962342 324.862383,154.968953 C324.785093,154.386131 325.615964,153.782316 325.520962,153.200494 C325.28426,151.636973 324.68687,150.086448 324.429235,148.526926 C324.351945,148.12005 325.131289,147.692181 325.153832,147.270311 C325.192478,146.042687 325.123238,144.818062 324.949335,143.595436 C324.704582,141.807983 323.855998,140.004536 324.176431,138.237077 C324.380929,137.113421 323.335898,135.922786 324.777042,134.836118 C324.978319,131.766059 325.327736,129.009903 325.240784,126.252747 C325.171545,124.280351 325.364771,122.346943 326.052333,120.382545 C326.580484,118.849014 325.405026,117.191522 326.023349,115.665989 C326.741505,113.872538 325.889701,112.16806 325.838174,110.421595 C325.789868,108.918056 326.194032,107.409518 326.234287,105.89798 C326.274543,105.057238 325.983094,104.210497 325.749612,103.372754 C325.364771,101.9152 324.727125,100.467643 324.533899,99.0080904 C324.409913,98.0953699 325.636897,97.3166084 327.665769,96.9977061 C333.93112,96.0260037 339.479924,94.4824764 345.296025,93.1628805 C350.083197,92.0762133 355.050714,91.1315026 359.973144,90.1568011 C363.953598,89.3660432 367.953375,88.5922802 372.004678,87.8735003 C379.522777,86.5499056 387.066639,85.2553021 394.633044,83.9876903 C398.394509,83.3598826 402.209111,82.7710629 406.047866,82.2432245 C410.736815,81.6004214 415.490172,81.0785812 420.163019,80.4247814 C422.40444,80.1088781 424.442974,79.5270563 426.676343,79.2061546 C430.569846,78.6473257 434.561571,78.215458 438.50016,77.6926181 C439.25052,77.5926487 439.830198,77.2947399 440.554795,77.160781 C441.501602,76.9918327 442.499936,76.866871 443.515983,76.7848961 C451.005097,76.0031355 456.283386,75.1603936 461.648625,74.4076241 C465.448735,73.875787 469.364781,73.4769091 473.189044,72.9690646 C476.262946,72.5651883 479.27244,72.0773377 482.32541,71.6414712 C485.041844,71.25359 487.755058,70.8597106 490.490815,70.5018202 C492.413413,70.2528965 494.7756,70.283887 496.224794,69.7930373 C500.573988,68.3194885 506.022959,68.7643523 510.750553,67.991589 C515.053051,67.295802 519.600301,66.8679331 523.973647,66.2451238 C526.247272,65.9192236 528.797855,66.0241915 530.84766,65.2654238 C533.322562,65.1334642 533.899019,65.1414618 534.385304,65.0794808 C539.335108,64.4466746 544.249488,63.7798788 549.155816,63.0820924 C550.933494,62.8301696 552.587186,62.4132973 554.376136,62.1743704 C556.71417,61.8594669 559.150427,61.6645266 561.499732,61.3766147 C562.881297,61.2066668 564.195234,60.9437473 565.559087,60.7398098 C566.589625,60.5858569 567.649147,60.4888866 568.657142,60.320938 C570.673133,59.9900394 572.595731,59.5251817 574.656807,59.3052491 C578.139705,58.9273648 581.68057,58.7074321 585.195671,58.4065243 C590.517435,57.5837763 594.064741,57.084929 597.547639,56.5041069 C600.425095,56.0212548 603.14958,55.3644559 606.072122,54.9445845 C608.791777,54.5467063 611.691776,54.3567645 614.522536,54.0818487 C618.43053,53.7069635 620.791107,53.4360465 623.133971,53.1221426 C623.728141,53.0421671 624.216037,52.817236 624.76512,52.6642828 C631.24624,52.4083612 635.762896,51.7945492 640.079885,50.7638648 C642.558007,50.7788602 643.089379,50.7998538 643.480661,50.7128804 C647.015085,49.9221226 650.787822,49.7141862 654.694206,49.7101875 C655.515416,49.7101875 656.320524,49.4192766 657.173938,49.3253053 C660.53929,48.9454217 663.985152,48.6315178 667.350504,48.2236427 C672.293867,47.6268255 677.156719,46.8800542 682.132287,46.358214 C687.703634,45.7673949 693.371595,45.3855119 698.991249,44.8636717 C706.865205,44.1338952 714.690855,43.3481358 722.548709,42.6043636 C725.97847,42.2794631 729.440434,42.0165436 732.886296,41.6796468 C734.190571,41.5536853 735.430438,41.2857674 736.718611,41.1258164 C738.248316,40.9358745 739.84243,40.8189103 741.388237,40.6259694 C742.805227,40.4440252 744.173911,40.1661103 745.623105,40.0031602 C750.534264,39.445331 755.413219,38.6785658 760.404889,38.4586332 C763.802444,38.3096788 766.572016,36.9251028 770.243309,37.6438827 C772.095057,36.6321925 774.864629,37.0330697 777.231646,36.8061392 C782.593666,36.2793006 787.923481,35.6774849 793.269398,35.1266536 C798.116148,34.6308054 802.930694,33.9380176 807.857955,33.7360794 C813.284383,33.5161468 818.066725,32.5444443 823.138905,31.8866458 C829.0645,31.1178812 835.070606,30.4270928 841.012303,29.701315 C845.263274,29.1844733 849.48204,28.597653 853.781317,28.1607868 C860.995084,27.4370084 868.273261,26.8161986 875.519233,26.1374064 C881.122785,25.6125672 886.710234,25.0687337 892.313786,24.5298987 C895.566423,24.2159948 898.819059,23.8730999 902.1039,23.559196 C902.812395,23.4932162 904.519224,23.3212688 904.519224,23.3212688 C907.031161,23.0723451 909.881243,23.05635 912.006728,22.5185147 Z M829.344023,68.8287865 L811.428565,71.0285281 L812.095434,76.4597407 L824.127079,74.9824405 L824.793948,80.413653 L813.667505,81.7798084 L814.334375,87.2110209 L825.460817,85.8448656 L826.738983,96.2546896 L832.622796,95.5322482 L829.344023,68.8287865 Z M810.276912,84.7229556 C810.014485,82.5856622 809.418456,80.6935492 808.488805,79.04656 C807.559154,77.3995707 806.37829,76.0450672 804.946176,74.9830087 C803.514063,73.9209502 801.877833,73.1711101 800.037437,72.7334658 C798.197042,72.2958215 796.233371,72.2051267 794.146367,72.4613786 C792.059363,72.7176304 790.175963,73.2806861 788.496111,74.1505625 C786.816258,75.0204389 785.410034,76.1438455 784.277395,77.5208159 C783.144757,78.8977864 782.326653,80.4977323 781.82306,82.3207018 C781.319467,84.1436712 781.198885,86.123773 781.461312,88.2610663 C781.723739,90.3983597 782.319768,92.2904727 783.249419,93.9374619 C784.17907,95.5844512 785.359934,96.9389547 786.792047,98.0010132 C788.224161,99.0630717 789.860391,99.8129118 791.700787,100.250556 C793.541182,100.6882 795.504853,100.778895 797.591857,100.522643 C799.678861,100.266391 801.562261,99.7033358 803.242113,98.8334594 C804.921966,97.963583 806.32819,96.8401765 807.460829,95.463206 C808.593467,94.0862356 809.411571,92.4862896 809.915164,90.6633202 C810.418757,88.8403507 810.539339,86.860249 810.276912,84.7229556 Z M804.166798,85.4731833 C804.321166,86.7304147 804.267544,87.9046909 804.005928,88.9960473 C803.744312,90.0874036 803.295996,91.0612896 802.660967,91.9177346 C802.025937,92.7741795 801.225499,93.4786401 800.259627,94.0311373 C799.293754,94.5836346 798.182219,94.9370622 796.924988,95.0914308 C795.667757,95.2457994 794.503737,95.1717748 793.432894,94.8693547 C792.362051,94.5669346 791.414965,94.0770432 790.591606,93.3996658 C789.768247,92.7222884 789.097643,91.8857884 788.579776,90.8901406 C788.061908,89.8944928 787.725795,88.7680701 787.571426,87.5108387 C787.420145,86.2787519 787.47454,85.1107617 787.734612,84.006833 C787.994684,82.9029044 788.442228,81.9227323 789.077257,81.0662873 C789.712287,80.2098424 790.512725,79.5053818 791.478597,78.9528846 C792.444469,78.4003873 793.556005,78.0469597 794.813236,77.8925911 C796.070467,77.7382225 797.234487,77.8122471 798.30533,78.1146672 C799.376173,78.4170874 800.323259,78.9069787 801.146618,79.5843561 C801.969977,80.2617335 802.641353,81.1045196 803.160764,82.1127397 C803.680175,83.1209598 804.015517,84.2410965 804.166798,85.4731833 Z M775.82395,75.4002252 L765.489559,76.6691288 C764.131749,76.8358469 762.859315,77.1260797 761.672218,77.5398358 C760.485121,77.953592 759.470518,78.5248277 758.62838,79.2535602 C757.786242,79.9822927 757.15894,80.9015854 756.746457,82.011466 C756.333973,83.1213466 756.223441,84.4557503 756.414858,86.0147173 C756.646411,87.9005644 757.333541,89.4433075 758.476269,90.642993 C759.618996,91.8426785 761.154872,92.5027472 763.083943,92.6232191 L757.679606,104.734115 L764.732639,103.868111 L769.004136,92.5088767 L771.908326,92.152287 L773.218909,102.826128 L779.102723,102.103687 L775.82395,75.4002252 Z M771.297029,87.1736756 L767.827088,87.5997308 C767.299051,87.6645656 766.737276,87.7144004 766.141746,87.7492367 C765.546216,87.784073 764.998008,87.7365296 764.497105,87.6066049 C763.996201,87.4766803 763.563903,87.2298607 763.200198,86.8661388 C762.836492,86.5024169 762.609875,85.955967 762.520342,85.2267728 C762.436983,84.5478679 762.508898,83.9902862 762.736091,83.554011 C762.963284,83.1177359 763.277484,82.7664962 763.6787,82.5002816 C764.079916,82.2340669 764.552477,82.0292846 765.096397,81.8859285 C765.640316,81.7425725 766.176287,81.6384786 766.704324,81.5736438 L770.551433,81.1012782 L771.297029,87.1736756 Z M735.536819,95.8907244 L743.689276,79.3458671 L736.372225,80.2442879 L731.941937,90.9338829 L724.717748,81.6752777 L717.740149,82.5320192 L729.653006,96.6131659 L731.051578,108.003626 L736.935392,107.281184 L735.536819,95.8907244 Z M718.851501,95.9485845 C718.589074,93.8112911 717.993045,91.9191782 717.063394,90.272189 C716.133743,88.6251997 714.952879,87.2706962 713.520765,86.2086377 C712.088652,85.1465792 710.452422,84.396739 708.612026,83.9590948 C706.77163,83.5214505 704.80796,83.4307556 702.720956,83.6870075 C700.633952,83.9432594 698.750552,84.5063151 697.070699,85.3761915 C695.390847,86.2460679 693.984623,87.3694744 692.851984,88.7464449 C691.719346,90.1234153 690.901242,91.7233613 690.397649,93.5463307 C689.894056,95.3693002 689.773474,97.3494019 690.035901,99.4866953 C690.298328,101.623989 690.894357,103.516102 691.824008,105.163091 C692.753658,106.81008 693.934523,108.164584 695.366636,109.226642 C696.79875,110.288701 698.43498,111.038541 700.275376,111.476185 C702.115771,111.913829 704.079442,112.004524 706.166446,111.748272 C708.25345,111.49202 710.13685,110.928965 711.816702,110.059088 C713.496555,109.189212 714.902779,108.065805 716.035417,106.688835 C717.168056,105.311865 717.986159,103.711919 718.489753,101.888949 C718.993346,100.06598 719.113927,98.0858779 718.851501,95.9485845 Z M712.741387,96.6988122 C712.895755,97.9560436 712.842133,99.1303199 712.580517,100.221676 C712.318901,101.313033 711.870585,102.286919 711.235556,103.143364 C710.600526,103.999809 709.800088,104.704269 708.834215,105.256766 C707.868343,105.809264 706.756808,106.162691 705.499577,106.31706 C704.242345,106.471428 703.078326,106.397404 702.007483,106.094984 C700.93664,105.792564 699.989554,105.302672 699.166194,104.625295 C698.342835,103.947917 697.672232,103.111417 697.154364,102.11577 C696.636497,101.120122 696.300384,99.993699 696.146015,98.7364676 C695.994734,97.5043808 696.049128,96.3363906 696.309201,95.232462 C696.569273,94.1285333 697.016817,93.1483612 697.651846,92.2919163 C698.286875,91.4354713 699.087314,90.7310108 700.053186,90.1785135 C701.019058,89.6260163 702.130593,89.2725887 703.387825,89.1182201 C704.645056,88.9638515 705.809076,89.0378761 706.879919,89.3402962 C707.950761,89.6427163 708.897848,90.1326077 709.721207,90.8099851 C710.544566,91.4873624 711.215941,92.3301485 711.735353,93.3383687 C712.254764,94.3465888 712.590105,95.4667254 712.741387,96.6988122 Z M663.896137,105.79737 C664.090641,107.381482 664.508577,108.810519 665.149955,110.084524 C665.791334,111.358529 666.643676,112.427948 667.707007,113.292812 C668.770338,114.157676 670.039995,114.780243 671.516017,115.160532 C672.992038,115.540821 674.647803,115.618275 676.483361,115.392897 C678.344063,115.164431 679.944479,114.687168 681.284656,113.961094 C682.624833,113.235019 683.706163,112.323787 684.528679,111.22737 C685.351195,110.130953 685.919503,108.887101 686.233621,107.495775 C686.547738,106.10445 686.607543,104.616754 686.413039,103.032642 L684.398539,86.6258542 L678.514725,87.3482957 L680.501439,103.528783 C680.603322,104.358556 680.565478,105.141664 680.387906,105.878131 C680.210334,106.614598 679.914324,107.269884 679.499867,107.844009 C679.08541,108.418134 678.562776,108.890679 677.931948,109.261657 C677.30112,109.632636 676.595975,109.865976 675.816492,109.961684 C675.037008,110.057393 674.302645,110.000802 673.61338,109.791911 C672.924115,109.583019 672.308972,109.250176 671.767933,108.793371 C671.226894,108.336566 670.781148,107.772356 670.430683,107.100724 C670.080218,106.429092 669.854048,105.678401 669.752164,104.848628 L667.76545,88.6681406 L661.881637,89.3905821 L663.896137,105.79737 Z M651.922312,95.896815 L659.541096,94.9613459 L658.902013,89.7564339 L637.780631,92.3498135 L638.419714,97.5547255 L646.038498,96.6192565 L648.678188,118.117806 L654.562002,117.395365 L651.922312,95.896815 Z M634.801007,92.7156653 L628.917194,93.4381068 L630.139787,103.39533 L618.711611,104.798533 L617.489017,94.8413104 L611.605204,95.5637518 L614.883977,122.267214 L620.76779,121.544772 L619.350694,110.003445 L630.77887,108.600242 L632.195967,120.141568 L638.07978,119.419127 L634.801007,92.7156653 Z" id="Combined-Shape"></path>
                    <text id="BY-YOUTH" transform="translate(398.000000, 274.000000) scale(-1, 1) rotate(7.000000) translate(-398.000000, -274.000000) " font-family="Avenir-Black, Avenir" font-size="38" font-weight="700">
                        <tspan x="300.226" y="286">BY YOUTH</tspan>
                    </text>
                </g>
            </g>
        </g>
    </g>
</svg>