<?xml version="1.0" encoding="UTF-8"?>
<svg width="277px" height="92px" viewBox="0 0 277 92" version="1.1" xmlns="http://www.w3.org/2000/svg" xmlns:xlink="http://www.w3.org/1999/xlink">
    <!-- Generator: Sketch 42 (36781) - http://www.bohemiancoding.com/sketch -->
    <title>For Youth By Youth</title>
    <desc>Created with Sketch.</desc>
    <defs></defs>
    <g id="Programs--Desktop" stroke="none" stroke-width="1" fill="none" fill-rule="evenodd">
        <g id="iPad-Pro-Portrait" transform="translate(-606.000000, -990.000000)" fill="#52AA8A">
            <g id="For-Youth-By-Youth" transform="translate(744.500000, 1036.000000) scale(-1, 1) translate(-744.500000, -1036.000000) translate(606.000000, 990.000000)">
                <path d="M3.18112961,90.0308081 C3.45832197,90.0308081 3.56289385,90.0425143 3.64555176,90.0295628 C4.83159674,89.8482413 6.01264379,89.6671689 7.18753956,89.4788736 C7.72347041,89.392447 8.22864483,89.2686602 8.77303371,89.1959324 C10.1255479,89.0138638 11.4849822,88.8482336 12.8451855,88.6840978 C13.1788928,88.644247 13.5433566,88.6529643 13.8616857,88.6016563 C14.755929,88.4571969 15.6324873,88.2893252 16.5178882,88.1368956 C17.9745898,87.8888239 19.4305224,87.6419976 20.8933753,87.401398 C21.9048775,87.2347716 22.9252222,87.0736246 23.9478736,86.921195 C24.7621502,86.8011443 25.6021853,86.7122271 26.4099261,86.5852024 C27.5248469,86.4106058 28.6070889,86.1956602 29.7296987,86.0332679 C30.5966457,85.9084849 31.5193387,85.861411 32.3928214,85.7413603 C33.931412,85.5294035 35.466158,85.3057405 36.9762989,85.0549291 C38.5771713,84.7899208 40.2810777,84.6718626 41.8542693,84.3662563 C42.154529,84.3069781 42.5562849,84.3545501 42.8815342,84.3112123 C45.2801516,83.9909109 47.6730021,83.6606468 50.0662371,83.3361113 C50.8785914,83.2255252 51.7005571,83.1244036 52.507529,83.0138174 C53.6528217,82.8579009 54.8157994,82.7246496 55.9261066,82.5326182 C57.5116008,82.2586435 59.2162761,82.1714697 60.7740895,81.8399603 C61.9839707,81.5824241 63.3203377,81.4419498 64.6059567,81.2578886 C65.5670952,81.1196559 66.539383,81.0001033 67.4993682,80.8628668 C68.5666164,80.709441 69.6215621,80.5418183 70.6895792,80.3881434 C71.6122723,80.2566355 72.5472678,80.137332 73.4753432,80.0100582 C74.110848,79.9233826 74.7425083,79.8252498 75.3887779,79.7472916 C76.3237734,79.6342148 77.2753006,79.5497807 78.2022226,79.4230051 C79.3536666,79.2673377 80.4785832,79.0733138 81.6281049,78.9104234 C84.0001948,78.5729363 86.3799739,78.2464083 88.7520638,77.9131554 C89.259545,77.841922 89.7631816,77.7622202 90.2706627,77.6867526 C91.0549518,77.5694416 91.8507745,77.4576101 92.6350636,77.3298383 C93.1809903,77.2396757 93.6961605,77.1059262 94.2497763,77.0269717 C95.5876812,76.8351894 96.9409643,76.6605928 98.2904028,76.4864943 C99.4283909,76.3382989 100.570223,76.206542 101.708212,76.0571012 C102.738552,75.9211101 103.765048,75.7597141 104.803078,75.6319423 C106.221718,75.458591 107.690338,75.3492502 109.070533,75.1320629 C110.346925,74.9315632 111.63485,74.7856094 112.961222,74.6772649 C113.537905,74.6289457 114.110743,74.5646862 114.672048,74.4914602 C115.633187,74.3671753 116.578947,74.2244594 117.536241,74.0999254 C118.558893,73.9671722 119.600767,73.8588277 120.615729,73.7136211 C121.549956,73.5793735 122.441892,73.3923235 123.379964,73.2620609 C124.44875,73.1111258 125.552137,73.0107514 126.628612,72.8638013 C128.020341,72.6732644 129.392846,72.4411331 130.796109,72.2590644 C132.433889,72.0453641 134.094736,71.8692731 135.74405,71.6695206 C136.747479,71.5474773 137.750907,71.4244378 138.735113,71.2777368 C140.088396,71.0772371 141.418612,70.8473474 142.764206,70.6411192 C143.783013,70.4844554 144.813353,70.3380035 145.847538,70.1957857 C147.281557,69.9980258 148.723265,69.8164553 150.153439,69.6112233 C150.722433,69.529529 151.252982,69.3838243 151.82582,69.3026281 C152.402503,69.2206848 153.025321,69.2025028 153.609693,69.1237974 C154.778438,68.9638958 155.92796,68.7718644 157.096704,68.6132081 C158.742173,68.3895451 160.395332,68.1865548 162.044645,67.9728545 C162.848157,67.8677478 163.632446,67.7397269 164.443647,67.6528022 C165.185646,67.5748439 165.981469,67.5920296 166.600442,67.3479431 L166.661955,67.3452033 C168.138264,67.2027365 169.618417,67.0712286 171.083192,66.9133195 C172.605636,66.7474403 174.112701,66.5504276 175.627455,66.3753328 C176.269496,66.3008615 176.930759,66.1972492 177.580489,66.1992418 C178.076436,66.2009853 178.453203,66.1621307 178.837658,66.0443215 C178.945306,66.0109464 179.072176,65.9887794 179.195202,65.97259 C180.467749,65.81493 181.75183,65.6809314 183.005155,65.4983646 C184.158521,65.3299947 185.3734,65.2764451 186.476787,64.9885226 C187.39948,64.7471758 188.514401,64.6495411 189.544742,64.4901377 C190.878802,64.2844076 192.205173,64.0741942 193.550767,63.8816647 C193.962134,63.8221375 193.989046,63.7601196 194.04287,63.552646 C194.162051,63.0804132 193.693016,62.6340835 193.939067,62.1571184 C194.092849,61.8579878 193.912155,61.521248 193.850642,61.2024411 C193.804508,60.9371837 193.685326,60.6744171 193.662259,60.4089106 C193.619969,59.9869896 193.627658,59.5640722 193.616124,59.141653 C193.608435,58.6813755 193.600746,58.2201017 193.600746,57.7595751 C193.600746,57.3403938 193.608435,56.9199671 193.627658,56.501284 C193.631503,56.3996642 193.735306,56.2965501 193.719927,56.1976702 C193.627658,55.7007796 193.481565,55.2051345 193.396985,54.7077458 C193.297026,54.1408672 193.220135,53.571747 193.158622,53.0038722 C193.127866,52.7224254 193.124021,52.4397333 193.143244,52.1575393 C193.158622,51.9498167 193.243203,51.7410978 193.262425,51.5326279 C193.316249,50.9884145 193.358539,50.4449483 193.381607,49.901233 C193.420052,49.1049628 193.427741,48.3089418 193.470031,47.5139169 C193.493099,47.1159064 193.56999,46.7181449 193.627658,46.3203834 C193.646881,46.1629725 193.689171,46.0075541 193.700705,45.8508904 C193.716083,45.5871275 193.819886,45.3148962 193.693016,45.064583 C193.546922,44.7577313 193.681482,44.4600951 193.646881,44.158972 C193.600746,43.7001889 193.65457,43.2389151 193.635347,42.7788866 C193.619969,42.4819976 193.535389,42.1858559 193.516166,41.8882197 C193.489254,41.5611935 193.516166,41.2336692 193.489254,40.9071411 C193.481565,40.851599 193.343161,40.7910755 193.239358,40.7472395 C192.870281,40.595059 192.485825,40.7457451 192.147505,40.7748861 C191.051807,40.8685356 189.975332,41.0137422 188.895012,41.1392725 C188.633582,41.1701569 188.372152,41.1970562 188.110723,41.2274425 C187.807003,41.2645536 187.49175,41.2969324 187.195719,41.3435081 C186.945823,41.3821137 186.718994,41.4752651 186.476787,41.4842315 C185.434913,41.5235843 184.631401,41.9103867 183.547237,41.8832383 C182.686057,42.2374129 181.536535,42.1559677 180.521573,42.2775129 C179.937201,42.3470028 179.333606,42.3826195 178.753078,42.4548492 C178.422446,42.4954473 178.126416,42.5881006 177.799628,42.6423974 C176.926915,42.7886003 176.06189,42.9494981 175.166109,43.0635712 C173.336101,43.297197 171.456114,43.4394147 169.664552,43.7602142 C168.134419,44.034438 166.492794,44.1828825 164.912683,44.4030585 C163.555555,44.5906067 162.225339,44.8075449 160.875901,44.99858 C160.099301,45.108668 159.307323,45.1861281 158.526878,45.288246 C158.073221,45.3482713 157.642631,45.4332035 157.192818,45.4969649 C156.412373,45.607551 155.620395,45.699208 154.84764,45.8207532 C154.493941,45.8755481 154.186376,46.0541298 153.8519,46.0561224 C152.590886,46.0625981 151.606681,46.4172709 150.461003,46.5564998 C149.988123,46.6130383 149.522932,46.6825282 149.061586,46.7574976 C148.200406,46.8962285 147.366137,47.0670891 146.493423,47.1799168 C145.693756,47.2840272 144.851799,47.3211384 144.040598,47.404078 C143.59463,47.4494083 143.16404,47.5271175 142.729605,47.5943659 C142.095253,47.6959856 141.464747,47.807319 140.826551,47.9044554 C140.607411,47.9378305 140.349826,47.9276188 140.134531,47.965228 C139.457889,48.0855278 138.80816,48.2394518 138.119984,48.3408224 C137.239582,48.4705868 136.320733,48.5530283 135.432641,48.6758188 C135.002051,48.7355951 134.609906,48.8608763 134.171627,48.9213998 C133.156665,49.0593834 132.130169,49.1804304 131.099828,49.3007302 C130.015664,49.4272567 128.923811,49.5510435 127.828113,49.6651166 C127.051513,49.7460637 126.259535,49.8053419 125.47909,49.8775716 C125.18306,49.9059653 124.894718,49.9542845 124.598687,49.9692285 C124.425682,49.9769497 124.248833,49.9759534 124.071983,49.9752062 C123.829776,49.9739608 123.591414,49.9724664 123.360741,49.9946335 C122.430359,50.080811 121.503821,50.1754568 120.604195,50.3039758 C119.343182,50.4830557 117.997588,50.3988707 116.732729,50.6329946 C115.740834,50.8183011 114.595157,50.8352377 113.537905,50.9552885 C112.180777,51.1102087 110.827494,51.2735973 109.501123,51.4721044 C108.609186,51.606352 107.682649,51.6892916 106.817624,51.8763417 C105.983356,52.0564178 105.08373,52.1732306 104.195638,52.3079764 C103.230655,52.4549264 102.246449,52.5809548 101.281466,52.7333844 C100.747073,52.8183165 100.247281,52.951817 99.7167324,53.0397379 C98.5979672,53.2245463 97.4715128,53.3996411 96.3412138,53.5677619 C95.1916921,53.7393697 94.011414,53.8781006 92.8772705,54.0656487 C91.5547438,54.2845794 90.2591291,54.5421157 88.9519806,54.7812209 C88.9250688,54.7862022 88.8943123,54.785455 88.8597113,54.7847078 C88.8327995,54.7839606 88.8058876,54.7832134 88.7789757,54.7864513 C87.8985728,54.8992791 87.0027917,54.998159 86.137767,55.1329048 C84.9344215,55.3192076 83.7733661,55.5585619 82.558487,55.7271808 C81.0168208,55.9431227 79.4220997,56.094556 77.871591,56.3047694 C76.3864397,56.5060163 74.9320448,56.7501028 73.4588116,56.9697807 C71.9540531,57.19444 70.4400677,57.4088875 68.9353092,57.6377809 C68.6146733,57.685851 68.3328675,57.7857273 68.0160762,57.8427638 C66.9922715,58.0260778 65.9634688,58.202667 64.9338971,58.3800033 C63.9754498,58.5458826 63.0266138,58.7224717 62.0524038,58.8681765 C61.3307809,58.9767701 60.5653302,59.0283271 59.8410162,59.1354263 C58.2893541,59.3635726 56.7542236,59.614384 55.2033304,59.8480097 C54.7442907,59.9174996 54.2617991,59.9585958 53.7885345,60.0094057 C53.2699041,60.0651969 52.7385867,60.1062931 52.2264921,60.1750359 C51.390686,60.2863692 50.5741027,60.4412895 49.7259941,60.5317011 C47.1213086,60.80991 44.4793309,61.0146438 41.951921,61.433327 C40.580953,61.6614732 39.1773062,61.8450363 37.7971113,62.0599819 C36.3665526,62.2826486 34.9498344,62.5200104 33.5235048,62.745915 C33.2040223,62.7952304 32.8676238,62.8213826 32.5404523,62.8584937 C31.9118677,62.9299762 31.2752095,62.9907488 30.6566207,63.0751828 C29.9715212,63.1683342 29.3071822,63.2985967 28.6167003,63.3842761 C27.4048968,63.5347131 26.1796373,63.6607415 24.9601448,63.8017139 C24.1712422,63.8928728 23.3896444,63.9932472 22.6022797,64.0868967 C21.8737366,64.1740705 21.1440402,64.2515306 20.4212641,64.3431876 C19.3705474,64.4761899 18.3279043,64.6184077 17.2806477,64.7546478 C17.0822687,64.7805509 16.8650514,64.7870266 16.6666724,64.8179111 C15.9273646,64.9354711 15.1888258,65.059756 14.4464424,65.1813012 C13.8809084,65.2729582 13.3103766,65.3613773 12.7433048,65.4542796 C12.1354808,65.5558993 11.5407283,65.6712178 10.9263685,65.7628748 C10.0421211,65.8946317 9.14249537,66.0012328 8.2651681,66.1349823 C7.35208648,66.273215 6.45169188,66.427388 5.54668382,66.5793194 C5.23335265,66.6316237 4.91848366,66.687913 4.63321774,66.7633806 C4.21262351,66.8754612 3.82009452,67.00672 3.41910752,67.1305068 C3.25302278,67.1818147 3.09578051,67.2338699 2.78706281,67.3344934 C3.82009452,67.5845576 4.65128714,67.8044846 5.51900303,67.9927799 C7.31018083,68.3843147 9.11904359,68.7616526 10.9282908,69.1387414 C11.6491447,69.2886803 12.4130576,69.3995156 13.1119976,69.5651457 C13.9847114,69.7726193 14.7966812,70.0299065 15.6605526,70.244603 C16.9250265,70.5609193 18.2225635,70.8513325 19.4939576,71.1636637 C20.3543688,71.3771149 21.1855614,71.6189598 22.0482794,71.8331583 C23.2347088,72.1283037 24.4115269,72.433661 25.6387086,72.6906991 C26.4099261,72.8520951 27.0308216,73.2685367 28.0861518,73.0443756 L28.2007195,73.0476135 C28.7451084,73.1736418 29.2879594,73.2994211 29.8238903,73.4311781 C30.0568703,73.4892109 30.3429051,73.5390245 30.4951494,73.6294361 C31.0952844,73.9816182 30.7558102,74.5609502 29.5209394,74.5913365 C29.0880426,74.6030427 28.6574525,74.8100181 28.2745349,74.9547266 C28.0207944,75.0496214 27.8597075,75.1928355 27.6421058,75.3096484 C27.4667941,75.4055395 27.2457322,75.4854903 27.0881055,75.5858647 C26.1308115,76.206542 25.1896646,76.8326987 24.2312173,77.4528779 C24.0628258,77.5637131 23.8202344,77.6523813 23.6660678,77.7662053 C23.1651224,78.1338296 22.6822464,78.5041936 22.2143641,78.8800371 C21.5292646,79.4312244 20.2159649,79.7570052 19.6688848,80.3699614 C19.3774676,80.6994783 18.7242778,80.959007 18.3609675,81.2808028 C17.6797124,81.8860379 16.2733745,82.2125659 15.5586719,82.8001172 L15.4552534,82.8192954 C14.9539235,83.1393477 14.2453722,83.3906572 13.9716399,83.7849317 C13.9009001,83.8880459 13.6825294,83.9719817 13.5372053,84.0663785 C13.319988,84.2053584 13.1189178,84.3483234 12.892858,84.4845635 C12.7060127,84.5971422 12.5068648,84.7072303 12.2954143,84.8093481 C12.0555141,84.9216777 11.745643,85.0113422 11.5476485,85.1358762 C11.1735734,85.3727398 10.874467,85.6332648 10.5065432,85.8733663 C10.1366971,86.1132187 9.58615693,86.3157109 9.36432615,86.5767341 C9.03138775,86.9700124 8.28439087,87.2188312 7.87725258,87.5794816 C7.78075427,87.6646628 7.59198666,87.7672788 7.40245014,87.7867061 C6.63200147,87.866906 6.35442466,88.1837204 5.92306568,88.406138 C5.07880157,88.8412597 4.35179637,89.3202173 3.58019434,89.7814911 C3.47293128,89.8467469 3.36874386,89.9127499 3.18112961,90.0308081 M192.005256,65.1008522 C191.159454,65.2176651 190.305963,65.3212773 189.47554,65.4542796 C188.137635,65.6712178 186.845864,65.9379695 185.41569,66.0378458 C184.666002,66.0894028 183.966293,66.2552821 183.228139,66.3469391 C181.621115,66.5466915 180.006403,66.7262695 178.395534,66.9220369 C177.349816,67.0493106 176.31563,67.1892868 175.273756,67.3227872 C174.151146,67.4692391 173.04007,67.6291407 171.902082,67.7536747 C171.313865,67.8181833 170.675669,67.7957672 170.079764,67.8538 C169.218583,67.9369887 168.376626,68.0538016 167.534669,68.1663803 C166.231365,68.3389843 165.001107,68.5967696 163.628602,68.6737316 C162.73282,68.7255377 161.867796,68.9240449 160.972015,68.9576691 C160.27615,68.9845684 159.818648,69.2249189 159.218898,69.2498257 C158.25007,69.2901747 157.550361,69.6518214 156.520021,69.6296543 C155.985628,69.61745 155.428167,69.7621585 154.886085,69.8433546 C153.121435,70.105125 151.376007,70.4007686 149.58829,70.6204465 C148.800156,70.7163377 147.996644,70.7668985 147.250801,70.930038 C146.720252,71.0461036 146.185859,71.157437 145.636088,71.2446107 C145.044027,71.3387584 144.421209,71.3925571 143.829147,71.4849613 C143.194796,71.5855847 142.583512,71.7248137 141.941471,71.8251881 C141.191783,71.9427481 140.415183,72.0396356 139.653962,72.143995 C139.131102,72.2154775 138.612087,72.2896998 138.081539,72.3504723 C137.723995,72.3920667 137.347229,72.3990406 136.989685,72.4458654 C136.512961,72.5091286 136.059303,72.6147334 135.578734,72.6705246 C134.398456,72.8067648 133.198955,72.9126186 132.018677,73.0535911 C130.826865,73.1948126 129.646587,73.3569558 128.473998,73.5213407 C126.490208,73.7978061 124.517952,74.0854795 122.538006,74.3646846 C121.749873,74.4752708 120.95405,74.5753961 120.158227,74.6772649 C118.620405,74.8730323 117.082584,75.0640674 115.548607,75.2600838 C114.206857,75.4319407 112.884331,75.645641 111.519514,75.7624538 C111.058167,75.8013084 110.589132,75.8050445 110.120096,75.880512 C109.197403,76.0316963 108.247798,76.1529924 107.298193,76.2817605 C106.67922,76.3649492 106.056402,76.4359335 105.437429,76.5201185 C104.768477,76.6105301 104.111058,76.7173803 103.434416,76.804305 C103.088406,76.8488881 102.71164,76.8513788 102.36563,76.8974564 C101.719745,76.9848792 101.089238,77.0989523 100.439509,77.1873714 C99.5629503,77.3079203 98.6671691,77.413027 97.7829217,77.5298398 C97.2946633,77.5938503 96.814094,77.6688197 96.3296802,77.7368153 C95.4415881,77.8623455 94.5534961,77.9821472 93.6692487,78.1089228 C92.9810735,78.2075537 92.3005874,78.3154001 91.6124122,78.4130347 C91.174133,78.4743054 90.7320092,78.524119 90.2937301,78.5833972 C90.0669014,78.6150288 89.8400727,78.6581175 89.6093994,78.6942324 C88.7366856,78.8334614 87.8639718,78.9761773 86.9835689,79.1096777 C86.3838184,79.2010856 85.7686898,79.2780476 85.1612502,79.367463 C84.2770027,79.4967293 83.4081335,79.6815377 82.5085078,79.7497823 C81.6281049,79.8167815 80.8207485,79.943308 80.0018584,80.0870202 C79.2048824,80.229238 78.3833011,80.3438093 77.5594132,80.445429 C76.4548727,80.5829145 75.3572525,80.7253813 74.2700126,80.893004 C73.4311308,81.0242628 72.5238161,81.0668535 71.6584069,81.1746999 C71.1044066,81.2436917 70.5850074,81.3697201 70.0383118,81.4536559 C69.3370651,81.560257 68.6265915,81.6531594 67.9153489,81.7455636 C66.6454927,81.9109447 65.3667939,82.0621289 64.1065491,82.238718 C62.9804791,82.3973743 61.9585966,82.6701037 60.7244947,82.7286347 C59.9156005,82.7669911 59.1582233,83.0225348 58.3624006,83.1635073 C57.6753788,83.2853015 56.9691342,83.3896609 56.2628896,83.4860502 C55.0541617,83.6526767 53.8373603,83.8088423 52.6213278,83.9640116 C51.4829553,84.1089691 50.3426605,84.2506888 49.1981368,84.3854345 C48.0555352,84.5206784 46.8952488,84.6272795 45.759183,84.7767202 C44.5619888,84.9358746 43.39632,85.1428501 42.1987414,85.307733 C40.51598,85.5391171 38.8147648,85.7458435 37.1281588,85.9727444 C35.6141734,86.176731 34.1051858,86.3884388 32.5996584,86.6071204 C31.5335635,86.7617916 30.4809246,86.9423658 29.4079095,87.0930519 C28.8981216,87.1642853 28.3529638,87.1857052 27.833949,87.247225 C27.6013535,87.2746224 27.403359,87.3568148 27.1719168,87.3959185 C25.7525074,87.6392579 24.328869,87.8786122 22.9044616,88.1142304 C22.2493496,88.2235712 21.5823194,88.3194624 20.9222095,88.4278069 C20.1490696,88.5548316 19.3843878,88.6930643 18.6070189,88.8163529 C18.1383678,88.8895789 17.6512627,88.9354074 17.1814582,89.0048973 C16.2276243,89.1448735 15.2810951,89.2900801 14.3307213,89.436283 C13.4068749,89.5777535 12.5118627,89.7745172 11.5668713,89.8529736 C10.6015037,89.9331735 9.8045276,90.1750184 8.88875479,90.2868499 C8.59579976,90.323712 8.28631315,90.3381579 7.99797158,90.3814957 C6.61777662,90.5922072 5.23335265,90.8019224 3.8643069,91.0280761 C3.47908257,91.0923356 3.08616913,91.185487 2.79129182,91.3095228 C2.39376491,91.4741567 2.05736642,91.442276 1.6694509,91.3336824 C1.5771816,91.3067831 1.45031131,91.3055377 1.34573943,91.2831216 C0.806348479,91.1653125 0.26811089,91.0522357 0.357689003,90.7090201 C0.372682765,90.6569649 0.236970001,90.5862296 0.137011592,90.5389067 C-0.070978791,90.441272 0.00399001606,90.3745218 0.0639650617,90.2417686 C0.257730594,89.8026619 1.22655825,89.7264471 1.69713169,89.4240786 C2.20768849,89.0928183 2.82781508,88.7939368 3.41641633,88.4853416 C3.97233887,88.1916905 4.55863339,87.9087494 5.11263365,87.6133548 C5.78735291,87.2524554 6.44246495,86.884333 7.09988372,86.5162106 C7.67041556,86.1936676 8.24709869,85.8716228 8.79225648,85.538619 C9.75608622,84.9480789 10.6910818,84.346829 11.6564494,83.7552926 C12.0362913,83.5214179 12.4703415,83.3047288 12.8651772,83.0760844 C13.4991442,82.7099546 14.1234998,82.3403378 14.7490088,81.9714682 C15.2810951,81.6558991 15.8239461,81.3410772 16.3441143,81.0195306 C17.0911112,80.5540226 17.8111962,80.0768085 18.5678045,79.6135421 C19.015695,79.3400655 19.5585461,79.0972243 19.9802937,78.8170229 C20.654244,78.3694478 21.2316961,77.89323 21.9102599,77.4469002 C22.4781006,77.0730493 23.1374416,76.727343 23.7468034,76.3664436 C23.8878986,76.2820095 23.9870881,76.1841258 24.1139584,76.0924688 C24.7948289,75.6075336 25.4457119,75.1113903 26.1796373,74.6401538 C26.7240262,74.2892171 26.686734,74.0897137 25.8516969,73.8874705 C24.7602279,73.625202 23.6460761,73.3823608 22.5657564,73.1133674 C22.0509706,72.9868409 21.6003888,72.8047722 21.0836807,72.6767513 C20.3220746,72.4882069 19.5008778,72.345491 18.7477296,72.143995 C17.9588271,71.9315401 17.2387421,71.6655355 16.4632955,71.4403781 C16.2160907,71.3696428 15.8743098,71.3683975 15.6044221,71.3098665 C15.0046716,71.179604 14.4279885,71.0274235 13.8278536,70.8956666 C13.2181073,70.7606718 12.4937933,70.6879439 11.9974613,70.4964107 C11.1232097,70.160169 10.0517324,70.0152115 9.0775224,69.7808385 C8.36243532,69.6097289 7.58698874,69.4812098 6.81192661,69.3746088 C5.32562195,69.1711203 4.08344649,68.7663849 2.75899756,68.4296451 C1.9816287,68.2318851 1.24578103,68.0017464 0.48302147,67.7917821 C-0.0755922561,67.6353674 -0.181317497,67.0650019 0.357689003,66.9036059 C0.749064622,66.7885365 0.950134807,66.6231554 0.936294412,66.4395923 C0.917071641,66.2301262 1.24578103,66.1461903 1.50759517,66.1501754 C2.49103213,66.1626288 3.20265912,65.8607585 4.06960609,65.7422021 C5.21259206,65.5847912 6.31521021,65.3735816 7.43474439,65.1822974 C8.1659786,65.0565181 8.9033641,64.9553966 9.68803761,64.8898917 C10.5265349,64.821398 11.3031348,64.6022182 12.1197181,64.4707104 C13.2415591,64.2916305 14.3776248,64.1257513 15.5152284,63.9683404 C15.9135242,63.9135454 16.3552635,63.9185268 16.7466391,63.8589996 C18.0387938,63.6647266 19.3155703,63.4510263 20.6011892,63.2490322 C20.8160998,63.215159 21.0413906,63.1972261 21.2682193,63.1755572 C22.4277369,63.0662163 23.5949436,62.9753066 24.7394673,62.844795 C25.8516969,62.7162759 26.9412435,62.5446681 28.0442461,62.3982162 C28.2103309,62.3758001 28.3990985,62.3723131 28.5651832,62.3870081 C29.5140192,62.4704459 30.3525165,62.4029485 31.1829402,62.1536315 C31.6865768,62.0029454 32.3647562,61.9735554 32.9475906,61.869694 C34.1974551,61.6437894 35.4296348,61.3982084 36.6848817,61.1775343 C37.1396925,61.0960891 37.6317954,61.0539966 38.1162093,61.0101606 C38.5817848,60.9660756 39.0573561,60.9414179 39.5329275,60.912526 C40.1976509,60.8739205 40.8073972,60.7546169 41.3168006,60.5737936 C41.9219335,60.3605915 42.5562849,60.245024 43.3225046,60.2629568 C43.5078121,60.267191 43.6919662,60.230578 43.8765048,60.2280873 C45.3435867,60.2079128 46.7741453,60.1660694 48.0555352,59.7650701 C48.285824,59.6933385 48.6414453,59.7013087 48.9966821,59.7092788 C49.1546933,59.7127658 49.31232,59.7162527 49.459182,59.7127658 C49.50647,59.7115205 49.5576026,59.7147583 49.6079662,59.7179962 C49.692162,59.7232266 49.7736665,59.7284571 49.8305659,59.7132639 C51.3472426,59.3189894 53.0526868,59.2245927 54.7139187,59.0557246 C55.2313957,59.0026731 55.7158095,58.8886 56.2213684,58.811638 C57.1325277,58.6726581 58.0744435,58.5663061 58.9598444,58.4019213 C59.9156005,58.2245849 60.8525184,58.0721554 61.877861,57.9710338 C63.0266138,57.8557153 64.1034734,57.5807444 65.2060916,57.3715273 C66.077652,57.2056481 66.9322964,57.0180999 67.8230796,56.8711498 C68.3770799,56.7794928 68.9902863,56.7595674 69.5631249,56.6860924 C70.8687355,56.516228 72.1716549,56.332665 73.4772655,56.1525889 C74.6083333,55.9976686 75.7394012,55.8427484 76.8654711,55.6848393 C77.8123848,55.5523352 78.7519939,55.4168422 79.6939097,55.2796058 C80.9360851,55.0995297 82.1509642,54.8706363 83.4235117,54.748842 C84.5961007,54.6367615 85.5610838,54.3311551 86.6644709,54.1597964 C87.844749,53.9769805 89.0058044,53.7632803 90.1899271,53.5876874 C90.8781023,53.487313 91.6008785,53.4424808 92.3005874,53.3560542 C92.596618,53.3206866 92.8657368,53.2404867 93.1502338,53.1841973 C93.3347724,53.1468371 93.5270002,53.1000124 93.7230724,53.0845702 C94.8072367,53.0026268 95.7568416,52.7894247 96.7179801,52.5548027 C97.4599791,52.3737303 98.3096256,52.2805789 99.116982,52.1605282 C100.304949,51.9821955 101.515984,51.8290187 102.696262,51.6397271 C104.076457,51.4188039 105.418206,51.1555391 106.798401,50.9410916 C108.090171,50.7405919 109.39732,50.5542891 110.719847,50.4058446 C113.203429,50.1266395 115.6947,49.8636237 118.197505,49.6230241 C119.639212,49.4855386 121.111677,49.4120636 122.561074,49.2945035 C123.729818,49.2011031 124.894718,49.0969927 126.048084,48.9749494 C127.066891,48.8668539 128.047252,48.6793058 129.073748,48.6113102 C130.969114,48.4882707 132.710697,48.1537724 134.509948,47.9002213 C136.336111,47.6429341 138.143052,47.3612383 139.949992,47.0805387 C140.807328,46.9482837 141.622373,46.7325909 142.498932,46.659614 C143.859904,46.5485297 145.082472,46.2795363 146.378087,46.1074304 C147.481474,45.9627219 148.71942,45.9036928 149.634424,45.6302162 C150.803169,45.2802758 152.12954,45.3121565 153.340575,45.1054301 C154.901464,44.8381802 156.477731,44.5868707 158.065532,44.3587245 C159.376525,44.1714254 160.722119,44.0316983 162.040801,43.8635774 C162.652085,43.7846229 163.244146,43.6777727 163.851586,43.6008108 C164.904994,43.469801 165.97378,43.3604602 167.019498,43.2264617 C167.542358,43.1592133 168.04215,43.0466346 168.561165,42.9719142 C170.022095,42.7626972 171.479181,42.5552236 172.947801,42.3604525 C174.151146,42.1998037 175.366026,42.0608238 176.569371,41.9044091 C176.819267,41.8720303 177.038407,41.7858528 177.288303,41.7529758 C177.995701,41.6565865 178.741544,41.6005462 179.433564,41.4849787 C180.598464,41.2897095 181.840255,41.2309294 182.989777,40.9743895 C184.020117,40.7435035 185.238841,40.6844744 186.357606,40.5278107 C186.845864,40.4595661 187.284144,40.3265638 187.764713,40.2426279 C188.375997,40.1367741 189.010348,40.0548307 189.629322,39.9559507 C189.929197,39.9078806 190.232917,39.8570708 190.509725,39.7835957 C191.397817,39.5497209 192.255152,39.2961698 193.150933,39.0667782 C193.489254,38.9798535 193.87371,38.9629169 194.21203,39.1066291 C194.461926,39.2132302 194.800247,39.289694 194.996319,39.4117373 C195.219304,39.5492228 195.411531,39.7153511 195.484578,39.8812304 C195.68065,40.3395153 195.861344,40.8027817 195.94208,41.2677915 C195.999748,41.5893382 195.884411,41.9166134 195.842121,42.2416471 C195.822899,42.3888462 195.776764,42.534551 195.761386,42.6827464 C195.726785,43.0244676 195.68065,43.3666869 195.68065,43.7086572 C195.676805,44.0147617 195.742163,44.320368 195.753697,44.6264725 C195.76523,44.9525024 195.749852,45.2802758 195.742163,45.607551 C195.738318,46.0060597 195.730629,46.4050665 195.726785,46.8040733 C195.72294,46.8653441 195.776764,46.9433023 195.715251,46.9841495 C195.111656,47.3619855 195.442288,47.7866463 195.392308,48.1908836 C195.353863,48.5253818 195.384619,48.8621216 195.380775,49.1976161 C195.380775,49.3480531 195.392308,49.4984902 195.380775,49.6489272 C195.350018,50.0940116 195.265438,50.5395941 195.280816,50.9849275 C195.288506,51.3027382 195.449977,51.6185563 195.484578,51.9376124 C195.519179,52.2302672 195.449977,52.5264089 195.465355,52.82006 C195.484578,53.0574218 195.573003,53.2920437 195.611448,53.5289073 C195.634515,53.6698798 195.611448,53.8125957 195.626826,53.9525719 C195.649894,54.2253013 195.715251,54.4980306 195.711406,54.7700128 C195.703717,55.1742501 195.622982,55.5782382 195.626826,55.9817283 C195.630671,56.354832 195.715251,56.7266904 195.738318,57.0997942 C195.753697,57.4088875 195.772919,57.7212187 195.696028,58.0288175 C195.59607,58.4584597 195.465355,58.877392 195.919012,59.2913429 C196.045883,59.4096501 195.919012,59.5800126 195.961302,59.7234757 C196.018971,59.9217338 196.145841,60.1172521 196.188131,60.3157592 C196.218888,60.4759099 196.157375,60.6388003 196.15353,60.8009436 C196.15353,60.9110316 196.176598,61.0216177 196.211199,61.1317058 C196.299623,61.4313345 196.018971,61.7234912 196.191976,62.0298447 C196.361136,62.3215032 196.418804,62.6276077 196.518763,62.9264892 C196.599498,63.1623566 196.699457,63.3982239 196.71868,63.6358347 C196.726369,63.7025849 196.368825,63.7807922 196.384203,63.8445536 C196.399582,63.9175305 196.726369,63.9703329 196.772503,64.0490384 C196.922441,64.2881436 196.334224,64.6440617 195.795987,64.7063286 C195.011698,64.7979856 194.235098,64.9113115 193.450809,65.0067046 C192.981773,65.0637411 192.505048,65.103841 192.032168,65.1516621 L192.005256,65.1008522" id="Fill-20"></path>
                <path d="M86.4499383,48.085968 C87.0060259,48.1312452 87.4491218,48.1765224 87.8959529,48.2025036 C88.6093885,48.2439823 89.3270263,48.2672287 90.0399951,48.3090113 C90.8136619,48.3548963 91.5831265,48.4234198 92.3579606,48.4626195 C93.2271101,48.5068332 94.1013956,48.5373725 94.97358,48.5598591 C96.0521378,48.5894868 97.1327968,48.6040728 98.2099539,48.627623 C98.5078413,48.6340043 98.8019934,48.6485903 99.0977797,48.6583142 C99.3692868,48.6672785 99.642895,48.6672785 99.9120675,48.6838396 C100.298667,48.7078457 100.747133,48.815417 101.055526,48.7596561 C101.405473,48.6952349 101.740013,48.7133154 102.073619,48.7312439 C102.303571,48.7437028 102.533056,48.7560097 102.766744,48.7415757 C103.362285,48.7052627 103.98444,48.7713553 104.594923,48.786549 C105.161516,48.8012868 105.727875,48.8061488 106.294002,48.8187596 C106.579516,48.8251409 106.86433,48.8480834 107.148443,48.8480834 C107.618386,48.8480834 108.120079,48.786397 108.55267,48.8401827 C109.086112,48.9062752 109.616753,48.89959 110.145527,48.8932087 C110.461624,48.8892583 110.777254,48.8853079 111.092417,48.8970071 C111.294121,48.904452 111.49279,48.8960955 111.69286,48.8878909 C111.994483,48.8754321 112.298907,48.8629732 112.619673,48.904452 C113.187433,48.9779895 113.810989,48.9626438 114.413067,48.9798127 C114.961451,48.9950064 115.532246,48.9668981 116.057284,49.0232666 C116.564814,49.0782678 117.055767,49.0844972 117.565631,49.0806988 C118.095805,49.0765965 118.62598,49.1063761 119.156854,49.1071358 C119.615124,49.1077436 120.075262,49.0844972 120.532832,49.0791794 C120.610106,49.0784197 120.68878,49.0855608 120.766753,49.0928537 C120.86387,49.101818 120.95982,49.1107823 121.0511,49.104249 C121.590846,49.0639857 122.134094,49.0255457 122.654463,48.9555028 C123.547892,48.8354726 124.424278,48.6934117 125.308836,48.5584917 C125.821034,48.4805481 126.334166,48.4019967 126.845431,48.3199508 C127.398717,48.2310677 127.949668,48.1358033 128.502955,48.0461605 C128.794772,47.9993639 129.128611,47.9858416 129.369069,47.9098731 C130.060093,47.6922995 130.877182,47.6344115 131.631239,47.4996435 C131.983755,47.4361339 132.359616,47.39739 132.712131,47.3335765 C132.901229,47.2992387 133.052974,47.2007836 133.239738,47.1901481 C133.928427,47.1477577 134.505059,46.9710551 135.163399,46.8934153 C135.361835,46.8694093 135.576613,46.8648512 135.77038,46.8346157 C136.307324,46.752114 136.858276,46.6960493 137.381213,46.5827044 C137.906485,46.468144 138.518134,46.4360853 139.090097,46.3625478 C139.535994,46.3051157 139.972553,46.234465 140.420785,46.1787042 C140.88069,46.1211201 141.352267,46.0796413 141.812171,46.0197782 C142.24873,45.9632577 142.673617,45.8847063 143.11251,45.8297051 C144.029985,45.7140812 144.973139,45.6563452 145.895283,45.5407212 C146.635332,45.4484955 147.431411,45.4243375 148.178464,45.3146391 C148.341882,45.2910889 148.556659,45.3109926 148.687394,45.2701216 C149.231342,45.098281 149.880344,45.0756424 150.48499,44.9887345 C151.000924,44.9138296 151.537868,44.867033 152.060805,44.7998769 C152.733153,44.7141845 153.400832,44.619072 154.073179,44.5292773 C154.402349,44.4853675 154.733854,44.4417617 155.067694,44.4031697 C155.31282,44.3739978 155.567285,44.3588041 155.812412,44.3272012 C156.22796,44.2728078 156.636505,44.2067153 157.054388,44.1524738 C157.60067,44.0816712 158.156291,44.0246949 158.697904,43.9488784 C159.479976,43.8405474 160.255043,43.7220366 161.030111,43.6058049 C161.688451,43.5070459 162.353795,43.4125412 163.000463,43.3014753 C163.387997,43.2362944 163.735843,43.1159603 164.130381,43.0700754 C164.772379,42.9959302 165.423716,42.9343958 166.047039,42.8271283 C166.259482,42.7905115 166.49994,42.7830666 166.717052,42.7523754 C167.249327,42.6789898 167.772264,42.5910184 168.306874,42.5259894 C168.827477,42.4615682 169.301389,42.3389551 169.87802,42.3360683 C170.253881,42.3336373 170.671764,42.2705835 170.993931,42.180181 C171.442162,42.0552889 171.951092,42.0510347 172.415666,41.9670136 C172.667796,41.9206728 172.954945,41.9109489 173.221082,41.8782824 C173.475547,41.8474392 173.725343,41.8003388 173.982143,41.773446 C174.355669,41.734854 174.740868,41.71571 175.114395,41.6742312 C175.840437,41.5932488 176.56181,41.5046696 177.283183,41.4150269 C177.668383,41.3670148 178.086265,41.3674706 178.422439,41.2422746 C178.562512,41.1904641 178.749275,41.1395653 178.919696,41.1342475 C180.030938,41.0976307 181.027787,40.8871981 182.075995,40.7518223 C182.531231,40.6928708 182.988801,40.6386293 183.444036,40.5780065 C183.973977,40.5069001 184.503918,40.4312355 185.033859,40.3561787 C185.561465,40.2814257 186.082067,40.1992279 186.614343,40.1302485 C186.959855,40.0854271 187.324043,40.0716009 187.662551,40.0203981 C187.954369,39.9764884 188.222841,39.8993044 188.53567,39.8291096 C188.386259,39.8291096 188.264863,39.8336677 188.143467,39.828046 C187.774609,39.8123965 187.408086,39.7829208 187.036895,39.7766914 C186.166111,39.7608899 185.288324,39.7707658 184.41754,39.7405304 C183.34832,39.7042175 182.286104,39.6422272 181.223888,39.5847951 C180.346101,39.5370869 179.472983,39.4711463 178.59753,39.4279962 C177.829466,39.38986 177.056733,39.372995 176.288669,39.3432154 C175.968837,39.3312124 175.649005,39.303408 175.329173,39.2935321 C174.759545,39.2765151 174.192251,39.271957 173.624958,39.2544843 C173.048326,39.2360999 172.481033,39.2101187 171.909071,39.1839856 C171.463173,39.1631702 171.007938,39.156333 170.573713,39.1078652 C170.183845,39.0633477 169.819657,39.0068271 169.406443,39.0557508 C169.201003,39.0796049 168.969884,39.0724639 168.752771,39.0641073 C167.797944,39.0247557 166.843117,38.9825172 165.88829,38.9367842 C165.363018,38.9114108 164.842416,38.8779847 164.321813,38.8462298 C163.999646,38.8257184 163.682149,38.7933558 163.359982,38.780897 C162.918754,38.7635762 162.472857,38.7733001 162.036298,38.7462554 C161.359281,38.7040169 160.689268,38.6329105 160.009916,38.5903681 C159.400601,38.5517762 158.784282,38.5247314 158.167964,38.5095377 C157.488612,38.491913 156.806926,38.494344 156.125241,38.4859875 C155.779729,38.482341 155.429547,38.4861394 155.088704,38.4651721 C154.694167,38.4408622 154.339317,38.3572969 153.895754,38.4005989 C153.421842,38.44618 152.968941,38.4923688 152.532382,38.5912797 C152.058471,38.699003 151.561213,38.7874303 151.063956,38.8705397 C150.501332,38.9635251 149.9247,39.0340238 149.362076,39.1270092 C148.787779,39.2221217 148.288187,39.3789206 147.61117,39.3737547 C147.165273,39.3698044 146.717041,39.5142964 146.266475,39.5885935 C145.874272,39.6533186 145.482069,39.7277677 145.073525,39.7707658 C144.349817,39.8467343 143.607433,39.8857821 142.888395,39.9705628 C141.574048,40.1255385 140.266705,40.2937326 138.964032,40.4724104 C138.287015,40.5653958 137.635678,40.6991002 136.96333,40.8012018 C136.239623,40.911508 135.499573,41.0031259 134.771196,41.109026 C134.241256,41.1857541 133.720653,41.2722062 133.195381,41.3534924 C132.728473,41.426726 132.259231,41.4976805 131.792322,41.5724335 C131.262382,41.6573662 130.73711,41.7483764 130.207169,41.8313339 C129.92469,41.8753956 129.630538,41.9027443 129.350393,41.9461982 C129.067913,41.9895002 128.801776,42.0545292 128.514627,42.0908421 C127.954337,42.1604292 127.382375,42.2125436 126.819751,42.2792439 C126.506922,42.3163165 126.210436,42.3857516 125.892938,42.4108212 C125.172499,42.4693169 124.528165,42.630522 123.797221,42.6940316 C122.984334,42.7657458 122.208332,42.9263431 121.412254,43.0433345 C120.722397,43.1451322 120.03861,43.2659221 119.333112,43.328672 C118.891183,43.3678717 118.545204,43.5132753 118.043979,43.4956506 C117.740955,43.4847112 117.423925,43.6184156 117.101291,43.6726571 C115.899236,43.875037 114.694613,44.0757457 113.486255,44.2684017 C112.83305,44.3727823 112.162804,44.4574111 111.50423,44.5558663 C110.923863,44.6433819 110.352367,44.7450277 109.767798,44.8270736 C108.878105,44.9507502 107.981408,45.0656145 107.087045,45.180023 C106.461855,45.2593341 105.8397,45.3359103 105.210775,45.4071687 C104.749236,45.459283 104.258982,45.4735651 103.824291,45.5528761 C102.893743,45.7230454 101.935414,45.8418601 100.968914,45.955205 C100.242872,46.0410494 99.5362065,46.1580408 98.8157672,46.2578633 C98.5760098,46.2909855 98.3271478,46.3110412 98.0859897,46.3421883 C97.6835149,46.3936949 97.2794059,46.4442899 96.8848685,46.5033933 C96.422396,46.5726765 95.9739307,46.6594325 95.5102909,46.7240057 C94.9605066,46.8005819 94.3957812,46.8551272 93.8459968,46.9313995 C93.1204216,47.0333492 92.3985816,47.1428957 91.6839787,47.2588235 C91.2509214,47.3281068 90.8442444,47.4282332 90.4086191,47.4932622 C89.4864755,47.6316767 88.5549937,47.7538339 87.6298152,47.88845 C87.2609578,47.9419318 86.9040065,48.0092398 86.4499383,48.085968 M167.566825,38.4806697 C167.706897,38.3352661 168.040737,38.4180717 168.313878,38.429467 C168.8088,38.4499784 169.306058,38.4881146 169.793977,38.5245794 C169.92938,38.5343034 170.067118,38.5557265 170.186179,38.5845945 C170.674098,38.7040169 171.227385,38.670135 171.715304,38.6503832 C172.322284,38.626833 172.845221,38.7485344 173.391504,38.7526367 C173.839736,38.7559793 174.29964,38.8831505 174.778221,38.7576506 C174.927632,38.7190587 175.217115,38.7963945 175.4459,38.8112844 C175.828764,38.836202 176.209295,38.8574732 176.596828,38.8719072 C177.007707,38.8880125 177.420921,38.8977365 177.834135,38.9029023 C177.897168,38.903662 177.964869,38.896369 178.027902,38.8890761 C178.102607,38.8808715 178.174978,38.8725149 178.245014,38.8758575 C178.613872,38.8943938 178.980394,38.9266045 179.346917,38.9527376 C179.454306,38.9601825 179.56403,38.9648926 179.673753,38.9703623 C180.294741,39.0007497 180.915729,39.0323525 181.539051,39.0603089 C181.639436,39.0644112 181.746825,39.0498253 181.84721,39.0492175 C181.996621,39.0492175 182.150701,39.0443556 182.293108,39.0586376 C182.78803,39.1064977 183.278284,39.1513191 183.798887,39.137189 C184.226107,39.1253379 184.660332,39.1768445 185.092222,39.1873282 C185.568468,39.1979637 186.049384,39.1894553 186.52563,39.1970521 C187.078916,39.2063203 187.629868,39.2230333 188.180819,39.2373154 C188.481975,39.2441526 188.785466,39.2570672 189.086621,39.2582827 C189.812663,39.2616253 190.543375,39.2751477 191.264748,39.2535727 C191.703641,39.2409619 191.969779,39.3848461 192.338637,39.4248055 C192.368986,39.4287559 192.385327,39.467044 192.401669,39.4899865 C192.469371,39.5771982 192.569756,39.6641061 192.586098,39.7542047 C192.607109,39.8836549 192.455364,39.9910743 192.177553,40.0284508 C191.344122,40.1395167 190.51536,40.263953 189.663253,40.3323246 C189.320075,40.3607368 189.032927,40.403431 188.722433,40.4692197 C188.388594,40.5398704 187.982384,40.5331851 187.622864,40.5822608 C187.155956,40.6453146 186.707724,40.7314628 186.24782,40.805608 C185.902308,40.860913 185.545123,40.904215 185.20428,40.9674208 C184.697685,41.0622294 184.181751,41.1181422 183.62613,41.1395653 C183.215251,41.1559745 182.827718,41.2732697 182.421507,41.3320693 C182.080665,41.3806891 181.728149,41.4106207 181.380302,41.4478452 C181.363961,41.4495165 181.347619,41.4492127 181.331277,41.4487568 C181.307932,41.4481491 181.286921,41.4475413 181.272913,41.4519475 C180.607569,41.6377663 179.811491,41.5953759 179.10646,41.708417 C178.912693,41.7392602 178.74694,41.8033775 178.550839,41.8305743 C178.186651,41.8820809 177.80612,41.9141395 177.434928,41.9621516 C177.091751,42.0054536 176.760246,42.0674439 176.414734,42.1067955 C176.157935,42.1356635 175.87779,42.1282186 175.623325,42.1625564 C175.184431,42.2221156 174.766548,42.3155568 174.32532,42.3701021 C173.74402,42.4407528 173.148712,42.4895245 172.558073,42.5419428 C172.24291,42.5705069 171.871718,42.5502993 171.607915,42.6176073 C171.271741,42.7031478 170.919225,42.7377894 170.56671,42.7876247 C170.060114,42.8588831 169.560523,42.9421445 169.053927,43.0147704 C168.166802,43.1423974 167.277342,43.2713918 166.380878,43.3886871 C166.040035,43.4339643 165.666509,43.4339643 165.323331,43.4804569 C164.980154,43.5271016 164.660322,43.6100591 164.321813,43.6690106 C163.689153,43.7797726 163.054157,43.8893191 162.412159,43.9899013 C161.483012,44.1359127 160.546861,44.2744791 159.571023,44.3507515 C159.206834,44.3794675 158.865991,44.4668312 158.511141,44.5239595 C157.871477,44.6268208 157.236482,44.7372789 156.585145,44.82601 C155.940812,44.9138296 155.280137,44.9785547 154.626465,45.0530038 C154.570436,45.0593851 154.509738,45.0589293 154.456044,45.0694129 C153.596933,45.2290986 152.693466,45.3105368 151.797002,45.4114229 C151.091971,45.4907339 150.40795,45.603775 149.709923,45.6922023 C149.355072,45.7367198 148.98388,45.7557119 148.624361,45.7950635 C148.232158,45.8386694 147.844625,45.8924551 147.454756,45.9412268 C146.966837,46.0026093 146.478918,46.0715887 145.98633,46.123855 C145.521757,46.1726267 145.043176,46.1914669 144.585606,46.2473797 C144.008974,46.3177264 143.453353,46.4108638 142.837035,46.4161815 C142.538213,46.4184606 142.253399,46.5304381 141.94524,46.5669029 C140.88069,46.6925547 139.806801,46.7995183 138.744585,46.9289685 C138.455102,46.9637621 138.205306,47.0719412 137.913488,47.1097734 C137.479264,47.1658382 137.007686,47.1716118 136.573462,47.2316268 C136.04819,47.3036449 135.546264,47.4115201 135.035,47.500859 C134.652135,47.5675593 134.322965,47.7153939 133.856056,47.6637354 C133.832711,47.6605447 133.793024,47.6723958 133.762675,47.678929 C133.305105,47.77784 132.8452,47.8779664 132.382961,47.9732308 C132.331601,47.9834106 132.270903,47.9829548 132.207871,47.9826509 C132.184525,47.9824989 132.158845,47.982347 132.1355,47.9828028 C132.105151,47.9832586 132.070133,47.9818912 132.037449,47.9805238 C131.972082,47.9777889 131.90438,47.975206 131.855355,47.9866012 C131.383778,48.0871835 130.928542,48.20144 130.454631,48.2971602 C130.106784,48.3673551 129.742596,48.4177981 129.378407,48.4715838 C129.151957,48.504858 128.909165,48.5198997 128.685049,48.5571243 C128.211137,48.6343082 127.737225,48.716658 127.274986,48.8044775 C126.794071,48.8962474 126.324828,49.0044265 125.839244,49.0934615 C125.23273,49.2048312 124.627383,49.3315466 123.993322,49.3977911 C123.663218,49.4324327 123.367432,49.4722402 123.105029,49.5608194 C122.951183,49.6133895 122.839359,49.694068 122.680376,49.7439033 C122.55898,49.7824953 122.387625,49.8177446 122.244751,49.8131865 C121.482524,49.7900921 120.722397,49.7489172 119.961103,49.7246073 C119.846477,49.7209608 119.729517,49.7296213 119.61279,49.7381297 C119.483223,49.7475498 119.354123,49.7571218 119.229225,49.7499808 C118.261091,49.694068 117.281984,49.7528676 116.316418,49.6887502 C115.731382,49.6497024 115.147747,49.5981958 114.556408,49.5746456 C113.870287,49.5468412 113.177395,49.5422831 112.486604,49.5286087 C112.266457,49.5238987 112.048178,49.523139 111.82803,49.5167577 C110.885343,49.4898648 109.943122,49.4535519 109.000435,49.4347117 C108.516951,49.4246839 108.032301,49.4252917 107.547416,49.4257475 C107.336141,49.4258994 107.124865,49.4260513 106.913355,49.4254436 L106.879504,49.4263552 C106.653054,49.352362 106.416098,49.3707463 106.178675,49.3889787 C106.036969,49.3999182 105.894795,49.4108577 105.754723,49.4020453 C105.223381,49.3696828 104.684569,49.3532736 104.148092,49.3380799 C103.722505,49.3256211 103.294817,49.3272924 102.870164,49.3183281 C102.293999,49.3049576 101.719235,49.2832307 101.143771,49.2716835 C100.432904,49.2569456 99.7211021,49.2567936 99.0123355,49.2362822 C98.2664497,49.2145552 97.5224316,49.1718609 96.7739778,49.1495262 C96.6103265,49.1449681 96.4450411,49.1518053 96.2792887,49.1587944 C96.1424846,49.164568 96.0052136,49.1703416 95.8688764,49.1695819 C95.6907509,49.1685183 95.5140262,49.1285589 95.3345,49.1252163 C94.7798131,49.1151885 94.2248928,49.1206582 93.6730074,49.1071358 C93.2873412,49.0980196 92.9070446,49.0639857 92.5232461,49.0475765 C92.1483188,49.0311674 91.7680221,49.0305596 91.3956629,49.0092885 C90.8659556,48.9785972 90.3399836,48.9348394 89.8135446,48.8970071 C89.6730053,48.8869793 89.5357343,48.8696585 89.3965956,48.8704181 C89.1206529,48.8713298 88.8512469,48.8523376 88.5802068,48.8333455 C88.2311929,48.8087318 87.8796111,48.7842699 87.5093529,48.8021985 C86.9527984,48.829699 86.3600585,48.716658 85.7822597,48.666215 C85.7379034,48.6616568 85.688878,48.6599855 85.6424207,48.6590739 C84.6892277,48.6373469 83.7362682,48.6197223 82.7847094,48.5916139 C82.5608269,48.5844729 82.3262056,48.5533258 82.1219332,48.5077448 C82.0185131,48.4843465 81.9704216,48.4073145 81.9059882,48.3527691 C81.8838101,48.3352964 81.907389,48.2982238 81.8821759,48.2915386 C81.5457686,48.2059981 81.7252948,48.1183305 81.8499592,48.0180522 C81.9888644,47.9065305 82.1779622,47.9214203 82.4160854,47.9098731 C83.0947364,47.8767509 83.7607808,47.7951608 84.4370973,47.7538339 C85.0144292,47.7182807 85.5102857,47.5892863 86.0516657,47.512862 C86.9483628,47.3867544 87.8424919,47.2611026 88.736621,47.1331717 C89.2432163,47.0600901 89.7484109,46.9859449 90.2501037,46.9070896 C90.7466606,46.8292979 91.2366807,46.7431497 91.7332375,46.6664216 C91.9291054,46.6360342 92.1366461,46.6035197 92.3383504,46.6038236 C92.8316389,46.6059507 93.235281,46.5245125 93.6491951,46.4088886 C93.957121,46.3224365 94.3493238,46.2973669 94.7039406,46.244189 C94.8977075,46.2150171 95.085638,46.1732345 95.2857081,46.155154 C95.9512857,46.094835 96.6236334,46.0560911 97.2826743,45.9819459 C97.6417266,45.9412268 97.9680954,45.8461143 98.3112729,45.7781985 C98.6700918,45.7069401 99.0200395,45.6189687 99.3944998,45.5739954 C99.7743296,45.5287182 100.178205,45.5262872 100.570641,45.5038005 C100.62667,45.5007618 100.708146,45.5000021 100.732892,45.4838968 C101.010469,45.3109926 101.478077,45.322084 101.857207,45.2486985 C102.260615,45.1707549 102.681066,45.1063336 103.104085,45.0546751 C103.378627,45.021097 103.670211,45.021097 103.953624,45.0057514 C103.98444,45.0040801 104.018291,44.9990662 104.050508,44.99466 C104.635544,44.9121583 105.223381,44.8325433 105.805849,44.7465471 C106.015024,44.7163116 106.204122,44.6594872 106.417499,44.6366967 C107.043856,44.5663499 107.683987,44.5151472 108.306376,44.4397865 C108.572747,44.4075758 108.816706,44.3387484 109.060666,44.2794931 C109.699163,44.1249732 110.388786,44.0964091 111.098253,44.0833425 C111.326338,44.0784805 111.577768,44.036546 111.773636,43.9794177 C112.389954,43.7990686 113.054365,43.6775191 113.763598,43.5976003 C113.875656,43.5849895 113.993784,43.5807353 114.110978,43.5804314 C114.460692,43.5798237 114.720526,43.4775701 115.021449,43.4222651 C115.492559,43.3370285 115.96577,43.2533113 116.436881,43.1689863 C116.90519,43.0848133 117.3763,43.0026154 117.84134,42.9166191 C118.147632,42.8596428 118.438516,42.7841302 118.750644,42.7394607 C119.082849,42.6920564 119.437699,42.6780782 119.775274,42.6378149 C120.283737,42.5781038 120.805974,42.5273568 121.287589,42.4366505 C121.748194,42.3506542 122.208332,42.2831942 122.701854,42.2473371 C122.923169,42.230776 123.122305,42.1583021 123.343619,42.1286744 C123.730686,42.0771678 124.125224,42.0393355 124.51766,41.9969451 C124.836091,41.9624555 125.161993,41.9428556 125.468285,41.8939319 C125.774577,41.8451602 126.054021,41.7634181 126.355177,41.7065937 C126.476573,41.6841071 126.625984,41.6904884 126.761387,41.6841071 C126.784733,41.6828916 126.810412,41.6831955 126.836092,41.6833474 C126.889787,41.6838032 126.943481,41.684259 126.976165,41.6725599 C127.557466,41.4557459 128.306853,41.4805117 128.969863,41.3823604 C129.320044,41.3305499 129.656218,41.2624822 129.999395,41.202923 C130.15114,41.1769417 130.302885,41.1492892 130.4593,41.1318165 C131.06628,41.0637488 131.682599,41.0134577 132.275572,40.928373 C132.76816,40.8578743 133.22573,40.7451371 133.704311,40.6550385 C133.832711,40.6308806 133.968114,40.6211566 134.096514,40.6014048 C134.642797,40.5170798 135.189079,40.4326029 135.733027,40.3453911 C136.372691,40.2420741 136.96333,40.0949991 137.659023,40.0430367 C138.333706,39.9947208 138.968701,39.8505327 139.627041,39.7563318 C140.154647,39.6808192 140.682254,39.6057624 141.221532,39.551369 C142.146011,39.4568642 143.089165,39.3915313 144.008974,39.2879104 C144.835402,39.194925 145.640818,39.064867 146.457907,38.9559283 C147.097572,38.8705397 147.76525,38.8176657 148.379234,38.703713 C149.053917,38.5776054 149.789297,38.5254911 150.419623,38.3398242 C150.748793,38.2431923 151.157338,38.2000423 151.526195,38.1313668 C152.408652,37.9654517 153.288774,37.7964979 154.175899,37.6346851 C154.297295,37.6123504 154.502735,37.5956373 154.586778,37.6249611 C154.943963,37.7445355 155.315155,37.7138442 155.705023,37.6907498 C155.812412,37.6842165 155.929139,37.7340518 156.050535,37.7448393 C156.676192,37.8015118 157.304184,37.8542339 157.932175,37.9072599 C158.424763,37.9487386 158.912682,37.9938639 159.40527,38.0245551 C159.543008,38.0335194 159.685415,38.0327597 159.825488,38.0318481 C159.958556,38.0310884 160.091625,38.0304807 160.224694,38.0380775 C160.848016,38.0746943 161.469004,38.1222506 162.089992,38.164641 C162.554566,38.1973074 163.019139,38.2281506 163.483713,38.2629441 C163.572426,38.2690216 163.665807,38.2802649 163.747516,38.2978896 C164.022992,38.3551698 164.275122,38.3922424 164.611296,38.3703635 C164.982488,38.3455978 165.381695,38.4050051 165.764559,38.4299228 C165.977002,38.443749 166.184777,38.4732248 166.39722,38.4782387 C166.773081,38.4861394 167.148942,38.4806697 167.566825,38.4806697" id="Fill-21"></path>
                <path d="M225.556625,5.61035733 C226.365777,5.40313282 227.250662,5.48532524 228.063799,5.37598442 C228.892881,5.26614546 229.717976,5.16203507 230.547058,5.06763832 C231.340265,4.97722667 232.149417,4.90599324 232.938638,4.81732506 C233.74779,4.72741154 234.552956,4.63052412 235.354135,4.53014974 C236.609715,4.37423322 237.857323,4.21657322 239.104931,4.05169026 C240.240932,3.90200043 241.368961,3.73437772 242.508948,3.59290714 C242.999222,3.53088922 243.521384,3.51619422 244.027602,3.47186013 C244.482002,3.37298016 244.521862,3.33014048 244.59361,3.32241937 C245.514368,3.21980339 246.439113,3.11394952 247.371829,3.02727388 C248.105247,3.01208074 248.296574,3.0123298 248.479929,2.99265344 C250.165993,2.80859224 251.848072,2.61606273 253.522178,2.41083076 C254.012452,2.3515526 254.450909,2.22602236 254.937197,2.15777775 C255.543064,2.07284559 256.176833,2.02776429 256.7827,1.94557188 C257.974505,1.78342866 259.138407,1.55154642 260.3621,1.4561534 C261.29083,1.3831765 262.016277,1.13884087 262.889204,1.04917641 C263.602692,0.975950444 264.348068,0.958017553 265.061556,0.885787855 C266.572238,0.731863877 268.070962,0.553282174 269.577658,0.395871245 C270.103806,0.342321641 270.645898,0.321649003 271.180017,0.281798135 C271.805814,0.235969637 272.443569,0.188895799 273.073352,0.140078486 C273.57957,0.0997294818 274.081802,0.052406576 274.592006,0.0185333381 C274.867038,-0.000395824254 275.154028,-0.00487904691 275.433046,0.00533273803 C275.484863,0.00732528144 275.592484,0.134100856 275.540667,0.166479686 C274.599978,0.765238979 273.627402,1.35577903 272.682727,1.95478739 C272.13665,2.29999554 271.626446,2.6551664 271.104284,3.00734844 C270.319048,3.45517257 269.677307,3.79340682 269.027595,4.12616157 C268.210471,4.54434661 267.393348,4.96576954 266.544336,5.37249747 C265.583718,5.82978618 264.547366,6.26042462 263.606678,6.7256835 C262.945007,7.05345689 262.406901,7.42581344 261.789076,7.76877998 C261.079574,8.16131103 260.314268,8.53366758 259.628682,8.93292346 C258.707923,9.47041204 257.827024,10.0208522 256.950111,10.5735339 C256.053268,11.1404125 255.224187,11.7267184 254.299442,12.2833852 C253.426515,12.8036881 252.50177,13.3073034 251.53318,13.7909933 C251.198359,13.9573707 250.863537,14.2472858 250.086274,14.0886295 C250.006554,14.0726892 249.747466,14.1481568 249.675719,14.2059405 C249.524252,14.3242478 249.49635,14.4719451 249.340898,14.5860182 C248.986146,14.8497811 249.141599,15.0201436 249.787326,15.1474173 C250.393193,15.2682152 250.959201,15.4326 251.545138,15.5720781 C252.238697,15.7377083 252.908339,15.9887687 253.645743,16.0393295 C254.82559,16.1190312 255.451387,16.5573908 256.479767,16.7155489 C257.0099,16.7974923 257.516118,16.9157995 258.002407,17.0405826 C258.672049,17.2124394 259.305818,17.4119429 259.971475,17.5875357 C260.581328,17.7479355 261.215097,17.8894061 261.828936,18.04333 C261.984389,18.0819356 262.13187,18.1280131 262.271379,18.175087 C263.144306,18.4627604 264.021219,18.7511811 264.898132,19.040598 C265.40435,19.2107114 265.906582,19.3880478 266.424757,19.5551723 C266.859228,19.6966429 267.309642,19.8316377 267.760057,19.9633947 C268.752563,20.2508191 269.757027,20.5285298 270.733589,20.8244225 C271.231835,20.9763539 271.682249,21.1591698 272.164552,21.3228074 C272.327976,21.379844 272.519303,21.4468432 272.714615,21.4640289 C273.436075,21.5225599 273.8267,21.7663974 274.32096,21.9551909 C274.564104,22.0490895 274.843122,22.1245571 275.110182,22.2057532 C275.680176,22.3766138 276.250169,22.5464781 276.796247,22.7088704 C276.341846,23.0872046 275.544653,23.0179637 274.898926,23.1058847 C273.958237,23.2339056 273.021535,23.378365 272.084832,23.5128617 C271.279667,23.6281801 270.478487,23.7442458 269.66535,23.8488543 C268.457601,24.0047708 267.241881,24.1427545 266.034132,24.3011617 C264.379956,24.5193452 262.737737,24.7589485 261.079574,24.96966 C259.636654,25.153223 258.181775,25.3203476 256.722911,25.4735244 C255.52712,25.5998018 254.303428,25.6712843 253.111624,25.8067773 C251.656745,25.9731547 250.229769,26.194327 248.778876,26.3689236 C247.862103,26.4790116 246.917429,26.5534829 245.984712,26.6341809 C244.880599,26.7295739 243.764528,26.8060378 242.660415,26.9074084 C242.102379,26.9579692 241.572246,27.063574 241.01421,27.111146 C240.041634,27.1958291 239.0571,27.2456427 238.084523,27.3288314 C237.331175,27.3928418 236.581813,27.4800156 235.844409,27.5671894 C234.453306,27.7315742 233.062203,27.8854982 231.695016,28.0742917 C230.714468,28.2105318 229.777766,28.4062992 228.809175,28.5554909 C228.342817,28.6269734 227.836599,28.6456535 227.354297,28.6979578 C226.70857,28.7676968 226.074801,28.8516327 225.425088,28.9198773 C225.20586,28.9432897 224.966702,28.9211226 224.755446,28.9477729 C224.245242,29.0117833 223.750982,29.1019459 223.240778,29.1657073 C222.331977,29.2792823 221.427162,29.4292212 220.498432,29.4777894 C218.884115,29.5609781 217.377419,29.7497716 215.930512,30.0621028 C215.244926,30.0800357 215.089473,30.0758015 214.949964,30.0907456 C214.092981,30.1824026 213.255927,30.3181446 212.394958,30.3953557 C211.270915,30.4962282 210.21862,30.7330918 209.026815,30.711921 C208.743811,30.7071887 208.456822,30.8259941 208.153888,30.8561313 C207.639698,30.9091828 207.093621,30.9181492 206.575445,30.9814125 C205.559023,31.1071918 204.538615,31.243432 203.538137,31.4018392 C202.481855,31.5689637 201.457462,31.7806715 200.389222,31.9435619 C199.799299,32.0349698 199.137628,32.0411965 198.543719,32.1343479 C197.866104,32.240949 197.244293,32.4115605 196.578636,32.5338529 C195.984727,32.6424465 195.366902,32.7283749 194.749077,32.8113146 C193.904052,32.9236442 193.047069,33.0170447 192.206029,33.1291252 C190.946463,33.2967479 189.690883,33.4795638 188.431317,33.6441977 C187.502587,33.7637503 186.553926,33.8509241 185.629182,33.9774506 C184.441363,34.1410882 183.273475,34.3343649 182.089642,34.503233 C181.619298,34.5712285 181.121052,34.605849 180.646722,34.6641308 C180.283998,34.7074687 179.941205,34.8001219 179.574496,34.8090884 C177.677175,34.8606454 176.03097,35.2868007 174.217355,35.4668768 C172.890027,35.59963 171.610532,35.8330066 170.315092,36.0317628 C168.963849,36.2384892 167.636521,36.472364 166.27332,36.666637 C165.145291,36.8275348 163.977403,36.9361285 162.841402,37.0912978 C162.271408,37.1687579 161.753232,37.3139645 161.189616,37.3991457 C160.390828,37.5206909 159.57211,37.6175783 158.752994,37.718949 C158.13477,37.7971563 157.505386,37.8601705 156.884771,37.9371325 C156.504509,37.9842063 156.118668,38.0315292 155.7687,38.1057514 C154.533448,38.3640349 153.1268,38.4073727 151.905898,38.6382587 C150.393621,38.9249359 148.772528,38.9463557 147.235937,39.1545765 C146.072035,39.3127346 144.871461,39.4175922 143.703971,39.5715162 C142.973343,39.6696489 142.291743,39.8382679 141.55952,39.9336609 C140.089096,40.1261905 138.593163,40.2766275 137.123935,40.4696551 C136.259378,40.582981 135.386451,40.7060206 134.596831,40.8910781 C133.64817,41.1129976 132.643706,41.2146173 131.62011,41.3095122 C130.708519,41.3944443 129.794138,41.4729007 128.90168,41.5832378 C128.14594,41.6766383 127.418102,41.8153691 126.67432,41.9274497 C125.798603,42.0584594 124.894586,42.1610754 124.039595,42.3152485 C123.035132,42.4958227 122.072919,42.7202329 121.087587,42.9214798 C119.696883,43.0771472 118.79725,43.142154 117.94226,43.2709221 C117.316862,43.3640735 116.779952,43.5593427 116.162525,43.6734159 C115.291192,43.8338156 114.389566,43.9633309 113.497108,44.1023108 C113.310963,44.132199 113.104889,44.1371803 112.913562,44.1625853 C112.185725,44.2656994 111.458285,44.3688135 110.733238,44.476909 C110.434689,44.5214921 110.156867,44.5972088 109.850346,44.6293385 C108.94593,44.7269732 108.031549,44.8004482 107.134307,44.9020679 C106.854891,44.9344468 106.615733,45.0258547 106.357043,45.0891179 C104.787369,45.3090449 103.524216,45.4567422 102.263454,45.6051867 C101.880402,45.6497698 101.50612,45.7135312 101.121873,45.7354492 C99.0156871,45.8547527 96.9820461,46.0657133 95.0038101,46.4161518 C93.3305006,46.7110483 91.5746816,46.915533 89.8559322,47.1628575 C89.5928583,47.2002177 89.3321759,47.245548 89.0862417,47.3010902 C88.4636335,47.4408173 87.8824793,47.5783028 87.1239495,47.6129232 C86.1617368,47.6565101 85.2238385,47.8316049 84.2863388,47.960373 C84.0683063,47.9912574 83.8741897,48.0607474 83.6784786,48.1155423 C83.5062848,48.1628652 83.3476433,48.2482955 83.1662817,48.2592545 C82.4890657,48.2963656 81.806668,48.3090681 81.0509284,48.3339749 C81.0509284,47.8186533 81.068068,47.3287367 81.0409635,46.8393183 C81.0373761,46.6682086 80.9221816,46.4980952 80.8787346,46.328729 C80.8452524,46.1994628 80.8221338,46.0689512 80.8281128,45.9391868 C80.8472454,45.686881 80.977188,45.4300919 80.9074335,45.1820203 C80.7499878,44.5879933 80.7543724,44.0006911 80.893084,43.4034262 C80.9835655,42.9874828 80.7499878,42.559335 80.6730586,42.1354214 C80.6559189,42.0470023 80.6300101,41.9541 80.6730586,41.8709113 C80.9987122,41.2714048 80.3573699,40.6987976 80.4578163,40.0977967 C80.5415216,39.6066348 80.2780492,39.1062573 80.2134765,38.6096159 C80.1943438,38.4644093 80.4000198,38.3139722 80.3765026,38.1690147 C80.3179088,37.7794725 80.1700294,37.3931681 80.1062539,37.0046221 C80.0871213,36.9032515 80.2800421,36.7966504 80.2856225,36.6915438 C80.2951888,36.3856883 80.2780492,36.0805801 80.2350007,35.7759701 C80.174414,35.3306366 79.9643535,34.8813181 80.0436742,34.440966 C80.094296,34.1610136 79.8356067,33.8643737 80.1923508,33.5936369 C80.2421754,32.8287493 80.3286709,32.142069 80.3071467,31.4551397 C80.2900071,30.9637287 80.3378387,30.4820313 80.5080395,29.9926128 C80.6387793,29.6105426 80.3478036,29.197588 80.5008648,28.8175104 C80.678639,28.3706825 80.4677812,27.9460217 80.4550261,27.5109 C80.4430682,27.1363019 80.543116,26.7604584 80.553081,26.3838677 C80.5630459,26.1744015 80.4908999,25.963441 80.4331033,25.7547221 C80.3378387,25.391581 80.1799943,25.0309307 80.1321627,24.6672915 C80.1014708,24.4398925 80.4052015,24.2458686 80.9074335,24.1664159 C82.4583738,23.9243219 83.8319384,23.539761 85.2716701,23.2109914 C86.4566985,22.9402545 87.6863697,22.7048853 88.9048801,22.4620441 C89.8902115,22.2650314 90.880326,22.0722528 91.8831956,21.893173 C93.7442441,21.563407 95.6116702,21.2408641 97.4846767,20.9250459 C98.4157989,20.7686313 99.3600747,20.6219303 100.31033,20.4904224 C101.471044,20.3302717 102.647701,20.2002583 103.804429,20.0373679 C104.359276,19.9586624 104.8639,19.8137049 105.416753,19.7337541 C106.380561,19.5945251 107.368682,19.4869277 108.34365,19.3566652 C108.529396,19.3317584 108.672891,19.2575362 108.852259,19.2241611 C109.086634,19.1820686 109.333764,19.1509351 109.585279,19.1305115 C111.439153,18.9357404 112.745753,18.7257762 114.073878,18.538228 C115.014566,18.4057239 115.983954,18.3063458 116.930621,18.1798193 C117.691543,18.0791958 118.43652,17.9576507 119.19226,17.8490571 C119.864692,17.7524187 120.536328,17.6542859 121.213544,17.5651196 C121.689469,17.5031017 122.27421,17.5108228 122.632947,17.3885305 C123.709557,17.0214043 125.058409,17.1322396 126.228689,16.9397101 C127.29374,16.7663588 128.419377,16.6597577 129.501966,16.5045884 C130.064785,16.4233923 130.696162,16.4495444 131.203576,16.2605018 C131.816219,16.2276249 131.958917,16.2296174 132.079293,16.2141752 C133.30458,16.0565152 134.521097,15.8903869 135.735622,15.7165375 C136.175673,15.6537724 136.585032,15.549911 137.027873,15.4903838 C137.606635,15.4119274 138.209712,15.3633592 138.791265,15.2916276 C139.133261,15.2492861 139.458516,15.1837812 139.796128,15.1329713 C140.05123,15.0946149 140.313506,15.0704553 140.563028,15.0286119 C141.062071,14.9461704 141.537996,14.8303538 142.0482,14.7755589 C142.910365,14.6814112 143.786879,14.6266162 144.657016,14.5516468 C145.974379,14.3466639 146.852487,14.222379 147.714652,14.0776705 C148.426945,13.9573707 149.101371,13.7937331 149.824824,13.6891246 C150.498054,13.5899955 151.215927,13.5426726 151.91666,13.4741789 C152.884054,13.3807785 153.468397,13.3132811 154.048356,13.2350737 C154.195438,13.2151483 154.316213,13.159108 154.452134,13.1210006 C156.056487,13.0572392 157.174551,12.9043115 158.243189,12.6475225 C158.856629,12.6512585 158.988166,12.6564889 159.085025,12.63482 C159.959945,12.4378073 160.893858,12.3860012 161.860853,12.3850049 C162.064138,12.3850049 162.263436,12.3125261 162.474693,12.2891138 C163.30776,12.1944679 164.160757,12.1162606 164.993824,12.0146409 C166.217517,11.8659474 167.421279,11.6798936 168.652943,11.5498802 C170.032088,11.402681 171.435149,11.3075371 172.826252,11.1775236 C174.77539,10.995704 176.712571,10.7999366 178.657723,10.6146301 C179.506735,10.533683 180.363718,10.4681782 181.216715,10.3842423 C181.539578,10.3528597 181.846498,10.2861095 182.165375,10.2462586 C182.544042,10.1989357 182.938653,10.1697948 183.321306,10.1217247 C183.672071,10.0763943 184.010879,10.0071534 184.369616,9.96655535 C185.585336,9.82757545 186.793085,9.63654035 188.028735,9.58174541 C188.869774,9.54463429 189.555361,9.19967521 190.464161,9.37875505 C190.922548,9.12669831 191.608134,9.22657455 192.194071,9.17003613 C193.521399,9.03877733 194.840754,8.88883844 196.164096,8.75160201 C197.363872,8.62806432 198.555677,8.45546025 199.775383,8.40514853 C201.118654,8.35035358 202.302487,8.10825956 203.558067,7.94437286 C205.024903,7.75283963 206.511669,7.58073369 207.982492,7.39991038 C209.034787,7.27114226 210.079111,7.12493939 211.143364,7.01609671 C212.929078,6.83577153 214.730736,6.68110035 216.524421,6.51198322 C217.911538,6.38122256 219.294669,6.24572961 220.681786,6.111482 C221.486952,6.03327467 222.292117,5.94784437 223.105255,5.86963704 C223.280638,5.85319856 223.70315,5.81035888 223.70315,5.81035888 C224.324961,5.74834097 225.030478,5.74435588 225.556625,5.61035733 Z M222.596705,23.6335486 L223.811581,23.4843805 L222.344762,11.538095 L215.139869,12.4227446 L215.276607,13.5363814 L221.266623,12.8008999 L221.765921,16.8673615 L216.197738,17.5510485 L216.334475,18.6646853 L221.902659,17.9809983 L222.596705,23.6335486 Z M203.745137,19.8850359 C203.660884,19.1988523 203.692918,18.5298012 203.841241,17.8778627 C203.989563,17.2259242 204.245632,16.6378392 204.609456,16.1135902 C204.97328,15.5893411 205.441641,15.1493196 206.014552,14.7935123 C206.587464,14.4377051 207.256372,14.2128443 208.021299,14.1189232 C208.786225,14.0250021 209.489663,14.0813599 210.131634,14.2879983 C210.773605,14.4946367 211.334504,14.808281 211.814348,15.2289406 C212.294193,15.6496002 212.684926,16.1582678 212.986561,16.7549586 C213.288195,17.3516494 213.481136,17.993077 213.565389,18.6792607 C213.649641,19.3654443 213.617607,20.0344954 213.469285,20.6864339 C213.320963,21.3383724 213.064894,21.9264574 212.70107,22.4507064 C212.337246,22.9749555 211.868885,23.414977 211.295973,23.7707842 C210.723062,24.1265915 210.054153,24.3514523 209.289227,24.4453734 C208.524301,24.5392945 207.820863,24.4829367 207.178892,24.2762983 C206.536921,24.0696599 205.976022,23.7560156 205.496177,23.335356 C205.016333,22.9146964 204.625599,22.4060288 204.323965,21.809338 C204.022331,21.2126472 203.82939,20.5712196 203.745137,19.8850359 Z M202.429021,20.0466347 C202.540897,20.9577966 202.801277,21.7764916 203.210168,22.5027443 C203.619059,23.2289969 204.136091,23.8363402 204.761281,24.3247924 C205.386472,24.8132445 206.098044,25.1683347 206.896019,25.3900738 C207.693994,25.6118128 208.537301,25.6681244 209.425965,25.5590102 C210.314629,25.4498959 211.119263,25.1912427 211.839891,24.7830426 C212.560519,24.3748425 213.16505,23.8581551 213.653502,23.2329649 C214.141955,22.6077747 214.4967,21.8933906 214.717748,21.0897911 C214.938796,20.2861917 214.993382,19.4288238 214.881505,18.5176619 C214.769628,17.6065 214.509249,16.787805 214.100358,16.0615523 C213.691467,15.3352996 213.174435,14.7279564 212.549244,14.2395042 C211.924054,13.7510521 211.212482,13.3959618 210.414507,13.1742228 C209.616532,12.9524838 208.773225,12.8961722 207.884561,13.0052864 C206.995897,13.1144007 206.191263,13.3730539 205.470635,13.781254 C204.750007,14.1894541 204.145475,14.7061415 203.657023,15.3313317 C203.168571,15.9565219 202.813826,16.670906 202.592778,17.4745055 C202.371729,18.2781049 202.317144,19.1354728 202.429021,20.0466347 Z M199.07441,19.7562947 L196.91463,20.0214824 C196.374682,20.0877797 195.90939,20.0878187 195.518739,20.0215995 C195.128089,19.9553804 194.808885,19.8432809 194.561117,19.6852977 C194.313349,19.5273145 194.123309,19.327991 193.990992,19.0873212 C193.858675,18.8466514 193.774562,18.5800846 193.738651,18.2876129 C193.704121,18.00639 193.721938,17.7330171 193.792101,17.4674858 C193.862265,17.2019546 193.998093,16.9597649 194.199591,16.7409095 C194.401089,16.5220541 194.683693,16.3360619 195.04741,16.1829273 C195.411127,16.0297927 195.862953,15.9200784 196.402901,15.8537811 L198.562681,15.5885934 L199.07441,19.7562947 Z M199.892763,26.4212421 L201.107639,26.272074 L199.64082,14.3257886 L195.962444,14.7774364 C194.747561,14.9266052 193.821064,15.3086956 193.182923,15.923719 C192.544782,16.5387425 192.291322,17.3805649 192.422535,18.4492116 C192.524743,19.2816311 192.872254,19.9497532 193.465079,20.4535978 C194.057904,20.9574424 194.854781,21.1935844 195.855735,21.1620307 L193.109703,27.2540972 L194.594552,27.0717807 L197.186354,21.118545 L199.211148,20.8699315 L199.892763,26.4212421 Z M183.330697,28.4548082 L184.545573,28.3056401 L183.913681,23.1592883 L187.550174,15.8103332 L186.031579,15.9967933 L183.16329,22.0696157 L178.911053,16.871084 L177.392457,17.0575441 L182.698804,23.3084564 L183.330697,28.4548082 Z M166.790769,24.4224618 C166.706516,23.7362781 166.73855,23.0672271 166.886873,22.4152886 C167.035195,21.76335 167.291264,21.1752651 167.655088,20.651016 C168.018912,20.126767 168.487273,19.6867454 169.060184,19.3309382 C169.633096,18.975131 170.302004,18.7502702 171.066931,18.6563491 C171.831857,18.562428 172.535295,18.6187858 173.177266,18.8254242 C173.819237,19.0320626 174.380136,19.3457069 174.85998,19.7663665 C175.339825,20.1870261 175.730558,20.6956936 176.032193,21.2923844 C176.333827,21.8890752 176.526768,22.5305028 176.611021,23.2166865 C176.695273,23.9028702 176.663239,24.5719212 176.514917,25.2238597 C176.366595,25.8757982 176.110526,26.4638832 175.746702,26.9881323 C175.382878,27.5123813 174.914517,27.9524029 174.341605,28.3082101 C173.768694,28.6640173 173.099785,28.8888781 172.334859,28.9827992 C171.569933,29.0767203 170.866495,29.0203625 170.224524,28.8137241 C169.582553,28.6070857 169.021654,28.2934414 168.541809,27.8727818 C168.061965,27.4521222 167.671231,26.9434547 167.369597,26.3467639 C167.067963,25.7500731 166.875022,25.1086455 166.790769,24.4224618 Z M165.474653,24.5840605 C165.586529,25.4952225 165.846909,26.3139175 166.2558,27.0401701 C166.664691,27.7664228 167.181723,28.3737661 167.806913,28.8622182 C168.432104,29.3506703 169.143676,29.7057606 169.941651,29.9274996 C170.739626,30.1492387 171.582933,30.2055502 172.471597,30.096436 C173.360261,29.9873218 174.164895,29.7286685 174.885523,29.3204684 C175.606151,28.9122684 176.210682,28.395581 176.699134,27.7703908 C177.187587,27.1452005 177.542332,26.4308164 177.76338,25.627217 C177.984428,24.8236175 178.039013,23.9662497 177.927137,23.0550878 C177.81526,22.1439258 177.554881,21.3252308 177.14599,20.5989782 C176.737099,19.8727255 176.220067,19.2653822 175.594876,18.7769301 C174.969686,18.2884779 174.258114,17.9333877 173.460139,17.7116486 C172.662164,17.4899096 171.818857,17.433598 170.930193,17.5427123 C170.041529,17.6518265 169.236895,17.9104798 168.516267,18.3186798 C167.795639,18.7268799 167.191107,19.2435673 166.702655,19.8687575 C166.214203,20.4939477 165.859458,21.2083319 165.63841,22.0119313 C165.417361,22.8155308 165.362776,23.6728986 165.474653,24.5840605 Z M155.06844,27.4032729 C155.129212,27.898225 155.252838,28.4168526 155.439321,28.9591713 C155.625803,29.5014899 155.911155,29.9888418 156.295383,30.4212416 C156.679612,30.8536413 157.174745,31.1896336 157.780798,31.4292284 C158.386851,31.6688233 159.134198,31.7340626 160.022862,31.6249484 C160.922775,31.514453 161.634952,31.2700066 162.159415,30.8916018 C162.683878,30.5131971 163.080208,30.0677469 163.348416,29.555238 C163.616625,29.0427291 163.775599,28.5008209 163.825343,27.9294972 C163.875088,27.3581735 163.869574,26.8250436 163.808801,26.3300914 L162.888931,18.8383531 L161.674055,18.9875211 L162.577351,26.3442732 C162.647791,26.9179678 162.651974,27.4170062 162.589898,27.8414034 C162.527823,28.2658007 162.421248,28.6300001 162.270171,28.9340126 C162.119093,29.238025 161.93827,29.4857394 161.727694,29.6771631 C161.517119,29.8685868 161.302058,30.0234492 161.082505,30.1417549 C160.862952,30.2600607 160.64804,30.3463948 160.437764,30.4007597 C160.227487,30.4551246 160.04361,30.4919749 159.886125,30.5113116 C159.739889,30.5292671 159.55537,30.5376502 159.332564,30.5364612 C159.109757,30.5352722 158.877531,30.5038397 158.635879,30.4421629 C158.394226,30.380486 158.148089,30.2822517 157.897459,30.1474569 C157.646829,30.0126621 157.411449,29.8160511 157.191312,29.557618 C156.971175,29.2991848 156.779658,28.9715865 156.616756,28.5748131 C156.453853,28.1780397 156.337183,27.6928131 156.266742,27.1191185 L155.363447,19.7623664 L154.14857,19.9115345 L155.06844,27.4032729 Z M149.122925,32.6549944 L150.337801,32.5058264 L149.007719,21.6731777 L153.006687,21.1821661 L152.86995,20.0685293 L143.657137,21.1997205 L143.793874,22.3133573 L147.792843,21.8223457 L149.122925,32.6549944 Z M142.176037,21.3815767 L140.961161,21.5307448 L141.597197,26.7108431 L135.084109,27.5105498 L134.448073,22.3304514 L133.233196,22.4796195 L134.700016,34.425905 L135.914892,34.2767369 L135.220846,28.6241865 L141.733934,27.8244799 L142.42798,33.4770302 L143.642857,33.3278622 L142.176037,21.3815767 Z" id="Combined-Shape"></path>
                <text id="BY-YOUTH" transform="translate(98.000000, 65.500000) scale(-1, 1) rotate(7.000000) translate(-98.000000, -65.500000) " font-family="Avenir-Book, Avenir" font-size="17" font-weight="normal" line-spacing="25" letter-spacing="-0.377777785">
                    <tspan x="58" y="70">BY YOUTH</tspan>
                </text>
            </g>
        </g>
    </g>
</svg>