<svg xmlns="http://www.w3.org/2000/svg" xmlns:se="http://svg-edit.googlecode.com" xmlns:xlink="http://www.w3.org/1999/xlink" xmlns:dc="http://purl.org/dc/elements/1.1/" xmlns:cc="http://creativecommons.org/ns#" xmlns:rdf="http://www.w3.org/1999/02/22-rdf-syntax-ns#" xmlns:inkscape="http://www.inkscape.org/namespaces/inkscape" width="777" height="480">                                    <title>my vector image</title>                                    <!-- Created with Vector Paint - http://www.vectorpaint.yaks.com/ https://chrome.google.com/webstore/detail/hnbpdiengicdefcjecjbnjnoifekhgdo -->                                    <rect id="backgroundrect" width="100%" height="100%" x="0" y="0" fill="#FFFFFF" stroke="none"/>                                <g class="currentLayer"><title>Layer 1</title><path fill="#4a90d6" fill-opacity="1" stroke="none" stroke-width="2" stroke-dasharray="none" stroke-linejoin="round" stroke-linecap="butt" stroke-dashoffset="" fill-rule="nonzero" opacity="1" marker-start="" marker-mid="" marker-end="" d="M113,223 C113,214.16022099447514 121.05524861878453,207 131,207 C140.94475138121547,207 149,214.16022099447514 149,223 C149,231.83977900552486 140.94475138121547,239 131,239 C121.05524861878453,239 113,231.83977900552486 113,223 Z" id="svg_1" class=""/><path fill="#4a90d6" fill-opacity="1" stroke="none" stroke-width="2" stroke-dasharray="none" stroke-linejoin="round" stroke-linecap="butt" stroke-dashoffset="" fill-rule="nonzero" opacity="1" marker-start="" marker-mid="" marker-end="" d="M189,234 C189,223.5027624309392 198.84530386740332,215 211,215 C223.15469613259668,215 233,223.5027624309392 233,234 C233,244.4972375690608 223.15469613259668,253 211,253 C198.84530386740332,253 189,244.4972375690608 189,234 Z" id="svg_3" class=""/><path fill="#4a90d6" fill-opacity="1" stroke="none" stroke-width="2" stroke-dasharray="none" stroke-linejoin="round" stroke-linecap="butt" stroke-dashoffset="" fill-rule="nonzero" opacity="1" marker-start="" marker-mid="" marker-end="" d="M262,232.5 C262,222.8314917127072 279.45303867403317,215 301,215 C322.54696132596683,215 340,222.8314917127072 340,232.5 C340,242.1685082872928 322.54696132596683,250 301,250 C279.45303867403317,250 262,242.1685082872928 262,232.5 Z" id="svg_5" class=""/><path fill="#4a90d6" fill-opacity="1" stroke="none" stroke-width="2" stroke-dasharray="none" stroke-linejoin="round" stroke-linecap="butt" stroke-dashoffset="" fill-rule="nonzero" opacity="1" marker-start="" marker-mid="" marker-end="" d="M373,231 C373,220.5027624309392 383.292817679558,212 396,212 C408.707182320442,212 419,220.5027624309392 419,231 C419,241.4972375690608 408.707182320442,250 396,250 C383.292817679558,250 373,241.4972375690608 373,231 Z" id="svg_7" class=""/><rect fill="#4a90d6" stroke="none" stroke-width="2" stroke-linejoin="round" stroke-dashoffset="" fill-rule="nonzero" id="svg_9" x="115" y="217" width="312" height="18" style="color: rgb(0, 0, 0);" class=""/></g></svg>